<svg width="364" height="586" viewBox="0 0 364 586" fill="none" xmlns="http://www.w3.org/2000/svg">
<g id="petani-tua">
<path id="Rectangle 5" d="M9.18243 177.194C9.18243 79.3322 88.5148 0 186.376 0V0C284.475 0 364 79.5249 364 177.624V585.921H9.18243V177.194Z" fill="url(#paint0_diamond_26_62)"/>
<g id="petani-1 1" clip-path="url(#clip0_26_62)">
<g id="Group">
<g id="Layer 1">
<path id="Vector" d="M117.352 208.348C116.436 211.389 115.506 214.049 114.608 216.332C110.662 226.309 107.118 229.516 107.118 229.516L93.0638 214.975C93.0638 214.975 84.1326 217.649 80.923 214.591C77.7134 211.533 72.3195 200.597 75.6348 194.354C78.9501 188.111 88.6704 176.738 92.4683 178.884C93.7543 179.623 95.8752 182.146 98.1054 185.194C102.46 191.148 107.266 199.001 107.266 199.001L117.352 208.348Z" fill="#E69A73"/>
<path id="Vector_2" d="M333 125.993C313.57 147.203 285.79 147.964 285.79 147.964C285.79 147.964 284.899 144.638 283.535 139.529C280.657 128.872 275.76 110.435 272.67 98.4664C268.139 80.8187 270.362 75.9707 275.21 72.2291C287.618 62.5896 316.737 102.134 328.209 118.859C331.221 123.189 333 125.993 333 125.993Z" fill="#716D6D"/>
<path id="Vector_3" d="M333 125.993C313.57 147.203 285.79 147.964 285.79 147.964C285.79 147.964 284.899 144.638 283.535 139.529C294.608 137.253 315.691 131.895 328.209 118.859C331.221 123.189 333 125.993 333 125.993Z" fill="#A5A5A5"/>
<path id="Vector_4" d="M2.82557 239.863L275.361 76.5345C276.492 75.855 277.837 75.6273 279.128 75.8971C280.418 76.1669 281.56 76.9143 282.323 77.9896C282.737 78.5764 283.026 79.2422 283.172 79.9455C283.317 80.6488 283.316 81.3745 283.169 82.0776C283.022 82.7806 282.732 83.4457 282.317 84.0317C281.901 84.6176 281.37 85.1118 280.755 85.4834L8.82195 249.827C8.12767 250.247 7.35311 250.517 6.54811 250.62C5.74311 250.723 4.92551 250.656 4.14794 250.424C3.37036 250.191 2.65005 249.799 2.03335 249.271C1.41665 248.744 0.917232 248.093 0.56724 247.361C-0.0578991 246.054 -0.172868 244.561 0.244846 243.175C0.66256 241.788 1.58287 240.607 2.82557 239.863Z" fill="#6B3B17"/>
<path id="Vector_5" d="M117.352 208.348C116.436 211.389 115.506 214.049 114.608 216.332C110.887 212.425 105.853 206.999 104.278 204.413C102.351 201.316 99.5181 190.725 98.1053 185.187C102.46 191.141 107.266 198.994 107.266 198.994L117.352 208.348Z" fill="#FAB68F"/>
<path id="Vector_6" d="M69.6454 193.614C69.346 194.065 68.0001 197.084 69.7406 200.794C71.481 204.504 72.8022 206.608 74.0282 207.08C75.2543 207.552 77.4386 207.644 77.6007 204.804C77.6007 204.804 79.2213 206.449 81.1872 204.702C83.1531 202.954 82.3816 200.928 82.3816 200.928C82.3816 200.928 84.6751 202.863 86.7256 200.675C87.3152 200.069 87.7465 199.327 87.9812 198.514C88.2159 197.702 88.2469 196.844 88.0714 196.017C88.0714 196.017 90.8124 198.131 92.8946 196.496C94.9768 194.861 93.8212 191.867 91.9328 187.512C90.0444 183.157 92.3873 180.406 91.5206 178.605C90.6539 176.805 85.4678 175.692 83.8648 179.923C83.8648 179.923 77.9072 178.637 77.2026 185.208C77.2026 185.208 71.7487 186.941 71.6642 191.088L69.6454 193.614Z" fill="#FAB68F"/>
<path id="Vector_7" d="M106.839 202.785C106.787 202.937 106.713 203.08 106.621 203.211C105.243 205.614 99.0918 211.005 94.9415 208.288C93.2434 207.182 92.9369 204.666 93.2117 202.003C93.4674 199.834 93.9396 197.697 94.6209 195.622C95.1001 194.09 95.5123 193.068 95.5123 193.068C95.5123 193.068 87.3738 196.813 83.7062 195.348C83.4174 195.227 83.1645 195.034 82.9716 194.787C82.7787 194.541 82.6524 194.249 82.6046 193.939C82.5569 193.63 82.5894 193.314 82.699 193.02C82.8086 192.727 82.9917 192.467 83.2306 192.265C83.8894 191.719 84.7491 190.996 85.7356 190.211C88.3885 188.097 91.8271 185.557 93.7472 185.035C97.214 184.084 102.485 185.627 105.906 187.29C109.327 188.953 107.639 200.696 106.839 202.785Z" fill="#FAB68F"/>
<path id="Vector_8" d="M95.5264 193.068C95.5264 193.068 87.3879 196.813 83.7203 195.348C83.4315 195.227 83.1786 195.034 82.9857 194.787C82.7928 194.541 82.6665 194.249 82.6187 193.939C82.571 193.63 82.6035 193.314 82.7131 193.02C82.8227 192.727 83.0058 192.467 83.2447 192.265C83.9035 191.719 84.7632 190.996 85.7497 190.211C85.6616 191.37 85.799 194.463 90.0091 192.437C95.1353 189.971 98.3625 190.137 98.3625 190.137C96.9037 191.809 95.6521 193.65 94.635 195.622C95.1142 194.09 95.5264 193.068 95.5264 193.068Z" fill="#E69A73"/>
<path id="Vector_9" d="M106.638 203.211C105.261 205.614 99.1094 211.005 94.9592 208.288C93.261 207.182 92.9545 204.666 93.2293 202.003C94.8852 205.047 101.984 205.797 106.638 203.211Z" fill="#E69A73"/>
<path id="Vector_10" d="M174.054 213.002C165.824 229.42 154.324 266.446 142.479 265.498C130.634 264.55 101.583 227.447 101.583 227.447C101.414 221.972 102.844 217.889 104.951 214.88C110.109 207.534 119.265 206.375 119.265 206.375L136.314 220.69C141.795 208.887 146.232 196.626 149.575 184.049C155.067 163.357 163.149 157.001 163.149 157.001L165.824 158.389L167.148 159.066C177.422 166.609 182.284 196.584 174.054 213.002Z" fill="#D8C7BA"/>
<path id="Vector_11" d="M174.054 213.002C165.824 229.42 154.324 266.446 142.479 265.498C130.634 264.55 101.583 227.448 101.583 227.448C101.414 221.972 102.844 217.889 104.951 214.88C111.75 220.965 128.714 235.991 135.366 240.853C143.786 247.001 155.025 219.975 155.025 219.975C155.025 219.975 144.142 229.294 141.87 229.84C139.597 230.386 152.922 200.185 158.52 180.867C160.634 173.564 162.709 165.312 165.824 158.386L167.148 159.062C177.422 166.609 182.284 196.584 174.054 213.002Z" fill="#C5B2A5"/>
<path id="Vector_12" d="M184.641 516.326C188.703 531.733 188.305 547.161 188.305 547.161C188.305 547.161 105.92 551.625 105.12 550.004C104.528 548.845 104.151 544.173 107.234 540.699C108.731 539.081 110.67 537.94 112.811 537.416C121.548 535.037 153.204 521.019 155.311 515.462C155.362 515.35 155.397 515.232 155.416 515.11C156.237 509.825 158.256 475.347 158.256 473.706L190.316 472.906L184.641 516.326Z" fill="#DC8927"/>
<path id="Vector_13" d="M152.207 526.976C143.258 533.815 123.451 541.182 114.509 540.995C111.162 540.932 108.826 540.826 107.248 540.699C108.745 539.082 110.684 537.94 112.825 537.416C121.562 535.037 153.218 521.019 155.325 515.463L155.557 515.734C155.557 515.734 161.152 520.152 152.207 526.976Z" fill="#EDA024"/>
<path id="Vector_14" d="M219.118 281.814L218.826 283.928L211.142 338.837C211.142 338.837 203.796 397.675 202.577 427.706C201.358 457.738 203.186 460.825 193.988 476.14C184.789 491.455 157.217 484.099 151.069 474.921C148.955 471.75 148.25 468.121 148.25 463.344C148.292 454.183 151.093 440.904 152.312 419.117C153.598 395.984 158.777 337.784 161.155 304.232C162.163 289.787 162.67 279.922 162.124 279.372L217.459 281.751L219.118 281.814Z" fill="#265A6F"/>
<g id="Vector_15" style="mix-blend-mode:multiply" opacity="0.5">
<path d="M158.175 405.056C163.233 406.871 168.591 407.708 173.962 407.522C182.735 407.17 168.702 422.26 164.492 424.363C160.282 426.466 151.509 401.198 158.175 405.056Z" fill="#326D80"/>
</g>
<g id="Vector_16" style="mix-blend-mode:multiply" opacity="0.5">
<path d="M218.826 283.917L211.142 338.837C211.142 338.837 203.796 397.675 202.577 427.706C201.358 457.738 203.186 460.825 193.988 476.14C184.789 491.455 157.217 484.099 151.069 474.921C148.955 471.75 148.25 468.121 148.25 463.344C182.854 464.943 190.412 448.377 189.404 411.373C188.541 379.629 195.746 360.833 196.686 358.391C196.581 358.581 196.433 358.874 196.242 359.275C193.072 365.589 172.563 397.164 177.298 370.328C182.034 343.491 206.766 320.333 189.929 316.123C178.655 313.304 167.381 307.639 161.155 304.232C162.163 289.787 162.67 279.922 162.124 279.372L217.459 281.751C217.92 282.466 218.382 283.181 218.826 283.917Z" fill="#326D80"/>
</g>
<path id="Vector_17" d="M257.7 475.333L270.278 532.148C270.278 532.148 265.409 554.063 266.628 562.585C267.847 571.108 282.859 573.948 292.192 572.732C301.524 571.517 306.802 563.804 306.802 561.37C306.802 558.935 295.035 531.743 295.035 531.743C295.035 531.743 293.005 480.607 290.976 468.84C288.947 457.072 257.7 475.333 257.7 475.333Z" fill="#DC8927"/>
<path id="Vector_18" d="M274.297 533.107C274.297 533.107 274.65 549.771 275.175 556.261C275.7 562.751 295.521 558.727 297.8 553.281C300.08 547.834 294.982 537.669 293.065 534.512C291.149 531.356 289.556 534.861 274.297 533.107Z" fill="#EDA024"/>
<path id="Vector_19" d="M293.907 463.869V464.122C293.738 490.222 266.881 486.54 256.502 481.034C246.123 475.527 239.348 436.906 231.357 403.794C223.607 371.589 199.005 287.095 198.289 284.886L253.437 274.468C253.437 274.468 255.371 279.834 257.982 287.349C259.162 290.781 260.448 294.653 261.794 298.673C265.12 308.819 268.53 319.893 270.003 326.964C270.253 328.186 270.464 329.3 270.591 330.248C272.458 343.741 293.907 437.515 293.907 463.869Z" fill="#265A6F"/>
<g id="Vector_20" style="mix-blend-mode:multiply" opacity="0.5">
<path d="M270.017 326.964C267.931 326.795 266.226 326.647 266.226 326.647C266.226 326.647 264.817 328.408 264.292 329.638C263.767 330.868 258.693 331.216 257.112 330.163C255.53 329.11 254.818 322.796 254.818 322.796C254.818 322.796 250.59 321.739 251.492 317.863C252.271 314.453 260.018 301.636 261.808 298.666C265.134 308.819 268.544 319.893 270.017 326.964Z" fill="#326D80"/>
</g>
<g id="Vector_21" style="mix-blend-mode:multiply" opacity="0.5">
<path d="M293.907 464.133C293.738 490.233 266.881 486.551 256.502 481.044C246.123 475.538 239.348 436.906 231.357 403.794C223.607 371.589 199.005 287.095 198.289 284.886L253.437 274.468C253.437 274.468 255.371 279.834 257.982 287.349C251.372 292.105 239.662 298.736 222.705 301.914C194.646 307.178 238.154 357.003 244.805 369.63C251.457 382.257 249.385 376.641 233.588 366.107C217.79 355.572 249.015 408.9 251.837 416.267C254.66 423.634 245.165 415.21 243.058 414.153C240.951 413.096 248.321 440.823 271.116 433.816C293.911 426.808 280.949 443.286 269.372 446.781C260.124 449.596 279.11 469.89 293.907 464.133Z" fill="#326D80"/>
</g>
<path id="Vector_22" d="M255.262 284.449C249.135 288.825 177.989 292.32 164.034 286.637C150.079 280.954 158.795 241.674 158.351 218.992C157.907 196.309 158.351 174.913 163.15 157.022C163.15 157.022 191.081 136.056 205.075 132.585C219.069 129.115 253.948 151.78 256.139 153.971C256.453 154.263 256.749 156.286 257.024 159.548C258.454 176.283 259.507 226.021 260.726 249.175C260.938 253.322 261.149 256.606 261.378 258.712C263.112 274.845 261.364 280.088 255.262 284.449Z" fill="#D8C7BA"/>
<path id="Vector_23" d="M234.303 207.545C234.303 207.545 225.883 229.294 206.237 238.415C186.592 247.537 175.015 235.597 166.947 231.749C158.879 227.902 169.414 269.289 199.572 270.691C229.73 272.094 249.389 184.743 234.303 207.545Z" fill="#C5B2A5"/>
<path id="Vector_24" d="M260.712 249.165C255.935 241.413 251.365 232.412 248.166 222.624C237.981 191.405 246.567 159.076 252.377 158.421C253.028 158.357 254.691 158.717 257.009 159.538C258.44 176.287 259.493 226.01 260.712 249.165Z" fill="#C5B2A5"/>
<path id="Vector_25" d="M292.244 272.594L290.37 282.487L288.608 291.665C287.389 300.473 287.326 315.323 286.399 317.871C286.372 317.979 286.322 318.08 286.251 318.167C285.156 319.449 282.422 319.259 282.422 319.259C282.422 319.259 280.611 321.619 279.159 322.165C277.708 322.711 275.347 321.813 275.347 321.813C275.347 321.813 272.99 323.983 271.158 323.814C269.326 323.645 266.254 320.361 266.254 320.361C265.698 321.444 264.966 322.426 264.087 323.268C262.826 324.36 258.45 323.62 257.182 322.528C256.048 321.563 257.534 315.834 257.816 314.742C257.836 314.687 257.85 314.63 257.859 314.573L253.5 311.962C253.251 309.254 253.329 306.527 253.733 303.838V303.827C253.988 302.116 254.498 300.453 255.248 298.895C257.859 293.652 270.951 288.413 270.951 288.413L272.969 279.108L275.305 268.331L292.244 272.594Z" fill="#FAB68F"/>
<path id="Vector_26" d="M259.638 305.536C259.451 306.462 257.852 314.02 257.876 314.566L253.518 311.955C253.268 309.247 253.346 306.52 253.751 303.831C254.276 305.494 255.202 307.808 256.4 308.587C258.133 309.704 259.409 306.188 259.638 305.536Z" fill="#E69A73"/>
<path id="Vector_27" d="M286.414 317.871C286.386 317.979 286.336 318.08 286.266 318.166C285.17 319.449 282.436 319.259 282.436 319.259C282.436 319.259 280.625 321.619 279.174 322.165C277.722 322.711 275.362 321.813 275.362 321.813C275.362 321.813 273.005 323.983 271.173 323.814C269.34 323.645 266.268 320.361 266.268 320.361L267.449 317.268C267.449 317.268 271.049 319.456 273.343 319.03C274.653 318.803 275.901 318.301 277.003 317.557C277.003 317.557 279.994 319.319 282.542 317.472C282.542 317.451 284.603 318.188 286.414 317.871Z" fill="#E69A73"/>
<path id="Vector_28" d="M292.244 272.594L290.37 282.487C283.782 282.677 276.669 280.444 272.983 279.077L275.319 268.299L292.244 272.594Z" fill="#E69A73"/>
<path id="Vector_29" d="M294.961 274.426C282.309 282.72 267.91 271.794 267.91 271.794L268.354 268.623L273.152 234.247C269.187 230.142 265.442 225.828 261.935 221.324C256.937 215.043 252.371 208.43 248.269 201.531C236.924 182.312 251.298 150.969 256.122 153.967C265.282 159.629 304.131 216.378 304.575 223.375C305.019 230.372 294.961 274.426 294.961 274.426Z" fill="#D8C7BA"/>
<path id="Vector_30" d="M290.433 234.557C297.001 231.925 290.687 242.453 282.267 243.904C276.056 244.961 270.732 260.513 268.354 268.637L273.152 234.261C269.187 230.156 265.442 225.842 261.935 221.338C265.106 223.737 268.858 226.179 272.152 227.328C279.794 229.959 286.636 229.181 292.297 226.549C297.959 223.917 295.958 231.936 285.709 232.989C275.46 234.043 283.852 237.189 290.433 234.557Z" fill="#C5B2A5"/>
<path id="Vector_31" d="M174.515 148.958C174.515 148.958 168.526 215.169 172.215 290.111L181.41 291.031C181.41 291.031 175.893 188.971 182.33 143.902L174.515 148.958Z" fill="#265A6F"/>
<path id="Vector_32" d="M232.855 138.416C232.855 138.416 221.546 198.705 229.645 290.111L238.95 289.075C238.95 289.075 234.285 187.995 240.711 142.94L232.855 138.416Z" fill="#265A6F"/>
<path id="Vector_33" d="M216.913 138.131C216.913 138.131 207.693 151.477 200.939 150.814C194.185 150.152 194.181 142.077 194.181 142.077C194.266 140.773 194.329 139.551 194.35 138.395C194.516 129.826 192.853 125.091 192.853 125.091C201.083 113.725 217.903 110.421 217.903 110.421C217.335 114.356 216.976 117.974 216.765 121.177C216.046 131.817 216.913 138.131 216.913 138.131Z" fill="#FAB68F"/>
<path id="Vector_34" d="M217.899 110.431C217.332 114.367 216.973 117.985 216.761 121.188C214.277 128.512 208.306 136.468 194.347 138.405C194.513 129.837 192.85 125.102 192.85 125.102C201.08 113.736 217.899 110.431 217.899 110.431Z" fill="#E69A73"/>
<path id="Vector_35" d="M179.035 62.7305C179.035 62.7305 183.291 54.7082 186.082 47.1791C186.082 47.1791 196.066 36.2149 217.508 46.1996C238.95 56.1844 237.639 72.5497 237.639 72.5497C237.639 72.5497 231.749 80.4065 228.638 89.4082C228.627 89.4082 196.221 85.9696 179.035 62.7305Z" fill="#FBAF40"/>
<path id="Vector_36" d="M160.377 66.983C155.797 78.1129 178.542 82.6965 193.766 87.77C208.989 92.8434 231.41 112.485 236.484 95.2991C241.557 78.1129 213.407 57.3295 188.527 57.3295C163.646 57.3295 160.377 66.983 160.377 66.983Z" fill="#EDA024"/>
<path id="Vector_37" d="M217.617 95.1053C216.166 111.587 213.872 126.892 197.683 128.047C181.494 129.203 176.298 123.71 176.897 112.154C177.295 104.072 175.59 96.9796 174.6 90.8739C174.161 88.4576 173.957 86.0047 173.99 83.5492C174.286 76.0342 179.127 70.5838 190.197 69.9743C195.689 69.6783 200.889 70.6472 205.265 72.7717C213.308 76.686 218.572 84.4335 217.617 95.1053Z" fill="#FAB68F"/>
<path id="Vector_38" d="M205.248 72.7717C205.088 74.5759 204.625 76.3401 203.877 77.9896C196.531 94.6402 178.954 91.8604 174.596 90.8704C174.158 88.4541 173.954 86.0012 173.987 83.5457C174.283 76.0307 179.123 70.5803 190.193 69.9708C195.672 69.6783 200.872 70.6472 205.248 72.7717Z" fill="#E69A73"/>
<path id="Vector_39" d="M199.713 68.7306C199.702 68.7186 199.687 68.7111 199.67 68.7094C192.367 60.9584 168.413 62.9631 166.666 75.2344C166.623 75.5304 166.602 75.8228 166.581 76.1399C165.908 89.211 175.17 88.8763 187.59 87.7171C200.009 86.558 204.282 77.7817 204.282 77.7817C204.282 77.7817 205.1 88.5592 207.101 91.5222C207.958 92.7382 208.908 93.8855 209.944 94.9538C212.005 97.1664 214.193 99.1429 214.193 99.1429L213.795 103.755L213.71 104.784C210.539 112.07 201.312 114.215 201.312 114.215C201.312 114.215 197.165 110.889 193.04 109.078C188.914 107.267 185.927 107.732 185.927 107.732C185.927 107.732 183.756 107.415 179.821 109.226C175.886 111.037 174.557 115.036 174.35 115.519C173.647 117.212 173.132 118.977 172.814 120.782C171.295 130.193 178.803 134.023 196.345 132.885C198.344 132.767 200.323 132.412 202.239 131.828C204.7 131.058 206.983 129.805 208.954 128.142C216.761 121.469 216.677 110.209 216.677 110.209C224.804 101.789 225.266 86.2339 225.266 86.2339C216.951 72.6237 200.724 68.942 199.713 68.7306ZM179.465 115.839C184.45 114.849 185.927 111.354 185.927 111.354C185.927 111.354 186.515 114.24 192.871 114.849C194.985 115.04 196.394 115.818 197.165 116.787C198.927 118.996 197.292 122.238 193.04 122.132C186.917 121.966 187.903 117.985 187.903 117.985L185.254 118.133C185.254 118.133 185.254 122.132 181.801 121.304C178.348 120.476 179.465 115.839 179.465 115.839Z" fill="#B3B0AE"/>
<path id="Vector_40" d="M206.153 126.765C204.978 128.546 203.67 130.235 202.239 131.817C200.323 132.401 198.344 132.756 196.345 132.874C178.81 134.012 171.295 130.182 172.813 120.772C173.064 122.583 173.677 125.613 174.927 126.856C176.069 127.964 177.59 128.594 179.18 128.618C179.074 128.6 178.827 128.304 178.694 126.24C178.694 126.24 180.103 128.618 184.482 129.671C183.768 128.199 183.437 126.571 183.517 124.936C185.323 127.166 187.68 128.886 190.355 129.925L190.084 127.293C191.247 128.776 192.892 129.805 194.734 130.2C197.743 130.852 201.302 127.632 201.64 127.336C201.619 127.589 201.428 128.6 200.354 129.841C200.354 129.837 202.387 129.562 206.153 126.765Z" fill="#999796"/>
<path id="Vector_41" d="M200.051 118.535C199.215 117.762 198.234 117.163 197.165 116.773C196.408 115.804 194.999 115.011 192.871 114.835C186.529 114.226 185.927 111.34 185.927 111.34C185.927 111.34 184.45 114.835 179.465 115.825C179.465 115.825 178.831 116.178 176.728 115.089C176.728 115.089 178.222 115.173 180.138 113.595L179.715 114.3C179.715 114.3 184.179 112.806 185.233 109.501L185.585 110.428L185.796 108.803C185.796 108.803 187.734 112.362 191.941 112.531C191.444 112.7 190.928 112.806 190.405 112.848C190.405 112.848 193.332 113.458 196.394 114.384C199.455 115.311 200.051 118.535 200.051 118.535Z" fill="#999796"/>
<path id="Vector_42" d="M225.266 86.2233C225.266 86.2233 224.804 101.778 216.677 110.199C216.677 110.199 216.761 121.473 208.954 128.132C210.634 125.4 211.797 122.382 212.385 119.229C210.972 120.919 209.295 122.369 207.418 123.523C207.731 123.27 208.721 122.364 210.617 119.754C212.995 116.512 213.957 110.805 213.957 110.805L212.547 111.777C213.664 109.166 213.876 106.14 213.791 103.737C213.762 102.309 213.616 100.885 213.354 99.4811C212.063 98.0867 210.921 96.5625 209.944 94.9327C206.576 89.4188 206.153 84.4934 206.153 84.4934C208.869 89.7571 213.773 93.6079 213.773 93.6079C208.954 87.6502 207.291 78.8739 207.291 78.8739C211.247 88.0096 217.12 91.5856 217.12 91.5856C213.95 87.2943 212.188 81.5903 212.188 81.5903C214.904 84.4723 219.009 88.4288 219.513 88.915C219.428 88.6402 218.628 86.7236 215.26 81.3366C211.684 75.6537 200.4 69.1287 199.706 68.7271C200.724 68.942 216.951 72.6237 225.266 86.2233Z" fill="#999796"/>
<path id="Vector_43" d="M204.282 77.7817C204.282 77.7817 199.987 86.558 187.59 87.7171C175.192 88.8762 165.908 89.2109 166.581 76.1399C166.602 75.8228 166.623 75.5303 166.666 75.2344C167.723 77.9296 169.593 81.3824 172.475 82.9854C177.464 85.7829 188.072 81.9285 190.704 74.4804C190.704 74.4804 190.352 81.3225 185.19 84.2045C185.19 84.2045 195.545 82.8163 198.578 73.5961C198.578 73.5961 199.107 79.1311 194.474 82.8163C196.917 82.0243 199.133 80.6539 200.932 78.8216C202.732 76.9893 204.063 74.7495 204.811 72.2925C204.811 72.2925 205.019 73.9731 204.282 77.7817Z" fill="#999796"/>
<path id="Vector_44" d="M214.742 103.078C214.929 98.1986 220.059 94.9044 224.445 97.0536L224.628 97.1452C230.744 100.288 224.308 115.064 213.724 111.756L214.742 103.078Z" fill="#FAB68F"/>
<path id="Vector_45" d="M218.956 101.292C218.653 102.363 218.479 103.467 218.438 104.579C218.378 106.365 216.359 107.521 216.359 107.521C216.359 107.521 217.226 110.114 221.954 106.538C226.682 102.962 225.241 99.844 222.307 99.4917C219.372 99.1393 218.956 101.292 218.956 101.292Z" fill="#E99C77"/>
<path id="Vector_46" d="M222.3 99.5023C222.3 99.5023 219.59 98.7976 217.688 102.388C217.688 102.388 218.84 103.367 217.804 105.27C217.25 106.306 216.634 107.307 215.958 108.268C215.958 108.268 218.967 106.383 219.361 104.463C219.696 102.811 219.009 102.328 219.009 102.328C219.009 102.328 220.052 99.6749 222.3 99.5023Z" fill="#5D2A1C"/>
<path id="Vector_47" d="M177.002 94.1752C177.002 94.1752 178.306 91.0501 184.049 90.6519L185.106 93.6502C185.106 93.6502 179.479 93.2662 177.002 94.1752Z" fill="#B3B0AE"/>
<path id="Vector_48" d="M181.561 96.6625C179.486 96.9726 179.219 102.391 181.952 102.391C184.686 102.391 184.165 96.2609 181.561 96.6625Z" fill="#5D2A1C"/>
<path id="Vector_49" d="M182.083 97.3672C181.044 97.5222 180.91 100.232 182.277 100.232C183.644 100.232 183.383 97.184 182.083 97.3672Z" fill="white"/>
<path id="Vector_50" d="M189.894 93.7841L190.951 90.4018C190.951 90.4018 197.592 88.8375 202.408 93.6572C202.394 93.6572 195.622 92.0824 189.894 93.7841Z" fill="#B3B0AE"/>
<path id="Vector_51" d="M192.367 95.4787C190.545 95.7395 190.024 101.468 193.279 101.599C196.535 101.729 196.013 94.9573 192.367 95.4787Z" fill="#5D2A1C"/>
<path id="Vector_52" d="M192.994 96.3278C192.053 96.4617 191.786 99.4177 193.463 99.4987C195.14 99.5797 194.872 96.0601 192.994 96.3278Z" fill="white"/>
<path id="Vector_53" d="M186.117 96.7823C186.117 96.7823 185.987 102.511 184.035 104.593C182.083 106.675 188.463 106.806 188.463 106.806C188.463 106.806 185.86 105.636 185.469 104.984C185.078 104.333 187.16 102.652 186.117 96.7823Z" fill="#5D2A1C"/>
</g>
</g>
</g>
<g id="rumput">
<mask id="mask0_26_62" style="mask-type:alpha" maskUnits="userSpaceOnUse" x="9" y="0" width="355" height="586">
<path id="Rectangle 6" d="M9.18243 177.194C9.18243 79.3322 88.5148 0 186.376 0V0C284.475 0 364 79.5249 364 177.624V585.921H9.18243V177.194Z" fill="url(#paint1_diamond_26_62)"/>
</mask>
<g mask="url(#mask0_26_62)">
<g id="rumput-2">
<path id="Vector_54" d="M380.967 541.222C372.22 547.132 366.154 560.819 363.484 576.442C364.073 561.923 365.913 547.527 371.069 535.992C371.132 535.813 370.985 535.548 370.885 535.677C364.267 545.21 360.972 558.989 359.747 573.615C359.616 569.312 359.085 564.972 357.776 561.629C357.665 561.314 357.25 561.278 357.418 561.751C358.317 564.541 358.144 568.881 358.107 571.966C358.057 574.85 357.86 577.726 357.518 580.573C356.542 572.404 356.496 564.079 357.382 555.891C358.501 546.286 360.661 536.962 363.789 528.224C363.889 527.958 363.584 527.643 363.458 527.815C357.455 535.835 353.082 547.075 350.622 559.606C350.364 560.058 350.144 560.453 350.096 560.582C349.424 562.095 348.761 563.695 348.162 565.402C347.952 565.904 347.794 566.493 347.636 567.002C347.625 561.869 347.883 556.741 348.409 551.658C349.999 545.791 352.056 540.179 354.543 534.924C354.706 534.615 354.422 533.991 354.275 534.206C352.709 536.506 351.233 538.917 349.855 541.43C351.836 529.702 355 518.325 359.421 509.036C359.547 508.792 359.253 508.455 359.153 508.663C354.719 517.384 351.213 526.918 348.74 536.982C347.884 540.549 347.165 544.174 346.585 547.842C345.388 550.509 344.298 553.263 343.321 556.092C342.815 552.453 342.148 548.86 341.324 545.332C341.129 544.5 340.898 543.689 340.677 542.85C340.908 541.128 341.129 539.371 341.35 537.685C343.605 521.904 346.643 506.877 350.527 494.13C350.611 493.786 350.359 493.327 350.27 493.52C344.661 503.62 341.008 518.892 338.496 535.985C336.509 530.72 333.939 526.23 330.743 523.934C329.087 511.74 326.601 499.761 322.8 492.107C322.706 491.921 322.432 492.028 322.569 492.466C325.129 501.439 326.832 511.783 328.02 522.593C327.726 522.514 327.494 522.363 327.174 522.313C326.953 522.313 327.016 522.722 327.174 522.844C327.542 523.217 327.846 523.683 328.225 524.099C328.924 530.806 329.413 537.692 329.765 544.557C329.938 548.201 330.023 551.859 330.149 555.518C329.227 558.314 328.44 561.189 327.794 564.125C327.515 562.533 327.268 560.926 326.927 559.398C327.46 555.48 328.4 551.685 329.718 548.129C329.844 547.835 329.513 547.491 329.402 547.72C328.113 550.331 327.005 553.1 326.091 555.991C325.739 554.399 325.408 552.778 325.04 551.278C324.157 547.763 323.174 544.392 322.133 541.143C322.895 534.457 323.984 527.847 325.392 521.359C325.481 521.015 325.113 520.735 325.003 521.015C323.102 525.797 321.543 530.817 320.346 536.007C317.192 527.499 313.513 520.678 309.402 517.27C309.208 517.105 309.223 517.758 309.355 517.988C312.861 524.946 316.072 533.833 318.706 543.94C318.312 546.092 317.959 548.309 317.655 550.504C316.733 548.036 315.71 545.641 314.59 543.33C313.903 541.926 313.142 540.591 312.314 539.335C312.899 538.082 313.568 536.905 314.312 535.82C314.432 535.619 314.122 535.304 314.001 535.462C313.245 536.43 312.519 537.535 311.82 538.596C310.703 536.86 309.32 535.481 307.767 534.558C307.201 534.259 306.606 534.076 306.001 534.013C306.001 533.776 306.001 533.553 306.001 533.295C306.434 527.875 307.186 522.511 308.251 517.256C308.314 516.955 307.972 516.704 307.883 516.984C306.028 522.741 304.477 528.671 303.242 534.73C302.191 535.49 301.234 536.767 300.177 537.75C299.936 537.987 300.214 538.912 300.377 538.933C301.022 538.979 301.658 539.158 302.264 539.464C302.227 539.636 302.175 539.801 302.138 539.995C302.017 540.712 301.907 541.516 301.786 542.305C299.62 545.348 297.76 548.771 296.256 552.483C296.062 551.45 295.867 550.504 295.731 549.65C297.056 546.539 298.644 543.65 300.461 541.042C300.582 540.849 300.335 540.547 300.24 540.641C298.348 542.144 296.65 544.063 295.215 546.322C293.491 534.127 289.139 520.606 282.511 515.032C282.411 514.946 282.217 515.075 282.327 515.298C287.462 525.928 291.184 538.474 292.02 552.39C291.13 554.424 290.325 556.525 289.607 558.681C287.158 566.005 285.376 575.294 286.506 583.952H286.422C284.682 572.181 286.332 558.789 290.101 548.983C290.185 548.732 289.891 548.409 289.77 548.588C285.397 556.013 282.758 566.521 282.49 577.324C281.265 572.453 279.194 568.157 276.277 566.729C277.713 561.606 279.814 556.877 282.479 552.77C282.611 552.594 282.753 552.433 282.905 552.29C282.929 552.237 282.947 552.178 282.958 552.118C282.941 552.06 282.933 552 282.931 551.938C282.931 551.694 282.7 551.522 282.574 551.694C282.343 552.053 282.148 552.412 281.928 552.756C281.402 553.409 280.666 554.191 280.545 554.377C279.743 555.518 278.986 556.716 278.274 557.964C276.621 560.841 275.131 563.887 273.817 567.074C272.529 570.144 271 573.723 270.033 577.518C271.086 570.1 272.854 562.906 275.289 556.12C278.038 548.287 281.539 541.128 285.754 535.691C285.938 535.447 285.596 535.024 285.433 535.175C277.176 542.95 268.845 554.191 265.722 570.445C266.369 559.546 267.926 548.783 270.364 538.367C272.992 526.89 276.577 515.943 281.123 506.547C281.26 506.317 280.966 506.001 280.839 506.138C270.416 518.153 265.77 539.242 263.015 559.936C262.658 562.476 262.353 565.036 262.032 567.612C261.912 568.652 261.791 569.713 261.68 570.761C261.817 567.143 261.817 563.518 261.68 559.9C261.42 549.951 260.294 540.078 258.327 530.491C256.429 521.338 253.475 512.192 248.781 506.604C248.697 506.482 248.377 506.604 248.524 506.877C253.486 517.364 255.704 530.691 256.797 543.926C257.654 554.291 257.801 564.728 257.848 575.194C257.039 565.775 254.511 556.708 251.341 549.062C246.915 538.259 240.561 528.941 233.207 525.498C232.976 525.39 233.013 525.857 233.133 526.036C241.123 535.447 247.883 550.317 250.532 566.808C248.641 560.2 245.953 554.071 242.579 548.674C242.616 548.674 242.642 548.581 242.716 548.545C242.789 548.509 242.642 547.936 242.505 548.022C242.426 548.107 242.34 548.179 242.248 548.237C241.293 546.712 240.266 545.274 239.173 543.933C236.823 541.064 234.08 538.797 231.257 538.022C229.86 537.643 228.423 537.621 227.02 537.958C226.046 538.262 225.11 538.757 224.24 539.428C224.681 537.994 225.123 536.559 225.612 535.182C225.696 534.916 225.401 534.586 225.291 534.766C216.166 546.96 210.763 566.622 210.421 587.008C208.96 575.029 209.522 562.913 211.278 551.192C213.202 538.582 216.534 526.194 221.265 516.266C221.375 516.022 221.07 515.678 220.97 515.879C216.619 524.485 213.176 533.883 210.742 543.797C208.36 553.495 207.062 563.745 206.379 574.254C206.13 566.694 205.136 559.215 203.425 552.017C200.996 541.544 196.366 530.347 189.496 529.364C189.275 529.364 189.333 529.752 189.496 529.874C195.22 535.691 197.964 547.419 198.873 558.444C199.667 568.171 199.031 578.959 196.113 587.345C195.027 582.102 194.427 576.695 194.326 571.248C194.251 565.269 194.952 559.32 196.397 553.674C196.481 553.351 196.15 552.957 196.029 553.229C193.401 558.193 191.493 564.226 190.1 570.545C189.206 574.274 188.675 578.147 188.523 582.065C187.95 572.532 188.944 562.598 192.003 554.75C192.113 554.456 191.798 554.112 191.672 554.363C189.312 559.326 187.573 564.79 186.526 570.531C185.475 575.889 184.875 582.51 186 588.077C181.527 568.989 183.803 546.903 187.814 528.496C187.898 528.152 187.54 527.872 187.419 528.152C183.856 536.997 181.574 547.247 180.061 557.806C178.755 566.855 178.135 576.064 178.21 585.286C177.924 580.143 177.321 575.041 176.408 570.036C176.003 567.684 175.458 565.381 174.778 563.15C174.962 562.641 175.12 562.174 175.304 561.715C175.414 561.471 175.109 561.184 175.015 561.371C174.845 561.653 174.692 561.953 174.557 562.268C173.815 559.974 172.878 557.807 171.766 555.812C171.677 555.654 171.351 555.625 171.482 555.977C172.422 558.627 173.127 561.42 173.585 564.298C172.127 567.699 170.944 571.307 170.058 575.057C169.602 577.029 169.251 579.042 169.007 581.083C168.896 581.083 168.802 581.083 168.691 581.083C168.728 567.038 170.794 551.859 176.923 542.757C177.059 542.556 176.765 542.262 176.618 542.412C173.403 546.597 170.665 551.416 168.497 556.708C168.591 556.436 168.728 556.178 168.812 555.919C168.817 555.886 168.817 555.852 168.812 555.819C168.618 552.082 168.544 548.416 168.591 544.758C169.75 542.734 171.102 540.932 172.612 539.4C172.723 539.27 172.56 538.79 172.413 538.876C171.087 539.799 169.829 540.892 168.655 542.14C168.655 541.523 168.654 540.913 168.691 540.303C169.107 534.934 169.86 529.623 170.941 524.429C170.988 524.106 170.657 523.848 170.573 524.135C168.958 529.151 167.578 534.302 166.442 539.557C166.331 540.067 166.226 540.619 166.116 541.15C165.721 543.029 165.254 544.858 164.912 546.781C162.554 550.315 160.579 554.29 159.046 558.588C158.883 557.748 158.699 556.988 158.578 556.285C159.883 553.211 161.442 550.352 163.225 547.763C163.346 547.577 163.114 547.29 163.004 547.362C161.148 548.844 159.487 550.74 158.089 552.971C157.926 551.996 157.758 550.991 157.564 549.973C158.637 544.22 160.31 538.708 162.531 533.604C162.604 533.439 162.436 533.188 162.347 533.295C160.002 536.76 158.042 540.675 156.528 544.916C155.605 540.908 154.372 537.046 152.849 533.396C153.595 530.821 154.378 528.274 155.251 525.821C155.325 525.555 155.03 525.233 154.92 525.398C153.708 527.002 152.579 528.718 151.54 530.534C149.988 527.199 147.937 524.348 145.522 522.17C145.437 522.098 145.227 522.241 145.338 522.435C147.052 526.046 148.564 529.83 149.858 533.754C148.018 537.391 146.443 541.264 145.154 545.317C143.167 547.403 141.288 549.673 139.529 552.11C139.834 548.753 140.218 545.375 140.717 542.068C142.641 529.257 146.037 516.668 150.836 506.575C150.972 506.324 150.667 505.98 150.568 506.202C146.131 514.928 142.622 524.468 140.144 534.536C138.41 541.829 137.166 549.323 136.428 556.924C136.06 557.591 135.719 558.258 135.34 558.939C134.926 554.575 134.275 550.259 133.39 546.028C133.447 545.735 133.517 545.447 133.6 545.167C136.186 533.826 139.713 523.081 144.197 513.827C144.307 513.598 144.013 513.268 143.882 513.404C138.378 519.767 134.531 528.776 131.713 538.883C129.054 529.558 124.707 520.714 118.573 519.853C118.352 519.853 118.425 520.254 118.573 520.384C124.354 526.294 127.188 538.202 128.092 549.392C128.218 550.898 128.239 552.455 128.302 554.026C127.545 558.121 126.883 562.26 126.341 566.406C125.989 568.924 125.69 571.428 125.385 573.974C125.253 575 125.153 576.04 125.043 577.087C125.153 573.501 125.164 569.914 125.069 566.385C124.922 561.765 124.544 557.16 124.086 552.591C124.411 549.856 124.912 547.165 125.584 544.55C125.642 544.227 125.337 543.833 125.19 544.084C124.554 545.316 123.965 546.592 123.424 547.907C122.935 544.378 122.473 540.841 121.758 537.441C120.523 531.509 118.83 525.598 116.502 520.706C116.628 520.118 116.749 519.53 116.848 518.971C116.933 518.612 116.565 518.332 116.454 518.612C116.318 519.006 116.186 519.379 116.039 519.752C114.995 517.607 113.759 515.648 112.36 513.921C112.254 513.806 111.944 513.921 112.092 514.193C113.287 516.733 114.319 519.409 115.177 522.191C112.662 529.549 110.781 537.281 109.574 545.231C107.787 542.291 105.757 539.644 103.524 537.341C104.178 535.952 104.919 534.642 105.737 533.424C105.873 533.224 105.568 532.908 105.448 533.073C104.553 534.23 103.702 535.449 102.898 536.724C101.205 535.071 99.3599 533.728 97.4107 532.729C97.4423 532.133 97.4107 531.538 97.4686 530.935C97.8803 525.476 98.6383 520.076 99.734 514.796C99.7708 514.494 99.4397 514.251 99.3556 514.523C96.8866 521.92 94.9502 529.627 93.5736 537.535C93.4527 538.288 93.3319 539.055 93.2215 539.844C92.0458 541.485 90.9716 543.256 90.0099 545.138C89.0768 545.609 88.1718 546.177 87.3029 546.838C88.6023 543.864 90.13 541.086 91.8601 538.553C91.9862 538.374 91.7392 538.073 91.6288 538.166C89.7478 539.674 88.0623 541.596 86.6406 543.854C84.8902 531.66 80.5275 518.153 73.9099 512.558C73.8836 512.538 73.8533 512.53 73.8235 512.536C73.7938 512.542 73.7663 512.561 73.7454 512.591C73.7244 512.62 73.7112 512.658 73.7076 512.699C73.7041 512.74 73.7105 512.781 73.7259 512.816C78.8508 523.447 82.588 535.992 83.4185 549.937C82.5198 551.959 81.7106 554.052 80.9953 556.206C78.5564 563.53 76.7903 572.819 77.8941 581.47H77.8205C76.198 569.579 77.4911 557.289 81.4999 546.501C81.5946 546.25 81.2792 545.927 81.1688 546.114C76.7798 553.531 74.1727 564.047 73.8888 574.849C72.6641 569.986 70.5931 565.668 67.6654 564.262C69.104 559.137 71.2048 554.407 73.8678 550.296C74.0002 550.118 74.1425 549.955 74.2936 549.808C74.2936 549.765 74.3566 549.715 74.3461 549.636C74.3373 549.579 74.3373 549.52 74.3461 549.464C74.3461 549.212 74.1149 549.04 73.9782 549.227C73.7574 549.564 73.5419 549.944 73.3317 550.274C72.806 550.927 72.0912 551.709 71.9598 551.888C71.1766 553.021 70.4144 554.226 69.6785 555.475C68.035 558.361 66.5488 561.408 65.2317 564.592C63.7362 567.909 62.4642 571.405 61.4314 575.036C62.4871 567.619 64.2544 560.425 66.6877 553.638C69.4315 545.827 72.9374 538.639 77.1477 533.202C77.3317 532.958 77.0006 532.542 76.8429 532.678C68.5642 540.483 60.2435 551.723 57.116 567.956C57.7546 557.059 59.3084 546.298 61.7468 535.885C64.375 524.408 67.986 513.483 72.5327 504.072C72.6536 503.821 72.333 503.512 72.2226 503.649C61.8099 515.664 57.1791 536.76 54.388 557.483C54.0569 560.037 53.7467 562.612 53.4419 565.158C53.3052 566.206 53.1843 567.26 53.0897 568.329C53.1948 564.692 53.1948 561.091 53.0897 557.433C52.8155 547.483 51.6846 537.612 49.7204 528.023C47.8071 518.87 44.8689 509.717 40.2013 504.144C40.0804 504.015 39.786 504.101 39.9069 504.402C44.8794 514.918 47.087 528.224 48.1908 541.458C49.0476 551.816 49.1843 562.26 49.2421 572.726C48.3569 563.519 46.1491 554.642 42.7453 546.601C38.351 535.906 32.0172 526.581 24.6532 523.124C24.4219 523.023 24.4377 523.49 24.5796 523.662C32.5691 533.08 39.3235 547.943 41.9937 564.441C40.0853 557.848 37.3949 551.729 34.0304 546.329C34.0777 546.271 34.104 546.228 34.1408 546.178C34.2617 546.063 34.104 545.568 33.9778 545.647C33.8517 545.726 33.7939 545.812 33.7098 545.87C32.7512 544.349 31.7148 542.923 30.6085 541.602C28.2695 538.733 25.5257 536.444 22.7241 535.67C21.3188 535.282 19.8725 535.26 18.4613 535.605C17.489 535.909 16.5553 536.41 15.6912 537.09C16.1432 535.655 16.5742 534.221 17.0736 532.829C17.1629 532.564 16.8791 532.241 16.7582 532.406C7.62805 544.6 2.22459 564.262 1.89344 584.626C0.421677 572.676 0.973572 560.56 2.7502 548.832C4.66349 536.243 8.00648 523.841 12.7372 513.921C12.8475 513.67 12.5637 513.325 12.4533 513.548C8.0994 522.138 4.65254 531.522 2.21407 541.422C-0.161774 551.128 -1.46534 561.378 -2.15917 571.88C-2.38364 564.317 -3.37422 556.834 -5.10269 549.643C-7.52584 539.192 -12.1566 527.98 -19.0213 527.004C-19.2421 527.004 -19.179 527.385 -19.0581 527.528C-13.334 533.324 -10.564 545.052 -9.65989 556.084C-8.8767 565.811 -9.5022 576.6 -12.43 584.985C-13.5103 579.739 -14.1071 574.329 -14.2066 568.881C-14.2863 562.903 -13.5886 556.953 -12.1461 551.307C-12.0725 551.006 -12.3932 550.59 -12.5141 550.869C-15.1637 556.167 -17.1677 562.014 -18.4484 568.185C-19.347 571.923 -19.8773 575.806 -20.0253 579.734C-20.635 570.194 -19.6468 560.238 -16.5719 552.39C-16.4615 552.096 -16.7769 551.752 -16.8873 552.003C-19.247 556.972 -20.9876 562.44 -22.0385 568.185C-23.0897 573.529 -23.6889 580.165 -22.5641 585.709C-27.0319 566.622 -24.7665 544.536 -20.7612 526.136C-20.6876 525.785 -21.045 525.512 -21.1554 525.799C-24.7454 534.637 -27.0109 544.88 -28.5142 555.446C-29.8314 564.491 -30.455 573.698 -30.3749 582.919C-30.6567 577.776 -31.2546 572.675 -32.1621 567.669C-32.5771 565.325 -33.1182 563.026 -33.781 560.79C-33.6392 560.296 -33.4723 559.817 -33.2817 559.355C-33.1923 559.111 -33.5024 558.81 -33.6128 558.982C-33.7442 559.276 -33.9177 559.599 -34.0648 559.893C-34.7899 557.591 -35.7241 555.422 -36.8454 553.437C-36.9453 553.28 -37.2607 553.237 -37.1398 553.581C-36.195 556.233 -35.489 559.032 -35.0373 561.916C-36.5105 565.312 -37.7023 568.92 -38.5905 572.676C-39.3345 575.658 -39.7956 578.758 -39.9624 581.9C-40.2462 566.995 -38.3435 550.152 -31.7311 540.354C-31.5944 540.146 -31.9098 539.844 -32.0201 539.995C-35.2319 544.192 -37.9593 549.029 -40.1096 554.341C-39.9857 554.072 -39.8751 553.791 -39.7784 553.502V553.394C-40.036 548.115 -40.2462 543.144 -39.8783 537.879C-39.4632 532.516 -38.7249 527.209 -37.6707 522.012C-37.6234 521.689 -37.9282 521.467 -38.0281 521.718C-39.6518 526.728 -41.0302 531.881 -42.1543 537.14C-42.3015 537.8 -42.4381 538.503 -42.5958 539.17C-42.9375 540.913 -43.3685 542.599 -43.6471 544.371C-43.7942 545.088 -43.9046 545.884 -44.015 546.652C-46.1483 549.657 -47.9811 553.033 -49.4658 556.694C-49.6497 555.697 -49.8337 554.757 -50.0177 553.954C-48.7124 550.87 -47.1496 548.003 -45.3606 545.411C-45.2239 545.26 -45.4815 544.944 -45.5919 545.031C-47.4431 546.517 -49.1033 548.407 -50.5065 550.626C-52.2201 538.596 -56.4987 525.326 -63.027 519.831C-63.1164 519.745 -63.3214 519.874 -63.211 520.097C-58.1649 530.555 -54.475 542.9 -53.6708 556.615C-54.5589 558.605 -55.3524 560.67 -56.0467 562.798C-58.4698 570.015 -60.1991 579.153 -59.0953 587.675H-59.1689C-60.8982 576.09 -59.2688 562.884 -55.5578 553.244C-55.458 553 -55.7365 552.684 -55.8627 552.878C-60.1886 560.166 -62.7484 570.495 -63.027 581.14C-64.2307 576.356 -66.2754 572.123 -69.1664 570.739C-67.7421 565.69 -65.6684 561.028 -63.0428 556.974C-62.9061 556.823 -62.7852 556.651 -62.638 556.5C-62.6012 556.457 -62.5645 556.407 -62.575 556.335C-62.5893 556.28 -62.5981 556.222 -62.6012 556.163C-62.6012 555.891 -62.8325 555.74 -62.9534 555.927C-63.1637 556.271 -63.3739 556.644 -63.5789 556.967C-64.1308 557.605 -64.8194 558.401 -64.9403 558.559C-65.7358 559.682 -66.4884 560.86 -67.1952 562.088C-68.8065 564.929 -70.2645 567.926 -71.558 571.055C-72.8195 574.082 -74.3175 577.589 -75.2742 581.334C-74.2439 574.036 -72.5008 566.96 -70.0915 560.295C-67.4055 552.605 -63.9521 545.525 -59.7839 540.21C-59.6157 539.966 -59.9573 539.543 -60.1045 539.694C-68.2518 547.369 -76.4463 558.43 -79.5528 574.455C-78.914 563.717 -77.3798 553.113 -74.9798 542.85C-72.3517 531.552 -68.8405 520.785 -64.3568 511.532C-64.2465 511.295 -64.5671 510.98 -64.6775 511.094C-74.8957 522.93 -79.4792 543.711 -82.223 564.111C-82.5541 566.622 -82.859 569.132 -83.1796 571.664C-83.2742 572.704 -83.4004 573.752 -83.5318 574.77C-83.3986 571.227 -83.3864 567.659 -83.495 564.068C-83.7563 554.285 -84.8679 544.579 -86.8065 535.153C-88.6777 526.144 -91.5844 517.127 -96.1784 511.632C-96.2993 511.496 -96.5937 511.589 -96.457 511.898C-91.5739 522.22 -89.4031 535.347 -88.3098 548.373C-87.453 558.581 -87.3216 568.874 -87.2585 579.153C-88.0627 569.885 -90.5542 560.962 -93.6396 553.437C-98.0286 542.785 -104.273 533.611 -111.511 530.211C-111.732 530.132 -111.721 530.584 -111.585 530.749C-103.732 540.031 -97.0773 554.664 -94.4544 570.883C-97.051 561.973 -100.988 554.033 -105.629 548.409C-107.958 545.597 -110.654 543.338 -113.445 542.584C-114.818 542.195 -116.234 542.171 -117.614 542.513C-119.264 542.929 -120.599 544.249 -122.144 545.196C-122.439 545.396 -122.118 546.028 -121.913 546.028C-113.619 545.949 -106.67 557.684 -102.943 570.273C-107.101 561.938 -113.345 555.632 -119.558 559.513C-119.853 559.685 -119.522 560.302 -119.317 560.302C-110.749 560.001 -102.943 573.436 -101.046 587.825L-106.181 587.653C-106.292 587.653 -106.239 587.869 -106.144 587.876C-99.8368 588.593 -93.5608 588.93 -87.2217 589.002C-87.2014 589.016 -87.1789 589.024 -87.156 589.024C-87.1331 589.024 -87.1106 589.016 -87.0903 589.002C-82.018 589.059 -76.9562 589.002 -71.8944 588.83C-71.6736 588.83 -71.4528 588.751 -71.2111 588.729C-71.1722 588.73 -71.1341 588.745 -71.1007 588.772C-67.169 588.665 -63.2478 588.514 -59.3266 588.392C-55.9573 588.256 -52.5723 588.141 -49.203 587.99C-49.1982 588.057 -49.1982 588.125 -49.203 588.191C-49.1613 588.202 -49.1185 588.202 -49.0768 588.191C-49.0442 588.161 -49.006 588.143 -48.9664 588.141C-48.9722 588.103 -48.9722 588.064 -48.9664 588.026C-40.1727 587.689 -31.3841 587.309 -22.6009 587.115C-22.6009 587.115 -22.6009 587.115 -22.5746 587.151C-22.3092 587.084 -22.0403 587.045 -21.7704 587.036C-21.7242 587.038 -21.6798 587.061 -21.6442 587.101C-18.2276 587.024 -14.8146 586.974 -11.405 586.95C-4.44566 586.95 2.49265 587.194 9.42569 587.496C9.91454 587.496 10.4086 587.495 10.8974 587.56C10.8942 587.589 10.8942 587.618 10.8974 587.646C10.939 587.644 10.98 587.632 11.0184 587.61C11.3914 587.443 11.7821 587.36 12.1747 587.366C12.2221 587.368 12.2678 587.39 12.3048 587.43C12.3419 587.47 12.3682 587.526 12.3797 587.589C15.5335 587.668 18.6295 587.689 21.7675 587.732V587.883C21.7675 588.177 22.0986 588.55 22.0986 588.177V587.732C25.0999 587.732 28.1118 587.732 31.1132 587.854C31.3602 587.854 31.234 587.316 31.0553 587.316C28.075 587.101 25.0999 587.008 22.1196 586.95C22.3404 577.346 23.6965 567.49 26.5454 559.391C30.8451 564.656 34.1303 573.02 35.2814 581.728C33.5258 581.671 31.8017 581.599 30.0829 581.549C29.962 581.549 29.9988 581.75 30.0829 581.757C36.4746 582.517 42.8715 582.826 49.2894 582.905C49.334 582.922 49.3814 582.922 49.4261 582.905C54.5615 582.962 59.7179 582.905 64.8533 582.725V582.783C65.0845 582.733 65.3053 582.668 65.5524 582.646C65.5923 582.645 65.6313 582.663 65.6627 582.697C69.6575 582.589 73.6365 582.438 77.605 582.295C81.0269 582.18 84.4803 582.037 87.8969 581.893C87.9169 581.957 87.9259 582.025 87.9231 582.094H88.0335C88.0666 582.051 88.109 582.023 88.1544 582.015H88.1807C88.1856 581.975 88.1856 581.934 88.1807 581.893C93.9626 581.671 99.7182 581.484 105.479 581.291C106.375 584.162 107.036 587.159 107.45 590.228C105.758 590.185 104.055 590.135 102.341 590.063C102.231 590.063 102.268 590.279 102.341 590.279C108.649 590.996 114.956 591.34 121.264 591.412C121.308 591.434 121.356 591.434 121.4 591.412C126.462 591.477 131.545 591.412 136.596 591.247V591.29C136.812 591.247 137.059 591.182 137.269 591.161C137.29 591.155 137.312 591.156 137.333 591.163C137.354 591.171 137.374 591.185 137.39 591.204C141.311 591.096 145.243 590.953 149.138 590.824C152.533 590.695 155.913 590.551 159.298 590.429C159.303 590.486 159.303 590.544 159.298 590.601H159.409C159.443 590.571 159.48 590.546 159.519 590.53V590.422C168.308 590.035 177.091 589.662 185.9 589.461V589.504C186.166 589.423 186.438 589.384 186.71 589.389C186.754 589.39 186.796 589.41 186.831 589.447C190.253 589.368 193.664 589.303 197.086 589.303C204.035 589.303 210.968 589.518 217.937 589.848C218.405 589.848 218.884 589.848 219.372 589.884C219.366 589.917 219.366 589.952 219.372 589.985C219.418 589.996 219.464 589.996 219.509 589.985C219.873 589.799 220.261 589.716 220.65 589.741C220.699 589.738 220.748 589.759 220.788 589.799C220.829 589.84 220.857 589.897 220.87 589.963C223.993 590.049 227.131 590.063 230.269 590.092C230.269 590.142 230.269 590.2 230.269 590.25C230.269 590.544 230.589 590.924 230.616 590.551V590.092C233.617 590.092 236.618 590.142 239.63 590.228C239.888 590.228 239.741 589.69 239.546 589.676C236.571 589.475 233.591 589.375 230.61 589.332C230.863 579.662 232.277 569.807 235.068 561.73C239.394 566.995 242.689 575.359 243.804 584.06C242.074 583.995 240.35 583.945 238.61 583.895C238.484 583.895 238.521 584.088 238.61 584.095C244.997 584.849 251.431 585.164 257.822 585.243C257.839 585.257 257.858 585.264 257.877 585.264C257.897 585.264 257.916 585.257 257.933 585.243C263.089 585.315 268.251 585.243 273.386 585.078C273.617 585.078 273.838 584.985 274.08 584.978C274.102 584.973 274.125 584.975 274.147 584.984C274.169 584.993 274.189 585.008 274.206 585.028C278.185 584.884 282.169 584.763 286.138 584.619C289.57 584.511 293.013 584.361 296.44 584.225C296.429 584.291 296.429 584.359 296.44 584.425H296.551C296.56 584.401 296.575 584.38 296.592 584.365C296.61 584.349 296.63 584.341 296.65 584.339H296.687C296.674 584.308 296.665 584.274 296.661 584.239C303.179 583.973 309.707 583.758 316.204 583.557C317.193 587.998 317.923 592.538 318.385 597.136H344.43C344.625 592.476 345.036 587.838 345.66 583.249C349.124 583.364 352.567 583.486 356.046 583.636C356.572 583.679 357.04 583.679 357.518 583.687C357.518 583.687 357.518 583.758 357.518 583.78C357.518 583.801 357.602 583.78 357.639 583.78C358.013 583.604 358.405 583.514 358.801 583.514C358.853 583.508 358.904 583.529 358.945 583.573C358.987 583.617 359.014 583.681 359.022 583.751C362.212 583.83 365.371 583.873 368.541 583.887V584.052C368.541 584.339 368.888 584.77 368.898 584.339V583.902C371.947 583.902 375.011 583.902 378.049 584.024C378.317 584.024 378.175 583.479 377.991 583.464C374.964 583.263 371.936 583.163 368.924 583.113C369.292 566.923 372.809 549.894 381.114 541.76C381.287 541.645 381.093 541.143 380.967 541.222ZM-96.273 587.933C-96.026 587.933 -95.8525 587.933 -95.5845 587.933H-96.273ZM-63.7208 585.975C-63.8216 585.669 -63.9734 585.399 -64.1642 585.187C-64.3549 584.976 -64.5793 584.828 -64.8194 584.755C-65.1041 584.728 -65.3891 584.802 -65.6469 584.969C-65.9047 585.136 -66.1266 585.391 -66.2912 585.709C-66.1761 585.142 -66.151 584.548 -66.2176 583.966C-66.3147 583.455 -66.5133 582.99 -66.7915 582.623C-67.0697 582.256 -67.4168 582.001 -67.7945 581.886C-69.3398 581.241 -71.1059 582.761 -71.4739 585.43C-71.2351 580.651 -70.5171 575.94 -69.3398 571.428C-66.328 574.412 -64.893 580.416 -63.7208 585.975ZM-83.5528 588.127H-78.2965C-80.0626 588.134 -81.813 588.112 -83.5528 588.112V588.127ZM-78.2965 588.127C-76.4095 588.127 -74.6539 588.127 -73.3924 588.084C-75.0219 588.127 -76.6513 588.134 -78.2965 588.155V588.127ZM-44.2831 566.887C-44.2831 566.944 -44.3199 566.987 -44.3199 567.038C-44.3935 566.421 -44.404 565.775 -44.4565 565.122C-44.4197 565.696 -44.3724 566.292 -44.2988 566.866L-44.2831 566.887ZM-44.3672 567.224C-45.5414 571.726 -46.249 576.429 -46.4697 581.197C-46.7957 575.397 -47.4015 569.631 -48.2831 563.939C-48.2095 564.333 -48.199 564.764 -48.1464 565.173C-48.1579 565.04 -48.1755 564.908 -48.199 564.778C-48.2726 564.154 -48.3567 563.544 -48.4303 562.942C-47.6158 557.839 -46.1954 552.951 -44.2253 548.474C-45.061 554.592 -45.3133 561.084 -44.3829 567.203L-44.3672 567.224ZM-55.2004 581.735C-55.2004 581.147 -55.09 580.559 -55.0427 579.992C-55.0795 580.538 -55.1899 581.097 -55.2162 581.714L-55.2004 581.735ZM-48.6195 561.593V561.543C-48.5881 561.363 -48.5477 561.185 -48.4986 561.012C-48.5545 561.194 -48.6002 561.381 -48.6353 561.572L-48.6195 561.593ZM-46.8797 554.42C-47.0163 554.908 -47.1635 555.403 -47.2949 555.905C-47.1951 555.353 -47.0321 554.858 -46.8954 554.37L-46.8797 554.42ZM-53.634 571.026C-53.4868 570.309 -53.3134 569.656 -53.1084 568.953C-53.3186 569.62 -53.5026 570.266 -53.6498 570.976L-53.634 571.026ZM-52.6616 565.711C-54.0469 570.015 -54.988 574.561 -55.458 579.218C-55.2732 573.504 -54.4361 567.865 -52.977 562.504C-52.8876 563.552 -52.7772 564.599 -52.6774 565.66L-52.6616 565.711ZM-54.3173 574.369C-54.4382 575.021 -54.5749 575.645 -54.6748 576.313C-54.5907 575.595 -54.454 574.971 -54.3331 574.318L-54.3173 574.369ZM-53.6813 563.86C-53.4711 563.092 -53.2661 562.318 -53.0453 561.565C-53.051 561.6 -53.051 561.637 -53.0453 561.672C-53.2818 562.346 -53.5026 563.049 -53.6971 563.81L-53.6813 563.86ZM-49.7233 550.468C-49.4658 550.102 -49.245 549.75 -48.9612 549.392C-49.2608 549.686 -49.4815 550.052 -49.7391 550.418L-49.7233 550.468ZM-47.2371 553.021C-46.5117 551.637 -45.7759 550.331 -45.0084 549.119C-45.7916 550.253 -46.5275 551.587 -47.2529 552.971L-47.2371 553.021ZM-49.2555 557.433C-48.7299 556.106 -48.1044 554.843 -47.5157 553.602C-48.1202 554.793 -48.7352 556.056 -49.2713 557.383L-49.2555 557.433ZM-50.1018 553.359C-49.8442 552.821 -49.5762 552.311 -49.3291 551.759C-49.5867 552.311 -49.8547 552.849 -50.0808 553.437C-50.1176 553.337 -50.1176 553.33 -50.1176 553.308L-50.1018 553.359ZM-48.4986 550.009C-47.8468 548.789 -47.2108 547.613 -46.4907 546.501C-47.2266 547.563 -47.8626 548.739 -48.5144 549.958L-48.4986 550.009ZM-51.9888 544.643C-52.2253 543.689 -52.383 542.714 -52.6248 541.774C-52.3988 542.663 -52.2411 543.639 -52.0046 544.593L-51.9888 544.643ZM-53.6077 557.698C-54.3777 559.459 -55.0693 561.282 -55.6787 563.157C-55.0802 561.263 -54.3937 559.423 -53.6235 557.648L-53.6077 557.698ZM-39.174 586.914C-38.2909 586.864 -37.5077 586.843 -36.898 586.821C-37.6707 586.793 -38.4328 586.836 -39.1897 586.836L-39.174 586.914ZM-36.7823 586.821C-36.1621 586.785 -35.668 586.771 -35.5944 586.771C-36.0044 586.735 -36.3986 586.742 -36.7981 586.771L-36.7823 586.821ZM-35.2317 586.764C-36.5008 579.291 -36.3105 571.495 -34.6798 564.154C-33.7232 571.471 -33.8704 579.218 -33.6601 586.699C-34.2015 586.685 -34.7324 586.692 -35.2475 586.714L-35.2317 586.764ZM-12.1934 586.226H-7.77289H-12.1934ZM-7.51533 586.226L-3.83592 586.262C-5.05538 586.197 -6.2801 586.197 -7.53109 586.197L-7.51533 586.226ZM28.2274 551.156C27.5073 552.089 26.8188 553.072 26.1249 554.097C24.4 552.654 22.4238 551.867 20.4008 551.816C21.0928 549.013 21.9415 546.286 22.9396 543.66C24.9492 545.803 26.7306 548.316 28.2327 551.128L28.2274 551.156ZM29.2209 553.093C30.8666 556.478 32.2545 560.083 33.3628 563.853C31.8758 560.794 30.0575 558.061 27.9699 555.747C28.3799 554.836 28.7846 553.932 29.2262 553.064L29.2209 553.093ZM19.7964 554.205C21.4429 554.791 23.0026 555.761 24.4061 557.074C20.8634 563.53 18.2405 571.629 16.7477 580.394C17.1314 571.342 17.9829 562.447 19.8016 554.176L19.7964 554.205ZM6.47166 586.563C5.00516 586.477 3.55968 586.441 2.08792 586.376C2.87111 586.42 4.9158 586.477 6.86589 586.57H6.47166V586.563ZM7.04987 586.563L8.27457 586.613L7.04987 586.563ZM10.8869 584.346C9.90834 576.305 9.86221 568.104 10.7503 560.044C11.5551 552.906 12.9772 545.923 14.9868 539.242C17.6331 539.545 20.1659 540.843 22.3036 542.993C20.6602 545.84 19.2502 548.924 18.0986 552.189C17.56 552.372 17.0327 552.611 16.5217 552.907C16.2168 553.093 16.548 553.732 16.753 553.717C17.0409 553.718 17.3287 553.74 17.615 553.782C15.2339 560.955 13.7989 569.118 13.1051 577.561C12.9684 573.329 12.4323 569.061 11.155 565.782C11.0341 565.474 10.6294 565.424 10.8028 565.897C11.7174 568.637 11.523 572.905 11.4862 575.94C11.4263 578.76 11.2261 581.571 10.8869 584.354V584.346ZM17.4573 586.836H18.9501H17.4573ZM19.1814 586.836C20.4692 586.836 21.4626 586.879 21.7569 586.879C20.9317 586.879 20.0854 586.836 19.2024 586.836H19.1814ZM40.1697 581.771H40.832H40.1697ZM73.216 579.799C73.1073 579.487 72.9481 579.214 72.7505 578.999C72.5529 578.784 72.3221 578.633 72.0754 578.558C71.7842 578.535 71.4934 578.612 71.2298 578.783C70.9662 578.953 70.7382 579.211 70.5669 579.533C70.7035 578.967 70.7324 578.362 70.651 577.776C70.5569 577.255 70.3603 576.779 70.0824 576.4C69.8044 576.021 69.4557 575.752 69.0741 575.624C67.4972 574.978 65.7048 576.521 65.3369 579.211C65.5719 574.35 66.3007 569.558 67.5024 564.972C70.5458 568.078 72.0228 574.161 73.237 579.799H73.216ZM54.1988 581.951C55.5444 581.951 56.9531 581.951 58.3618 581.951H54.1988ZM58.3775 581.951C60.1752 581.951 61.8572 581.951 63.1082 581.951C61.5313 581.951 59.9544 581.994 58.3775 581.994V581.951ZM88.8535 557.426C88.9166 557.856 88.9429 558.308 88.9796 558.738C88.9765 558.589 88.9552 558.441 88.9166 558.301C88.8535 557.662 88.7694 557.046 88.6958 556.414C89.1148 553.953 89.6646 551.536 90.341 549.184C91.0135 549.468 91.6719 549.81 92.3121 550.21C92.1675 553.75 92.3441 557.301 92.8378 560.783C91.6682 560.778 90.5087 561.078 89.4212 561.665C89.2214 560.223 89.0742 558.781 88.8535 557.426ZM88.5013 555.008C88.5674 554.805 88.6253 554.596 88.6748 554.384C88.6327 554.599 88.5749 554.843 88.5381 555.059C88.5381 555.001 88.5381 554.987 88.5013 554.972V555.008ZM120.244 550.704C120.391 552.577 120.428 554.47 120.538 556.343C120.039 558.1 119.582 559.929 119.177 561.73C118.888 563.085 118.615 564.599 118.383 566.076C118.136 565.237 117.905 564.405 117.637 563.595C117.903 558.601 118.729 553.692 120.086 549.04C120.134 549.585 120.197 550.138 120.244 550.69V550.704ZM97.3844 575.681C97.3319 572.74 97.3844 569.699 97.5159 566.686C97.8564 567.015 98.1845 567.367 98.4988 567.741C97.8987 570.313 97.5247 572.974 97.3844 575.667V575.681ZM113.595 571.858C113.495 571.105 113.458 570.352 113.374 569.606C113.605 570.818 113.873 572.002 114.057 573.228C113.937 572.74 113.753 572.317 113.595 571.844V571.858ZM97.7629 562.497C97.9101 560.489 98.1203 558.523 98.3779 556.572C99.1492 557.71 99.8722 558.908 100.543 560.159C100.155 561.371 99.8076 562.626 99.4554 563.903C98.9195 563.37 98.3536 562.895 97.7629 562.483V562.497ZM101.821 562.691C102.373 563.853 102.898 565.036 103.398 566.277C103.445 567.167 103.498 568.056 103.519 568.96C102.893 567.983 102.232 567.049 101.537 566.163C101.6 564.986 101.674 563.831 101.821 562.676V562.691ZM108.533 553.229C108.312 554.951 108.139 556.701 108.007 558.473C106.505 555.666 104.792 553.079 102.898 550.755C102.64 550.428 102.37 550.119 102.089 549.829C101.636 548.756 101.128 547.728 100.57 546.752C100.47 546.587 100.144 546.544 100.275 546.903C100.433 547.39 100.57 547.914 100.733 548.409L99.9811 547.763C100.591 545.252 101.358 542.816 102.273 540.483C104.661 544.436 106.757 548.701 108.533 553.215V553.229ZM89.9468 548.99L89.8995 549.112C89.9095 549.07 89.9218 549.029 89.9363 548.99H89.9468ZM92.9481 560.41C92.9285 560.458 92.9127 560.508 92.9008 560.56C92.8378 559.936 92.8115 559.262 92.7642 558.624C92.8115 559.212 92.8746 559.8 92.9481 560.395V560.41ZM119.913 547.276C118.318 551.008 117.045 554.98 116.118 559.111C115.713 557.992 115.319 556.83 114.867 555.762C114.198 554.099 113.466 552.486 112.675 550.927C113.058 541.929 114.101 533.007 115.787 524.293C117.847 531.689 119.232 539.403 119.913 547.261V547.276ZM88.843 548.653C88.5644 549.291 88.2543 549.901 87.9599 550.583C88.2438 549.915 88.5486 549.291 88.8325 548.653H88.843ZM84.1123 555.977C84.2069 557.031 84.3068 558.129 84.4067 559.176C83.0031 563.549 82.0531 568.167 81.584 572.898C81.7824 567.116 82.6407 561.412 84.1281 555.991L84.1123 555.977ZM83.3869 557.297C83.5867 556.522 83.8022 555.733 84.023 554.965C84.0181 555.006 84.0181 555.047 84.023 555.087C83.8337 555.812 83.6024 556.529 83.4027 557.282L83.3869 557.297ZM81.8101 575.488C81.8101 574.892 81.9362 574.304 81.9678 573.716C81.973 574.29 81.8574 574.878 81.8469 575.473L81.8101 575.488ZM83.9126 562.576C83.7549 563.236 83.5709 563.896 83.4132 564.556C83.5867 563.882 83.7707 563.243 83.9283 562.583L83.9126 562.576ZM82.7509 567.891C82.6143 568.573 82.4671 569.24 82.3725 569.921C82.4829 569.247 82.6353 568.601 82.7667 567.898L82.7509 567.891ZM153.07 581.398C153.07 581.441 153.07 581.492 153.07 581.535C153.07 581.578 153.07 581.441 153.07 581.398ZM140.207 570.567C140.118 571.528 140.097 572.518 140.044 573.501C139.839 573.357 139.619 573.207 139.408 573.092C139.644 572.23 139.914 571.387 140.218 570.567H140.207ZM153.022 555.618C153.106 555.374 152.802 555.059 152.691 555.245C151.599 557.085 150.64 559.065 149.826 561.156C149.653 560.509 149.451 559.876 149.222 559.262C149.101 558.946 148.696 558.896 148.87 559.391C149.133 560.314 149.309 561.278 149.395 562.26C148.951 563.459 148.551 564.687 148.197 565.94C148.158 561.764 148.362 557.591 148.807 553.459C149.387 548.444 150.266 543.502 151.435 538.682C152.67 543.209 153.582 547.889 154.158 552.656C152.872 557.916 151.961 563.333 151.435 568.831C151.34 569.218 151.204 569.548 151.119 569.928C151.028 567.956 150.813 565.998 150.478 564.075C151.128 561.15 151.983 558.318 153.033 555.618H153.022ZM154.993 572.834V572.755C155.114 572.238 155.277 571.793 155.388 571.32C155.261 571.772 155.125 572.303 155.004 572.826L154.993 572.834ZM140.744 565.603C140.171 566.65 139.592 567.676 139.067 568.788C138.983 566.213 138.983 563.645 139.03 561.091C140.328 557.518 141.836 554.095 143.54 550.855C142.285 555.643 141.352 560.577 140.754 565.596L140.744 565.603ZM133.8 580.839H134.178C133.858 581.822 133.49 582.74 133.248 583.708C133.39 582.733 133.648 581.814 133.811 580.832L133.8 580.839ZM139.461 574.103C139.629 574.304 139.824 574.512 139.987 574.727C139.934 575.983 139.84 577.195 139.813 578.443C139.64 577.001 139.592 575.559 139.472 574.096L139.461 574.103ZM142.757 580.33L140.044 580.215C140.533 580.243 141.59 580.272 142.767 580.322L142.757 580.33ZM145.695 580.444C145.474 580.444 145.28 580.444 145.08 580.408C145.29 580.416 145.485 580.437 145.711 580.437L145.695 580.444ZM153.317 584.095C153.317 583.507 153.427 582.941 153.474 582.352C153.438 582.933 153.348 583.5 153.327 584.088L153.317 584.095ZM160.959 571.901C161.442 566.572 162.381 561.338 163.756 556.307C163.395 560.732 163.531 565.207 164.16 569.577C163.246 573.219 162.62 576.985 162.294 580.81C162.147 580.81 161.99 580.81 161.816 580.81C161.606 577.797 161.327 574.856 160.954 571.901H160.959ZM164.05 567.468C164.108 568.063 164.171 568.659 164.234 569.247C164.219 569.294 164.207 569.342 164.197 569.39C164.134 568.752 164.108 568.106 164.06 567.468H164.05ZM155.829 568.02C155.608 568.824 155.361 569.656 155.114 570.517C155.225 568.709 155.351 566.93 155.509 565.122C155.533 565.047 155.549 564.967 155.556 564.886C155.666 565.926 155.75 566.966 155.84 568.02H155.829ZM158.804 552.77C159.035 552.412 159.283 552.053 159.53 551.723C159.293 552.06 159.046 552.405 158.815 552.77H158.804ZM88.3699 548.502C88.1229 549.004 87.9389 549.557 87.7339 550.073C87.6235 549.499 87.5131 548.933 87.4133 548.395C87.7181 548.438 88.023 548.452 88.3541 548.502H88.3699ZM87.0296 546.666C87.2398 546.178 87.4974 545.698 87.7392 545.231C87.4974 545.712 87.2661 546.207 87.0558 546.723L87.0296 546.666ZM84.4697 534.909C84.8745 536.516 85.1794 538.209 85.5473 539.873C85.1899 538.173 84.8745 536.48 84.4697 534.873V534.909ZM87.4448 543.668C87.6731 543.313 87.9152 542.975 88.1702 542.656C87.9159 542.964 87.6738 543.289 87.4448 543.632V543.668ZM89.5473 562.712C90.4916 562.711 91.4325 562.868 92.3489 563.179C91.4506 567.001 90.8963 570.959 90.6984 574.964C90.5197 570.811 90.0677 566.751 89.5683 562.676L89.5473 562.712ZM143.687 587.166C143.406 587.133 143.124 587.203 142.87 587.37C142.615 587.536 142.399 587.793 142.242 588.112C142.357 587.547 142.373 586.952 142.289 586.376C142.192 585.876 141.999 585.42 141.73 585.054C141.461 584.689 141.126 584.427 140.759 584.296C139.182 583.658 137.437 585.171 137.08 587.883C137.196 585.562 137.426 583.254 137.769 580.975C139.519 581.025 141.259 581.111 143.025 581.169C143.735 583.535 144.341 585.956 144.838 588.421C144.744 588.094 144.591 587.805 144.393 587.58C144.196 587.354 143.96 587.199 143.708 587.13L143.687 587.166ZM144.828 581.212C145.096 581.212 145.353 581.212 145.637 581.255C145.585 582.015 145.527 582.783 145.511 583.543C145.338 582.725 145.091 581.951 144.849 581.176L144.828 581.212ZM148.796 576.413C148.937 574.004 149.183 571.609 149.532 569.24V569.62C149.501 572.491 149.307 575.354 148.954 578.185C148.917 577.575 148.865 576.98 148.817 576.377L148.796 576.413ZM161.869 581.556H162.237C162.189 582.273 162.053 582.898 162.026 583.593C162.005 582.862 161.916 582.202 161.89 581.52L161.869 581.556ZM168.865 581.657C168.739 582.529 168.65 583.41 168.597 584.296C168.57 583.421 168.597 582.532 168.597 581.657H168.865ZM158.415 555.733C158.646 555.188 158.941 554.671 159.162 554.133C158.93 554.671 158.636 555.209 158.415 555.769V555.733ZM159.992 552.376C160.633 551.164 161.306 549.973 161.99 548.861C161.327 549.937 160.654 551.128 160.013 552.34L159.992 552.376ZM156.208 545.676C156.097 545.167 156.003 544.629 155.892 544.141C156.003 544.629 156.097 545.145 156.208 545.676ZM101.406 539.256C100.126 541.489 98.952 543.83 97.8891 546.264C97.7524 546.193 97.642 546.099 97.5316 546.028C97.298 541.928 97.2506 537.812 97.3897 533.704C98.8115 535.436 100.159 537.278 101.427 539.22L101.406 539.256ZM92.659 544.679C92.3548 544.688 92.0511 544.722 91.7497 544.779C92.1439 543.725 92.5224 542.699 92.9639 541.731C92.8745 542.663 92.7747 543.639 92.6801 544.643L92.659 544.679ZM92.1807 542.348C91.6551 543.151 91.1978 544.062 90.709 544.952C91.1978 544.026 91.6866 543.137 92.2018 542.312L92.1807 542.348ZM88.6538 543.23C89.288 542.001 89.9608 540.822 90.6722 539.694C89.9783 540.803 89.3125 541.97 88.6748 543.194L88.6538 543.23ZM83.4763 550.97C82.6951 552.785 81.9845 554.655 81.3475 556.572C81.9878 554.657 82.6983 552.787 83.4763 550.97ZM86.0151 581.19C86.6406 581.19 87.2398 581.126 87.8285 581.119C87.224 581.133 86.6248 581.169 86.0151 581.197V581.19ZM88.1176 581.097C89.4317 581.054 90.4724 581.018 90.7458 580.975C89.8732 581.032 89.0007 581.097 88.1071 581.097H88.1176ZM102.126 580.53C101.643 577.657 101.387 574.72 101.363 571.772C102.202 573.192 102.964 574.693 103.645 576.262C103.681 577.697 103.681 579.096 103.718 580.502L102.126 580.53ZM112.207 590.264H112.98V590.315C112.718 590.319 112.457 590.305 112.197 590.272L112.207 590.264ZM121.201 580.803H121.274C121.274 581.025 121.274 581.233 121.274 581.477C121.264 581.241 121.211 581.032 121.19 580.81L121.201 580.803ZM124.959 590.472H130.215C128.465 590.508 126.704 590.487 124.948 590.48L124.959 590.472ZM130.215 590.472C131.918 590.472 133.474 590.472 134.699 590.429C133.217 590.472 131.708 590.48 130.215 590.48V590.472ZM149.374 590.049C148.958 587.173 148.737 584.251 148.712 581.319H148.985V581.42C149.029 581.429 149.073 581.429 149.117 581.42C149.188 581.417 149.259 581.4 149.327 581.37C149.078 584.266 149.119 587.196 149.448 590.078L149.374 590.049ZM173.28 589.081C172.013 581.606 172.21 573.808 173.853 566.471C174.799 573.752 174.678 581.535 174.862 589.009L173.28 589.081ZM196.324 588.543C197.086 588.543 198.952 588.543 200.76 588.543C199.325 588.564 197.811 588.536 196.329 588.55L196.324 588.543ZM201.017 588.543C202.594 588.543 204.129 588.543 204.697 588.543C203.488 588.571 202.247 588.571 201.023 588.571L201.017 588.543ZM236.76 553.473C236.018 554.4 235.316 555.384 234.658 556.421C232.934 554.965 230.955 554.17 228.928 554.119C229.639 551.331 230.485 548.611 231.462 545.977C233.485 548.13 235.274 550.664 236.776 553.502L236.76 553.473ZM228.35 556.529C229.99 557.107 231.542 558.079 232.934 559.398C229.391 565.854 226.768 573.938 225.259 582.704C225.675 573.73 226.505 564.778 228.371 556.558L228.35 556.529ZM237.748 555.417C239.399 558.8 240.79 562.406 241.901 566.177C240.414 563.144 238.599 560.435 236.518 558.143C236.923 557.211 237.312 556.278 237.769 555.446L237.748 555.417ZM214.994 588.916C213.522 588.823 212.056 588.772 210.61 588.722C211.378 588.722 213.428 588.823 215.341 588.916H214.973H214.994ZM215.572 588.916C215.777 588.916 216.008 588.916 216.208 588.916C215.998 588.916 215.777 588.916 215.572 588.916ZM219.404 586.699C218.448 578.672 218.412 570.49 219.299 562.447C220.107 555.309 221.531 548.326 223.541 541.645C226.185 541.951 228.717 543.238 230.863 545.368C229.21 548.203 227.799 551.285 226.658 554.556C226.117 554.705 225.588 554.928 225.081 555.224C224.786 555.417 225.081 556.048 225.302 556.034C225.596 556.034 225.89 556.034 226.158 556.084C223.783 563.665 222.259 571.691 221.638 579.892C221.527 575.653 220.997 571.392 219.725 568.107C219.588 567.798 219.199 567.734 219.357 568.214C220.25 570.954 220.093 575.222 220.029 578.256C219.977 581.099 219.775 583.932 219.425 586.735L219.404 586.699ZM227.714 589.181C228.997 589.181 230.016 589.224 230.311 589.224C229.459 589.246 228.592 589.246 227.735 589.217L227.714 589.181ZM248.687 584.124C248.934 584.124 249.102 584.124 249.375 584.124H248.687ZM281.744 582.144C281.633 581.834 281.473 581.561 281.276 581.345C281.079 581.129 280.849 580.976 280.603 580.896C280.316 580.871 280.03 580.948 279.771 581.121C279.513 581.293 279.293 581.554 279.131 581.879C279.25 581.307 279.268 580.705 279.184 580.122C279.095 579.597 278.9 579.117 278.622 578.737C278.343 578.356 277.991 578.09 277.607 577.97C276.03 577.302 274.238 578.852 273.843 581.556C274.104 576.715 274.852 571.945 276.067 567.382C279.121 570.445 280.561 576.528 281.765 582.18L281.744 582.144ZM262.127 584.296H266.905C265.323 584.354 263.741 584.332 262.148 584.332L262.127 584.296ZM266.921 584.296H271.515L266.921 584.339V584.296ZM307.3 568.652C306.529 571.673 306.055 574.821 305.891 578.013C305.775 572.357 306.013 566.699 306.601 561.098C307.363 561.834 308.068 562.675 308.703 563.609C308.214 565.273 307.736 566.944 307.321 568.68L307.3 568.652ZM307.142 557.081C307.603 553.915 308.259 550.808 309.103 547.792C310.242 550.143 311.241 552.616 312.088 555.188C312.028 555.34 311.959 555.487 311.883 555.625C311.143 553.289 310.193 551.087 309.055 549.069C308.982 548.918 308.651 548.897 308.761 549.234C309.715 551.926 310.421 554.769 310.863 557.698C310.616 558.308 310.396 558.975 310.154 559.606C309.294 558.5 308.276 557.65 307.163 557.11L307.142 557.081ZM311.21 559.951C311.268 560.388 311.305 560.833 311.358 561.256C311.257 561.125 311.162 560.986 311.074 560.84C311.142 560.568 311.179 560.245 311.231 559.958L311.21 559.951ZM313.807 563.537C313.401 561.151 312.852 558.814 312.167 556.551C312.225 556.353 312.289 556.159 312.361 555.97C313.774 560.287 314.965 564.733 315.925 569.276C315.925 569.885 315.888 570.495 315.862 571.112C315.373 569.677 314.858 568.35 314.343 567.088C314.17 565.926 314.038 564.706 313.828 563.559L313.807 563.537ZM321.166 554.822C322.012 559.126 322.8 563.566 323.421 568.135C323.347 568.802 323.289 569.491 323.226 570.18C322.601 567.21 321.917 564.319 321.155 561.572C321.103 559.341 321.118 557.074 321.176 554.843L321.166 554.822ZM306.122 549.22C306.12 549.191 306.12 549.162 306.122 549.134V549.091C305.996 546.853 305.901 544.665 305.865 542.463C306.595 543.366 307.263 544.357 307.862 545.425C307.137 546.917 306.453 548.459 305.802 550.037C305.901 549.786 306.028 549.535 306.133 549.241L306.122 549.22ZM333.287 551.372C333.5 549.867 333.774 548.38 334.107 546.917C334.191 546.594 333.849 546.2 333.728 546.436C333.508 546.903 333.308 547.376 333.077 547.871C332.645 541.566 332.062 535.325 331.337 529.221C334.228 535.297 335.847 543.259 336.556 550.977C335.967 556.335 335.468 561.737 335.027 567.174C334.732 570.682 334.501 574.232 334.228 577.79C334.17 578.615 334.107 579.469 334.059 580.301C334.004 580.462 333.954 580.627 333.912 580.796C333.986 576.205 333.996 571.636 333.912 567.031C333.833 561.794 333.592 556.579 333.297 551.407L333.287 551.372ZM342.144 582.374H342.559C342.421 582.385 342.282 582.385 342.144 582.374ZM301.481 562.755C301.481 562.806 301.481 562.834 301.428 562.884C301.355 562.296 301.344 561.701 301.297 561.127C301.334 561.687 301.399 562.243 301.491 562.791L301.481 562.755ZM342.023 583.17C342.328 583.17 342.632 583.17 342.927 583.17C342.197 586.059 341.588 589.002 341.103 591.986C341.345 589.045 341.692 586.118 342.033 583.206L342.023 583.17ZM347.621 571.55C348.261 568.746 349.035 566.002 349.939 563.336C349.025 568.88 348.497 574.529 348.362 580.208C348.339 580.146 348.31 580.088 348.278 580.035C347.966 577.233 347.75 574.416 347.631 571.585L347.621 571.55ZM301.365 563.085C300.194 567.657 299.487 572.426 299.263 577.259C298.933 571.371 298.317 565.519 297.418 559.743C297.465 560.166 297.491 560.596 297.554 561.041C297.522 560.896 297.501 560.747 297.491 560.596C297.418 559.951 297.344 559.355 297.244 558.717C298.079 553.535 299.534 548.577 301.549 544.041C300.719 550.303 300.424 556.888 301.381 563.121L301.365 563.085ZM297.092 557.426C297.129 557.175 297.192 556.974 297.239 556.744C297.166 556.931 297.092 557.16 297.092 557.426ZM290.427 577.883C290.453 577.288 290.537 576.707 290.574 576.119C290.511 576.671 290.427 577.252 290.401 577.848L290.427 577.883ZM298.837 550.174C298.727 550.633 298.595 551.063 298.469 551.515C298.564 551.027 298.695 550.597 298.805 550.138L298.837 550.174ZM296.545 552.978C297.034 551.823 297.539 550.704 298.08 549.629C297.507 550.669 297.003 551.788 296.514 552.942L296.545 552.978ZM291.988 566.98C292.162 566.313 292.319 565.668 292.514 565.022C292.288 565.617 292.119 566.277 291.957 566.944L291.988 566.98ZM292.992 561.557C291.582 565.936 290.627 570.562 290.154 575.301C290.349 569.512 291.208 563.8 292.698 558.373C292.766 559.391 292.85 560.467 292.96 561.522L292.992 561.557ZM291.31 570.337C291.2 571.012 291.031 571.657 290.947 572.353C291.016 571.621 291.184 570.976 291.31 570.337ZM291.962 559.7C292.146 558.918 292.377 558.129 292.598 557.368V557.426C292.388 558.193 292.13 558.903 291.946 559.664L291.962 559.7ZM293.013 537.276C293.402 538.869 293.723 540.49 294.064 542.097C293.723 540.454 293.413 538.833 293.013 537.24V537.276ZM295.988 545.949C296.219 545.619 296.456 545.274 296.687 544.973C296.456 545.303 296.219 545.647 295.988 545.949ZM298.501 548.603C299.19 547.227 299.939 545.909 300.745 544.658C299.938 545.919 299.189 547.246 298.501 548.631V548.603ZM295.573 548.976C295.804 548.438 296.099 547.936 296.319 547.398C296.072 547.936 295.794 548.459 295.573 549.019V548.976ZM297.192 545.59C297.838 544.349 298.501 543.137 299.221 542.003C298.501 543.166 297.838 544.378 297.192 545.619V545.59ZM292.02 553.359C291.233 555.149 290.531 557.006 289.917 558.918C290.532 557.015 291.234 555.168 292.02 553.387V553.359ZM293.596 583.579C293.865 583.579 294.159 583.579 294.427 583.579C294.164 583.6 293.87 583.6 293.602 583.608L293.596 583.579ZM294.548 583.529C294.805 583.529 295.074 583.529 295.31 583.529C295.052 583.529 294.784 583.529 294.548 583.529ZM296.65 583.443L298.527 583.378L296.65 583.443ZM307.457 583.012C308.046 583.012 308.545 582.969 308.976 582.962C308.488 582.998 307.957 583.012 307.457 583.041V583.012ZM309.097 582.962C309.749 582.912 310.227 582.905 310.301 582.883L309.097 582.962ZM310.674 582.883C309.731 577.358 309.581 571.636 310.233 566.033C310.821 567.124 311.394 568.35 311.962 569.62C312.104 574.039 312.156 578.493 312.267 582.854C311.746 582.862 311.195 582.905 310.653 582.912L310.674 582.883ZM330.291 583.134H330.632C330.632 584.77 330.685 586.412 330.685 588.033C330.574 586.427 330.406 584.82 330.27 583.163L330.291 583.134ZM353.056 582.733L348.609 582.56C349.403 582.56 351.489 582.675 353.434 582.747C353.292 582.776 353.171 582.776 353.035 582.761L353.056 582.733ZM353.644 582.768C354.07 582.768 354.475 582.768 354.89 582.811L353.644 582.768Z" fill="#026228"/>
</g>
</g>
</g>
</g>
<defs>
<radialGradient id="paint0_diamond_26_62" cx="0" cy="0" r="1" gradientUnits="userSpaceOnUse" gradientTransform="translate(181.436 248.931) rotate(89.1237) scale(337.03 204.096)">
<stop stop-color="white"/>
<stop offset="1" stop-color="#77AF11"/>
</radialGradient>
<radialGradient id="paint1_diamond_26_62" cx="0" cy="0" r="1" gradientUnits="userSpaceOnUse" gradientTransform="translate(181.436 248.931) rotate(89.1237) scale(337.03 204.096)">
<stop stop-color="white"/>
<stop offset="1" stop-color="#77AF11"/>
</radialGradient>
<clipPath id="clip0_26_62">
<rect width="333" height="531" fill="white" transform="translate(0 42)"/>
</clipPath>
</defs>
</svg>
