<svg width="358" height="590" viewBox="0 0 358 590" fill="none" xmlns="http://www.w3.org/2000/svg">
<g id="petani-muda">
<path id="Rectangle 4" d="M0.928162 178.536C0.928162 79.9331 80.8614 0 179.464 0V0C278.067 0 358 79.9333 358 178.536V589.644H0.928162V178.536Z" fill="url(#paint0_diamond_28_25)"/>
<g id="petani-2 1" clip-path="url(#clip0_28_25)">
<g id="Group">
<g id="Layer 1">
<path id="Vector" d="M200.531 511.821V575.059C200.53 575.947 200.177 576.798 199.551 577.425C198.924 578.052 198.074 578.404 197.188 578.404H195.163C194.725 578.404 194.292 578.317 193.888 578.149C193.484 577.98 193.117 577.734 192.808 577.423C192.5 577.112 192.255 576.743 192.089 576.338C191.923 575.932 191.838 575.498 191.84 575.059V521.113C191.84 520.674 191.753 520.239 191.585 519.833C191.418 519.427 191.172 519.058 190.862 518.747C190.552 518.437 190.183 518.19 189.778 518.022C189.373 517.854 188.939 517.768 188.501 517.768C188.062 517.768 187.628 517.854 187.223 518.022C186.818 518.19 186.45 518.437 186.139 518.747C185.829 519.058 185.583 519.427 185.416 519.833C185.248 520.239 185.161 520.674 185.161 521.113V575.059C185.161 575.947 184.808 576.798 184.181 577.425C183.555 578.052 182.705 578.404 181.819 578.404H179.139C178.253 578.404 177.403 578.052 176.776 577.425C176.15 576.798 175.797 575.947 175.796 575.059V520.563C175.798 520.126 175.714 519.692 175.549 519.287C175.384 518.882 175.14 518.514 174.833 518.203C174.525 517.892 174.16 517.646 173.757 517.476C173.354 517.307 172.922 517.22 172.486 517.218H170.147C169.708 517.217 169.273 517.303 168.868 517.471C168.462 517.639 168.094 517.885 167.784 518.196C167.473 518.507 167.228 518.876 167.06 519.282C166.892 519.688 166.807 520.124 166.808 520.563V575.059C166.808 575.946 166.456 576.797 165.83 577.425C165.203 578.052 164.354 578.404 163.468 578.404H161.314C160.429 578.404 159.579 578.052 158.952 577.425C158.326 576.798 157.973 575.947 157.972 575.059V520.563C157.974 520.122 157.888 519.685 157.72 519.277C157.551 518.869 157.304 518.499 156.991 518.187C156.679 517.876 156.308 517.63 155.9 517.464C155.492 517.297 155.055 517.214 154.614 517.218H152.642C151.757 517.218 150.907 517.57 150.281 518.198C149.655 518.825 149.303 519.676 149.303 520.563V575.059C149.302 575.947 148.95 576.798 148.323 577.425C147.696 578.052 146.847 578.404 145.961 578.404H143.5C142.614 578.404 141.764 578.052 141.138 577.425C140.511 576.798 140.158 575.947 140.158 575.059V511.821C140.168 506.601 142.242 501.597 145.926 497.906C149.611 494.215 154.605 492.136 159.816 492.126C160.265 492.129 160.709 492.042 161.124 491.87C161.539 491.698 161.914 491.444 162.229 491.123C162.544 490.803 162.792 490.422 162.957 490.004C163.123 489.586 163.203 489.139 163.193 488.69L163.12 484.776L162.518 458.554L162.318 449.429H176.389V488.762C176.386 489.203 176.47 489.641 176.637 490.049C176.804 490.458 177.05 490.829 177.36 491.142C177.671 491.455 178.041 491.703 178.448 491.872C178.854 492.041 179.291 492.127 179.731 492.126H180.844C185.887 492.126 190.737 494.064 194.395 497.542C198.053 501.02 200.239 505.771 200.502 510.816C200.531 511.146 200.531 511.495 200.531 511.821Z" fill="#686868"/>
<g id="Vector_2" style="mix-blend-mode:overlay" opacity="0.3">
<path d="M200.531 511.821V560.173C198.612 558.197 196.806 556.09 195.144 554.651C193.994 553.665 192.899 552.656 191.84 551.651V521.113C191.84 520.226 191.488 519.375 190.862 518.747C190.235 518.12 189.386 517.768 188.501 517.768C187.615 517.768 186.766 518.12 186.139 518.747C185.513 519.375 185.161 520.226 185.161 521.113V545.124C184.559 544.535 183.939 543.95 183.299 543.368C180.707 540.951 178.206 538.495 175.796 535.999V520.563C175.798 520.126 175.714 519.692 175.549 519.287C175.384 518.882 175.14 518.514 174.833 518.203C174.525 517.892 174.16 517.645 173.757 517.476C173.354 517.307 172.922 517.22 172.486 517.218H170.147C169.708 517.217 169.273 517.303 168.868 517.471C168.462 517.639 168.094 517.885 167.784 518.196C167.473 518.507 167.228 518.876 167.06 519.282C166.892 519.688 166.807 520.124 166.808 520.563V526.013C163.522 522.099 160.383 518.041 157.402 513.744C153.677 508.423 149.899 503.098 145.958 497.906C147.78 496.075 149.945 494.622 152.328 493.63C154.711 492.638 157.266 492.127 159.847 492.126C160.296 492.129 160.741 492.042 161.155 491.87C161.57 491.698 161.946 491.444 162.261 491.123C162.575 490.803 162.823 490.422 162.988 490.004C163.154 489.586 163.234 489.139 163.224 488.69L163.152 484.776L162.55 458.554C165.544 462.1 168.507 465.703 171.786 468.976C173.228 470.392 174.778 471.694 176.42 472.871V488.762C176.417 489.203 176.502 489.641 176.668 490.049C176.835 490.458 177.081 490.829 177.392 491.142C177.702 491.455 178.072 491.703 178.479 491.872C178.886 492.041 179.322 492.127 179.763 492.126H180.876C185.918 492.126 190.769 494.064 194.426 497.542C198.084 501.02 200.27 505.771 200.534 510.816C200.531 511.146 200.531 511.495 200.531 511.821Z" fill="#010101"/>
</g>
<path id="Vector_3" d="M173.934 449.428H165.447L160.647 349.141L158.969 314.067L156.687 266.666L153.711 204.157L152.617 181.17L153.36 177.373C153.495 176.656 153.875 176.008 154.434 175.541C154.994 175.074 155.698 174.816 156.427 174.813C156.991 174.816 157.545 174.97 158.03 175.259C158.515 175.549 158.914 175.963 159.186 176.459C159.932 177.781 160.467 179.211 160.772 180.699C161.173 182.694 163.694 183.407 165.161 181.981C165.185 181.964 165.203 181.942 165.216 181.916C165.23 181.89 165.236 181.862 165.237 181.833L166.259 212.978L167.826 261.421L169.488 312.386L170.582 345.996L173.934 449.428Z" fill="#6B3B17"/>
<g id="Vector_4" style="mix-blend-mode:overlay" opacity="0.3">
<path d="M166.234 212.978C164.425 211.407 162.6 209.94 160.719 208.58C158.731 207.135 156.285 205.69 153.711 204.183L152.617 181.196L153.36 177.373C153.495 176.656 153.875 176.008 154.434 175.541C154.994 175.074 155.698 174.816 156.427 174.813C156.991 174.816 157.545 174.97 158.03 175.259C158.515 175.549 158.914 175.963 159.186 176.459C159.932 177.781 160.467 179.212 160.772 180.699C161.173 182.694 163.694 183.407 165.161 181.981C165.185 181.964 165.203 181.942 165.217 181.916C165.23 181.89 165.236 181.862 165.237 181.833L166.234 212.978Z" fill="#010101"/>
</g>
<path id="Vector_5" d="M121.964 564.709C119.933 564.708 117.967 563.991 116.411 562.683C116.411 562.683 115.47 565.435 116.922 567.756C117.382 568.488 118.093 569.025 118.922 569.267C121.161 569.895 126.908 570.153 140.173 564.709V559.419L124.516 564.316C123.689 564.571 122.829 564.703 121.964 564.709ZM172.683 551.202C172.57 549.842 172.003 548.56 171.075 547.561C170.819 548.332 170.382 549.03 169.802 549.598C169.222 550.165 168.514 550.585 167.739 550.822L166.798 551.117V555.245L171.075 553.734C171.546 553.565 171.954 553.257 172.245 552.849C172.536 552.441 172.695 551.954 172.702 551.453C172.702 551.362 172.683 551.284 172.683 551.205V551.202ZM149.316 561.461L157.969 558.376V553.844L149.316 556.558V561.461Z" fill="#BE7B2A"/>
<path id="Vector_6" d="M154.614 517.218H152.642C151.757 517.22 150.91 517.574 150.284 518.2C149.658 518.827 149.306 519.677 149.303 520.563V556.57L154.395 554.981L157.953 553.866V520.569C157.956 520.129 157.871 519.693 157.704 519.285C157.538 518.878 157.292 518.508 156.981 518.196C156.671 517.885 156.302 517.638 155.896 517.47C155.489 517.302 155.054 517.216 154.614 517.218ZM163.12 484.776H132.138L136.646 537.004C136.681 537.368 136.681 537.736 136.681 538.1C136.675 540.834 135.787 543.493 134.148 545.678C132.509 547.864 130.208 549.459 127.588 550.225L118.443 552.895C117.405 553.195 116.475 553.787 115.763 554.6C115.051 555.414 114.587 556.415 114.426 557.484C114.392 557.77 114.374 558.057 114.373 558.345C114.372 559.174 114.554 559.993 114.908 560.743C115.261 561.493 115.777 562.154 116.417 562.68C117.971 563.989 119.936 564.708 121.967 564.709C122.827 564.7 123.682 564.564 124.503 564.307L140.164 559.422V511.821C140.16 506.634 142.209 501.656 145.861 497.978L145.933 497.906C147.755 496.075 149.919 494.622 152.303 493.63C154.686 492.638 157.241 492.127 159.822 492.126C160.271 492.129 160.716 492.042 161.13 491.87C161.545 491.698 161.921 491.444 162.236 491.123C162.55 490.803 162.798 490.422 162.963 490.004C163.129 489.586 163.209 489.139 163.199 488.69L163.12 484.776ZM171.272 545.234L167.695 518.261C167.102 518.879 166.774 519.706 166.782 520.563V551.101L167.723 550.809C168.498 550.574 169.207 550.156 169.788 549.591C170.37 549.026 170.809 548.331 171.068 547.561C171.308 546.81 171.383 546.016 171.288 545.234H171.272Z" fill="#DC8927"/>
<path id="Vector_7" d="M154.614 517.218H152.642C151.971 517.218 151.315 517.421 150.761 517.802C151.837 527.477 152.548 537.205 153.79 546.861C154.103 549.239 153.733 552.402 154.392 554.981L157.95 553.866V520.569C157.953 520.129 157.868 519.693 157.702 519.286C157.535 518.879 157.29 518.509 156.979 518.197C156.669 517.886 156.301 517.639 155.895 517.471C155.489 517.303 155.054 517.217 154.614 517.218ZM171.278 545.234L167.701 518.261C167.108 518.879 166.781 519.706 166.789 520.563V551.102L167.729 550.809C168.504 550.573 169.21 550.155 169.791 549.59C170.372 549.025 170.81 548.33 171.068 547.561C171.308 546.811 171.383 546.016 171.288 545.234H171.278ZM140.687 484.776C140.029 488.121 142.951 492.714 144.356 495.142C144.904 496.084 145.415 497.045 145.854 497.994L145.926 497.922C147.749 496.091 149.913 494.638 152.297 493.646C154.68 492.654 157.235 492.143 159.816 492.142C160.265 492.145 160.709 492.058 161.124 491.886C161.539 491.713 161.914 491.459 162.229 491.139C162.544 490.819 162.792 490.438 162.957 490.02C163.123 489.602 163.203 489.155 163.193 488.706L163.12 484.792L140.687 484.776Z" fill="#EC9F21"/>
<path id="Vector_8" d="M263.741 559.46C269.548 566.949 244.845 568.029 244.845 568.029C233.407 568.463 224.481 562.488 221.694 560.365C220.708 559.597 219.583 559.029 218.38 558.694C213.884 557.456 207.058 557.494 207.058 557.494C205.723 556.137 207.058 552.468 207.058 552.468C221.321 551.761 231.31 560.509 231.31 560.509C248.595 568.029 263.741 559.46 263.741 559.46Z" fill="#BE7B2A"/>
<path id="Vector_9" d="M263.738 559.46C263.738 559.46 252.003 566.097 237.402 562.551C235.313 562.059 233.274 561.379 231.307 560.522C231.307 560.522 221.324 551.78 207.068 552.474L204.779 510.581L204.465 505.055L203.371 484.776H237.016L235.082 520.563C234.875 524.487 235.544 528.408 237.041 532.04C238.538 535.672 240.825 538.924 243.735 541.559L250.504 547.665C251.952 548.952 253.607 549.984 255.398 550.718C258.628 552.053 263.738 554.905 263.738 559.46Z" fill="#DC8927"/>
<path id="Vector_10" d="M237.386 562.551C235.298 562.059 233.258 561.38 231.291 560.522C231.291 560.522 221.308 551.78 207.052 552.474L204.779 510.581L204.465 505.055C206.638 505.998 208.811 507.141 210.216 509.098C214.084 514.457 213.831 522.63 214.762 528.887C215.389 532.971 215.702 537.629 218.502 540.824C221.076 543.748 224.672 545.102 227.776 547.332C229.764 548.758 230.968 550.112 231.736 552.509C232.1 553.643 232.191 554.868 232.539 556.021C233.288 558.452 234.712 558.983 236.336 560.754C236.823 561.261 237.183 561.877 237.386 562.551Z" fill="#EC9F21"/>
<path id="Vector_11" d="M224.24 338.555C207.811 338.555 202.575 324.602 200.913 314.871C200.379 311.841 200.122 308.769 200.145 305.692C205.641 304.175 211.554 302.4 217.941 300.28L218.966 306.443L224.24 338.555Z" fill="#003B53"/>
<path id="Vector_12" d="M233.53 394.97L224.24 338.555C207.811 338.555 202.575 324.602 200.913 314.871C200.379 311.841 200.122 308.769 200.145 305.692C190.056 308.492 179.819 310.727 169.482 312.386H169.463L169.717 320.239L170.103 331.962L170.557 345.987C170.557 345.987 194.699 391.047 205.694 449.017C207.428 458.126 208.83 467.55 209.77 477.178C210.027 479.69 210.228 482.225 210.397 484.767H230.15L230.623 481.164L234.42 452.435C236.955 433.341 236.655 413.976 233.53 394.97ZM160.336 342.686L159.295 321.012L158.982 314.079C157.922 314.189 157.85 314.189 156.881 314.318C149.56 315.087 142.189 314.849 134.887 314.079C135.587 316.828 136.063 319.63 136.311 322.457C137.314 333.451 135.963 352.298 116.853 360.402L136.116 480.589L136.79 484.776H157.508V475.852C157.527 467.569 157.58 454.272 157.709 439.333C157.982 402.741 158.731 356.237 160.647 349.141L160.336 342.686Z" fill="#265A6F"/>
<path id="Vector_13" d="M116.84 360.389L111.564 327.435L110.093 318.257C110.093 318.257 117.54 312.204 134.881 314.07C135.581 316.819 136.057 319.621 136.304 322.447C137.301 333.451 135.95 352.288 116.84 360.389Z" fill="#003B53"/>
<path id="Vector_14" d="M140.361 314.531C141.7 319.455 142.35 324.541 142.293 329.644C142.312 334.802 141.464 339.927 139.784 344.803C137.982 349.634 135.176 354.226 131.166 357.562C127.262 360.999 122.387 363.062 117.436 364.064C119.791 363.122 122.158 362.271 124.277 360.923C125.359 360.316 126.406 359.648 127.413 358.922C128.401 358.176 129.343 357.37 130.234 356.51C133.821 353.118 136.389 348.792 138.073 344.168C139.756 339.545 140.562 334.569 140.894 329.584C141.059 327.081 141.082 324.57 140.963 322.064C140.895 319.544 140.694 317.03 140.361 314.531Z" fill="#404441"/>
<path id="Vector_15" d="M195.47 306.949C195.693 309.088 195.963 311.205 196.38 313.297C196.732 315.392 197.196 317.467 197.768 319.513C198.935 323.569 200.374 327.564 202.556 331.114C204.672 334.688 207.525 337.817 211.059 339.987C212.829 341.101 214.753 341.948 216.768 342.5C218.772 343.188 220.894 343.392 223.039 343.672C218.775 344.008 214.291 343.33 210.382 341.222C208.418 340.192 206.621 338.871 205.052 337.302C203.511 335.717 202.155 333.963 201.01 332.072C198.795 328.281 197.24 324.141 196.411 319.827C195.516 315.597 195.2 311.265 195.47 306.949Z" fill="#404441"/>
<path id="Vector_16" d="M156.869 314.305C149.548 315.075 142.177 314.836 134.875 314.067C117.533 312.201 110.093 318.257 110.093 318.257L111.57 327.438C112.371 327.033 113.193 326.674 114.034 326.361C119.678 324.348 126.412 323.069 132.379 322.702C133.693 322.629 134.991 322.538 136.304 322.447C143.058 321.97 149.786 321.348 156.511 321.112L159.302 321.002L158.988 314.07C157.91 314.173 157.837 314.173 156.869 314.305ZM217.947 300.28C211.561 302.4 205.647 304.175 200.151 305.692C190.062 308.492 179.825 310.727 169.488 312.386H169.469L169.723 320.239C180.249 319.287 190.681 317.489 200.919 314.861C202.142 314.547 203.346 314.233 204.55 313.875C209.955 312.339 214.354 308.956 218.972 306.434L217.947 300.28Z" fill="#265A6F"/>
<path id="Vector_17" d="M205.694 449.026C194.69 391.056 170.557 345.996 170.557 345.996L170.103 331.971C179.302 338.354 187.88 345.136 192.407 355.781C195.229 362.472 205.262 402.87 206.773 408.593C208.369 414.711 209.588 420.921 210.422 427.189C211.006 431.452 211.426 449.755 205.694 449.026Z" fill="#174053"/>
<path id="Vector_18" d="M157.508 475.852V484.776H136.79L136.116 480.589C137.884 480.058 139.803 479.273 141.061 478.943C145.789 477.718 150.645 476.986 155.483 476.292C155.919 476.235 156.649 476.053 157.508 475.852Z" fill="#79827D"/>
<path id="Vector_19" d="M230.645 481.173L230.175 484.776H210.422C210.241 482.235 210.04 479.709 209.795 477.187C210.927 477.501 212.04 477.847 213.138 478.101C217.48 479.125 221.898 479.694 226.278 480.589C227.416 480.828 229.096 480.9 230.645 481.173Z" fill="#79827D"/>
<path id="Vector_20" d="M160.647 349.141C158.731 356.237 157.982 402.741 157.709 439.333C155.699 439.917 154.332 438.821 153.144 436.92C148.441 429.532 149.733 418.576 149.733 410.202C149.733 396.211 149.623 382.277 151.485 368.424C152.341 361.988 152.928 355.696 155.561 349.7C156.088 348.566 158.336 344.231 160.324 342.676L160.647 349.141Z" fill="#174053"/>
<path id="Vector_21" d="M148.836 129.26C151.789 131.06 155.134 132.114 158.584 132.332C165.393 132.753 171.799 129.04 175.157 123.188C175.567 122.481 175.927 121.746 176.235 120.989C177.878 116.984 179.082 111.386 178.828 103.687C178.7 100.295 178.362 96.9139 177.816 93.5635C176.746 90.4444 175.246 87.4903 173.36 84.7871C172.883 84.0917 172.365 83.4257 171.808 82.7925C171.346 82.2676 170.715 81.9217 170.025 81.8149C169.335 81.7082 168.629 81.8473 168.03 82.2082C154.05 90.4915 145.688 86.92 145.688 86.92C143.791 87.7053 141.967 88.4749 140.248 89.2225V89.2413C140.093 90.5289 139.683 91.7727 139.045 92.9008C138.611 93.7011 138.104 94.4592 137.53 95.1655C137.201 95.5945 136.84 95.9987 136.452 96.3749C135.95 96.3025 135.441 96.2962 134.937 96.356C134.846 96.3749 134.718 96.3749 134.624 96.3937C133.171 96.6243 131.867 97.4168 130.992 98.6008C130.117 99.7847 129.741 101.266 129.944 102.725C130.147 104.184 130.914 105.505 132.08 106.403C133.245 107.302 134.716 107.706 136.176 107.529C136.922 107.449 137.643 107.212 138.292 106.835H138.439L138.549 116.573L138.769 132.354L138.841 139.23C138.841 139.23 138.512 152.815 160.123 153.327C160.123 153.327 177.756 152.652 176.571 136.905C158.803 142.864 149.313 129.935 148.836 129.26ZM167.801 101.932C167.323 101.933 166.856 101.792 166.458 101.527C166.06 101.262 165.749 100.885 165.565 100.443C165.38 100.001 165.331 99.5145 165.423 99.0446C165.515 98.5746 165.743 98.1425 166.08 97.8028C166.417 97.4631 166.847 97.2311 167.315 97.1361C167.784 97.0411 168.27 97.0873 168.712 97.269C169.154 97.4507 169.533 97.7596 169.8 98.1568C170.067 98.5539 170.211 99.0215 170.212 99.5003C170.213 100.143 169.96 100.76 169.509 101.217C169.057 101.674 168.443 101.933 167.801 101.938V101.932ZM145.789 100.653C145.792 100.172 145.937 99.7032 146.206 99.305C146.475 98.9067 146.855 98.5971 147.299 98.4153C147.744 98.2334 148.232 98.1874 148.702 98.2831C149.172 98.3788 149.604 98.6119 149.942 98.953C150.28 99.2941 150.51 99.7279 150.603 100.2C150.695 100.671 150.646 101.16 150.462 101.604C150.277 102.048 149.966 102.427 149.567 102.694C149.167 102.961 148.698 103.103 148.218 103.103C147.573 103.101 146.955 102.842 146.5 102.384C146.044 101.926 145.789 101.306 145.789 100.659V100.653Z" fill="#FBBD95"/>
<path id="Vector_22" d="M176.273 134.499C176.426 135.291 176.525 136.093 176.568 136.899C158.813 142.867 149.316 129.938 148.845 129.272C151.792 131.063 155.126 132.115 158.565 132.338C165.372 132.749 171.786 129.033 175.141 123.197L176.044 132.417L176.273 134.499Z" fill="#F79977"/>
<path id="Vector_23" d="M180.637 84.3097C180.781 96.0136 177.815 93.5635 177.815 93.5635C176.746 90.4444 175.246 87.4903 173.36 84.7871C172.883 84.0917 172.365 83.4257 171.808 82.7925C171.346 82.2676 170.715 81.9217 170.025 81.8149C169.335 81.7082 168.629 81.8473 168.03 82.2082C154.05 90.4915 145.688 86.92 145.688 86.92C148.902 85.585 152.316 84.1935 155.985 82.7328C155.985 82.7328 167.337 77.7949 179.985 73.8622C180.314 77.0819 180.496 79.7707 180.587 82.0292C180.615 82.8459 180.637 83.6123 180.637 84.3097Z" fill="#C15928"/>
<path id="Vector_24" d="M140.223 89.2099V89.2287C140.066 90.5165 139.656 91.7603 139.016 92.8882C138.595 93.6917 138.094 94.4504 137.521 95.1529C137.191 95.5819 136.831 95.9861 136.442 96.3623C135.94 96.2899 135.431 96.2836 134.928 96.3434C134.837 96.3623 134.708 96.3623 134.614 96.3811C134.115 95.7767 133.77 95.0599 133.608 94.2923C133.444 93.6094 133.413 92.9011 133.517 92.2065C135.624 91.2234 137.85 90.2527 140.223 89.2099Z" fill="#C15928"/>
<path id="Vector_25" d="M167.798 97.091C168.278 97.0929 168.746 97.2372 169.143 97.5057C169.541 97.7742 169.85 98.1548 170.032 98.5994C170.213 99.044 170.259 99.5325 170.164 100.003C170.068 100.474 169.835 100.906 169.495 101.244C169.154 101.582 168.721 101.811 168.25 101.903C167.78 101.994 167.293 101.944 166.851 101.758C166.408 101.572 166.031 101.259 165.767 100.858C165.503 100.457 165.363 99.987 165.365 99.5066C165.365 99.1875 165.428 98.8716 165.551 98.5771C165.673 98.2826 165.853 98.0153 166.079 97.7907C166.305 97.5661 166.574 97.3887 166.869 97.2686C167.164 97.1485 167.48 97.0881 167.798 97.091Z" fill="#010101"/>
<path id="Vector_26" d="M148.215 103.106C149.559 103.106 150.648 102.015 150.648 100.669C150.648 99.3226 149.559 98.2313 148.215 98.2313C146.872 98.2313 145.782 99.3226 145.782 100.669C145.782 102.015 146.872 103.106 148.215 103.106Z" fill="#010101"/>
<path id="Vector_27" d="M149.413 117.298C152.366 118.825 155.323 119.896 158.333 119.874C159.848 119.894 161.355 119.657 162.791 119.173C163.55 118.994 164.24 118.617 164.986 118.344C165.732 118.071 166.416 117.612 167.215 117.298C166.207 118.671 164.9 119.795 163.393 120.587C161.838 121.43 160.094 121.862 158.327 121.843C156.568 121.83 154.837 121.399 153.276 120.587C151.741 119.821 150.415 118.692 149.413 117.298Z" fill="#C45F3F"/>
<path id="Vector_28" d="M162.402 93.218C162.935 92.3353 163.948 91.8956 164.807 91.5877C165.716 91.2749 166.668 91.1105 167.629 91.1009C169.545 91.1009 171.536 91.6851 172.924 93.0986C170.965 93.1458 169.335 93.0327 167.635 93.0672C166.792 93.0672 165.945 93.0861 165.074 93.0924C164.202 93.0986 163.365 93.0358 162.402 93.218Z" fill="#C15928"/>
<path id="Vector_29" d="M156.596 110.573C158.271 109.922 160.012 109.456 161.788 109.184L160.998 110.168C160.664 108.426 160.454 106.662 160.371 104.891C160.252 103.093 160.332 101.287 160.609 99.5066C161.302 101.17 161.81 102.905 162.123 104.68C162.459 106.422 162.669 108.185 162.75 109.957V110.086C162.76 110.302 162.684 110.513 162.539 110.673C162.394 110.833 162.191 110.929 161.976 110.94H161.954C160.16 111.015 158.363 110.892 156.596 110.573Z" fill="#F79977"/>
<path id="Vector_30" d="M140.33 96.6953C140.921 95.7606 141.724 94.9784 142.672 94.4116C143.61 93.8258 144.644 93.409 145.726 93.1803C146.815 92.9398 147.941 92.9152 149.04 93.1081C150.135 93.2732 151.172 93.7046 152.062 94.3645C150.946 94.4964 149.958 94.4964 148.98 94.6284C148.022 94.7241 147.07 94.8783 146.13 95.0901C144.24 95.4733 142.428 96.0765 140.33 96.6953Z" fill="#C15928"/>
<path id="Vector_31" d="M133.755 99.1893C134.367 99.282 134.95 99.5067 135.466 99.8478C135.982 100.189 136.418 100.638 136.743 101.165C137.079 101.681 137.309 102.259 137.42 102.866C137.53 103.472 137.519 104.094 137.386 104.696C137.03 103.635 136.558 102.618 135.978 101.661C135.366 100.73 134.617 99.8961 133.755 99.1893Z" fill="#C15928"/>
<path id="Vector_32" opacity="0.44" d="M140.223 89.2099C137.85 90.2527 135.624 91.2234 133.523 92.1908C133.415 92.8902 133.444 93.604 133.608 94.2923C134.549 94.1289 135.561 93.7269 136.364 93.5415C137.257 93.3594 138.135 93.1395 139.01 92.9133C139.65 91.7854 140.06 90.5416 140.217 89.2539L140.223 89.2099ZM179.976 73.8496C167.328 77.7823 155.975 82.7202 155.975 82.7202C152.307 84.1809 148.892 85.5724 145.679 86.9074C143.782 87.6927 141.957 88.4623 140.239 89.2099V89.2287C140.083 90.5163 139.674 91.7601 139.035 92.8882C139.875 92.6495 140.697 92.3919 141.543 92.1186C145.821 90.6969 150.234 89.7222 154.712 89.2099C161.059 88.3831 167.304 86.901 173.348 84.7871C175.812 83.9453 178.22 83.0124 180.559 82.0229C180.487 79.7581 180.305 77.0693 179.976 73.8496Z" fill="#010101"/>
<path id="Vector_33" d="M212.906 68.7829V72.2036C210.883 69.1567 205.644 68.607 199.11 69.3766C193.304 70.0645 186.475 71.833 179.985 73.859C167.331 77.7886 155.969 82.7234 155.969 82.7234C152.301 84.1777 148.886 85.5724 145.688 86.9105C143.785 87.6958 141.96 88.4623 140.236 89.2099C137.859 90.2527 135.624 91.2359 133.523 92.1971C125.008 96.0513 118.69 99.293 114.022 101.935C103.073 108.167 101.211 111.116 101.211 111.116C101.211 111.116 93.5578 104.806 102.879 97.9234C102.879 97.9234 110.197 92.6149 124.911 85.2646C136.721 79.3466 153.301 72.1125 174.708 65.2522C175.53 64.9978 176.354 64.7214 177.179 64.467C183.214 62.537 189.503 61.5227 195.837 61.4577C203.33 61.4514 211.677 62.8084 212.906 68.7829Z" fill="#946828"/>
<path id="Vector_34" d="M212.906 72.2036C212.906 72.2036 210.084 91.3647 178.863 103.694H178.825C178.707 100.301 178.369 96.9191 177.816 93.5698C177.816 93.5698 180.797 96.0073 180.637 84.3128C194.746 78.6587 199.098 69.3734 199.098 69.3734C205.644 68.607 210.883 69.163 212.906 72.2036Z" fill="#765321"/>
<path id="Vector_35" d="M199.11 69.3734C199.11 69.3734 194.746 78.6524 180.637 84.3128C180.618 81.6397 180.424 78.2189 179.991 73.8559C186.475 71.8298 193.304 70.0614 199.11 69.3734Z" fill="#010101"/>
<path id="Vector_36" d="M174.702 65.2742C153.291 72.1314 136.718 79.3529 124.908 85.2803L125.237 72.3513L125.365 67.2123C125.396 66.0302 125.686 64.8693 126.216 63.8126C126.745 62.7558 127.502 61.8293 128.43 61.099C129.358 60.3687 130.436 59.8527 131.586 59.5879C132.737 59.323 133.931 59.3158 135.085 59.5667L140.559 60.7572C142.401 61.1684 144.328 60.9133 146.001 60.0371C147.673 59.161 148.981 57.7203 149.695 55.9701C150.198 54.7496 150.994 53.6722 152.012 52.8334C153.031 51.9946 154.239 51.4203 155.532 51.1612C156.824 50.9022 158.161 50.9664 159.423 51.3483C160.684 51.7301 161.833 52.4178 162.766 53.3504L169.664 60.2609L174.702 65.2742Z" fill="#765321"/>
<path id="Vector_37" d="M138.427 106.819L138.543 116.557H138.408C110.742 122.415 101.208 111.113 101.208 111.113C101.208 111.113 103.07 108.164 114.019 101.932C119.212 103.405 124.681 103.614 129.971 102.541C130.052 103.274 130.278 103.984 130.633 104.631C130.989 105.277 131.469 105.846 132.044 106.306C132.62 106.766 133.281 107.108 133.989 107.312C134.697 107.516 135.438 107.578 136.169 107.495C136.918 107.425 137.642 107.19 138.289 106.807L138.427 106.819Z" fill="#765321"/>
<path id="Vector_38" d="M133.52 92.194C133.409 92.9302 133.449 93.6814 133.638 94.4015C133.828 95.1216 134.162 95.7953 134.621 96.3811C133.208 96.6259 131.942 97.4001 131.078 98.5464C130.214 99.6928 129.819 101.125 129.971 102.554C124.681 103.626 119.212 103.417 114.019 101.944C118.687 99.2898 125.005 96.0482 133.52 92.194Z" fill="#010101"/>
<g id="Vector_39" style="mix-blend-mode:overlay" opacity="0.34">
<path d="M174.702 65.2742C153.291 72.1314 136.718 79.3529 124.908 85.2803L125.237 72.3513C131.507 69.8383 138.963 71.9304 145.588 70.3566C151.191 69.0405 156.687 66.6281 161.869 64.1748C163.895 63.2325 166.817 61.3478 169.664 60.2452L174.702 65.2742Z" fill="#010101"/>
</g>
<path id="Vector_40" d="M158.091 295.688L157.562 284.882L156.687 266.663L153.84 206.849L152.617 181.174C152.357 182.518 151.813 183.792 151.022 184.909C150.231 186.026 149.211 186.961 148.03 187.651L146.776 188.383C145.759 188.977 144.916 189.828 144.331 190.852L132.83 211.583C123.832 227.383 115.345 236.125 108.592 240.953C108.626 241.245 109.012 244.499 109.504 249.547C110.836 263.026 112.843 289.214 110.579 305.579C110.579 305.579 110.106 314.139 110.106 318.251C110.106 318.251 117.552 312.198 134.893 314.063C142.196 314.833 149.567 315.072 156.887 314.302C157.856 314.173 157.928 314.173 158.988 314.063L158.091 295.688ZM213.852 234.463C213.689 232.233 213.599 230.113 213.599 228.118C207.409 223.802 198.831 216.323 190.416 204.245C188.215 201.012 186.206 197.651 184.4 194.181C183.34 192.205 181.788 189.702 180.092 188.477L177.044 187.051C174.843 185.989 173.006 184.295 171.768 182.185C167.736 186.19 165.199 181.836 165.199 181.836L165.901 202.662L167.817 261.421L168.419 280.016L168.914 294.849L169.479 312.386H169.498C179.829 310.726 190.061 308.492 200.145 305.692C205.641 304.175 211.554 302.4 217.941 300.28C220.716 299.382 223.584 298.395 226.541 297.352C226.541 297.352 215.624 259.574 213.852 234.463ZM232.997 161.956C222.832 131.173 176.615 132.351 176.615 132.351L176.05 132.404L176.267 134.49C176.424 135.286 176.522 136.092 176.561 136.902C177.747 152.649 160.114 153.324 160.114 153.324C138.502 152.812 138.831 139.227 138.831 139.227L138.759 132.351H138.411C138.411 132.351 86.2306 140.873 79.3487 183.043C78.7555 186.987 78.5905 190.984 78.8565 194.963C79.2578 201.56 80.2078 214.124 82.1955 222.759C82.1955 222.759 84.5689 210.892 108.334 203.542C108.407 203.523 108.497 203.485 108.573 203.47C114.486 200.049 120.929 194.269 126.808 188.182C137.941 176.66 147.121 163.995 147.121 163.995C147.089 163.887 147.071 163.777 147.068 163.665L146.171 163.247C145.948 163.137 145.75 162.981 145.591 162.79C145.431 162.598 145.314 162.376 145.245 162.136C145.177 161.897 145.159 161.645 145.193 161.398C145.227 161.152 145.313 160.915 145.444 160.703C145.954 159.917 146.633 159.255 147.431 158.765L149.752 157.32C150.858 156.648 152.126 156.287 153.42 156.277L157.928 154.047C158.618 153.715 159.361 153.511 160.123 153.443C160.442 153.381 160.768 153.363 161.092 153.39L171.093 153.993C171.721 154.032 172.33 154.226 172.865 154.558C173.4 154.889 173.844 155.348 174.16 155.894L184.456 173.98C185.278 175.397 186.348 176.655 187.613 177.693L195.48 184.148L195.499 184.167L198.508 186.642C200.251 188.06 202.107 189.331 204.058 190.443C207.493 192.404 211.031 194.176 214.658 195.752L215.151 195.972C218.508 197.379 222.158 198.676 225.663 199.389C225.663 199.389 240.158 202.53 244.161 211.825C243.13 206.906 232.997 161.956 232.997 161.956Z" fill="#F37244"/>
<path id="Vector_41" d="M197.659 248.665C192.956 251.51 188.068 253.794 183.111 255.946C178.129 258.044 173.113 260.001 167.798 261.421C172.451 258.594 177.37 256.294 182.346 254.14C187.344 252.038 192.401 250.072 197.659 248.665Z" fill="#AF3425"/>
<path id="Vector_42" d="M129.617 280.704C133.674 277.538 138.104 274.994 142.606 272.625C147.146 270.317 151.78 268.19 156.693 266.657C152.46 269.578 148.005 271.997 143.506 274.359C139.007 276.721 134.423 278.892 129.617 280.704Z" fill="#AF3425"/>
<path id="Vector_43" d="M152.617 181.177L153.84 206.853C149.764 209.739 146.428 213.835 144.074 218.208C138.706 228.209 131.241 241.452 121.001 246.937C117.442 248.822 113.426 249.99 109.485 249.55C108.993 244.502 108.607 241.248 108.573 240.956C115.326 236.128 123.813 227.386 132.812 211.586L144.312 190.855C144.897 189.831 145.741 188.98 146.757 188.386L148.011 187.654C149.196 186.966 150.22 186.032 151.014 184.915C151.808 183.797 152.355 182.523 152.617 181.177Z" fill="#DC5328"/>
<path id="Vector_44" d="M213.852 234.463C208.209 233.716 202.299 231.831 200.255 230.735C192.15 226.381 186.547 218.72 181.528 211.404C177.969 206.212 172.382 202.537 165.901 202.662L165.227 181.833C165.227 181.833 167.764 186.187 171.796 182.182C173.034 184.292 174.871 185.986 177.072 187.048L180.12 188.474C181.816 189.699 183.368 192.202 184.428 194.178C186.231 197.644 188.236 201 190.432 204.23C198.847 216.317 207.425 223.796 213.614 228.103C213.599 230.113 213.689 232.233 213.852 234.463Z" fill="#DC5328"/>
<path id="Vector_45" d="M157.562 284.882L158.091 295.688C149.441 296.605 141.098 297.481 133.432 302.052C130.125 304.066 126.921 306.245 123.832 308.582C124.98 306.788 125.876 304.979 127.61 302.218C131.388 299.602 133.943 294.868 138.233 292.289C144.127 288.758 151.028 287.159 157.562 284.882Z" fill="#DC5328"/>
<path id="Vector_46" d="M204.07 272.207C197.464 274.202 193.959 281.15 188.939 285.447C185.415 288.485 181.838 291.73 177.386 293.3C174.774 294.214 171.855 294.598 168.899 294.836L168.41 280.016C173.614 277.365 178.74 274.441 183.324 270.907C186.992 268.08 190.313 263.959 194.147 261.581C194.056 266.959 187.942 272.811 184.528 276.596C181.443 280.032 177.408 283.013 174.652 286.471C185.673 286.308 193.009 272.905 204.07 272.207Z" fill="#DC5328"/>
<path id="Vector_47" d="M126.808 188.182C120.929 194.269 114.486 200.049 108.573 203.47C108.497 203.47 108.407 203.523 108.334 203.542C108.08 199.92 108.482 196.082 108.334 192.331C108.206 189.46 107.165 186.536 107.46 183.464C108.444 186.077 113.354 186.956 115.709 187.613C118.446 188.383 121.22 189.149 124.105 188.819C125.018 188.664 125.921 188.451 126.808 188.182Z" fill="#DC5328"/>
<path id="Vector_48" d="M214.658 195.752C211.036 194.176 207.501 192.405 204.07 190.446C202.115 189.334 200.255 188.062 198.508 186.642L195.48 184.173C198.069 184.617 200.722 184.523 203.274 183.897C207.036 183.002 209.545 180.533 212.818 179.126C214.135 183.149 213.329 188.361 213.95 192.633C214.134 193.683 214.37 194.724 214.658 195.752Z" fill="#DC5328"/>
<path id="Vector_49" d="M114.903 148.254C119.562 158.077 128.312 166.058 139.299 167.978C129.488 165.92 125.071 155.036 121.462 147.095C119.988 149.153 121.75 152.2 121.424 154.54C118.54 154.222 116.079 150.18 114.903 148.254Z" fill="#DC5328"/>
<path id="Vector_50" d="M183.001 161.142C183.901 160.734 185.472 160.907 186.635 160.659C190.306 159.877 193.755 157.398 196.771 155.275C200.255 152.825 202.271 149.263 205.406 146.765C204.697 153.946 201.409 158.356 195.06 161.774C191.733 163.561 185.431 165.151 183.001 161.142Z" fill="#DC5328"/>
<path id="Vector_51" d="M215.141 196.945C214.93 196.945 214.724 196.877 214.555 196.751C214.385 196.625 214.261 196.447 214.2 196.245C210.702 184.456 214.034 166.036 214.175 165.257C214.223 165.001 214.37 164.774 214.585 164.626C214.799 164.478 215.064 164.421 215.32 164.469C215.576 164.516 215.803 164.664 215.95 164.879C216.098 165.094 216.154 165.359 216.107 165.615C216.072 165.801 212.717 184.352 216.082 195.683C216.156 195.933 216.127 196.202 216.003 196.431C215.879 196.66 215.67 196.83 215.42 196.904C215.33 196.932 215.236 196.946 215.141 196.945Z" fill="#AF3425"/>
<path id="Vector_52" d="M108.566 204.456H108.526C108.397 204.449 108.271 204.417 108.155 204.361C108.039 204.306 107.935 204.227 107.849 204.131C107.763 204.035 107.697 203.923 107.654 203.802C107.612 203.68 107.594 203.551 107.601 203.422C107.601 203.247 108.491 185.694 103.553 171.602C103.492 171.366 103.522 171.115 103.636 170.898C103.75 170.682 103.94 170.516 104.17 170.433C104.399 170.35 104.651 170.355 104.877 170.448C105.103 170.541 105.286 170.715 105.39 170.937C110.457 185.386 109.582 202.782 109.545 203.514C109.534 203.767 109.427 204.006 109.244 204.181C109.062 204.357 108.819 204.455 108.566 204.456Z" fill="#AF3425"/>
<path id="Vector_53" d="M244.663 220.677C244.645 220.799 244.621 220.921 244.591 221.041C243.964 223.749 239.499 240.133 222.597 233.292C222.597 233.292 219.001 231.9 213.599 228.115C207.409 223.799 198.831 216.32 190.416 204.242C188.215 201.01 186.206 197.65 184.4 194.181C183.34 192.205 181.788 189.702 180.092 188.477L177.044 187.051C174.843 185.989 173.006 184.295 171.768 182.185C171.344 181.442 170.996 180.658 170.73 179.845L166.293 166.313L161.512 164.535C161.128 164.386 160.717 164.318 160.305 164.334L152.987 164.607L149.993 165.578C149.701 165.672 149.393 165.706 149.087 165.678C148.781 165.649 148.485 165.559 148.215 165.412C147.945 165.265 147.708 165.065 147.518 164.823C147.328 164.582 147.188 164.304 147.109 164.007C147.077 163.9 147.059 163.789 147.055 163.677L146.159 163.26C145.935 163.149 145.738 162.993 145.578 162.802C145.419 162.611 145.301 162.388 145.233 162.149C145.164 161.909 145.146 161.658 145.181 161.411C145.215 161.164 145.3 160.927 145.431 160.715C145.942 159.929 146.621 159.267 147.419 158.777L149.739 157.332C150.846 156.66 152.113 156.3 153.407 156.289L157.916 154.059C158.605 153.727 159.349 153.523 160.111 153.456C160.429 153.393 160.756 153.375 161.079 153.403L171.081 154.006C171.709 154.045 172.317 154.239 172.852 154.57C173.387 154.902 173.832 155.361 174.147 155.906L184.444 173.993C185.266 175.41 186.335 176.667 187.601 177.706L198.508 186.642C200.251 188.06 202.107 189.331 204.058 190.443C207.642 192.498 211.341 194.342 215.138 195.968L215.502 196.113C218.775 197.519 222.173 198.615 225.651 199.386C225.651 199.386 240.145 202.527 244.149 211.822V211.86C245.268 214.347 245.578 217.256 244.663 220.677Z" fill="#FBBD95"/>
<path id="Vector_54" d="M171.78 182.182C167.748 186.187 165.212 181.833 165.212 181.833C165.211 181.862 165.204 181.89 165.191 181.916C165.178 181.942 165.16 181.964 165.136 181.981C163.678 183.407 161.158 182.694 160.747 180.699C160.442 179.212 159.907 177.781 159.161 176.459C158.889 175.963 158.49 175.549 158.005 175.259C157.52 174.97 156.966 174.816 156.401 174.813C155.673 174.816 154.969 175.074 154.409 175.541C153.85 176.008 153.47 176.656 153.335 177.373L152.608 181.177C152.348 182.52 151.806 183.792 151.017 184.909C150.227 186.025 149.209 186.96 148.03 187.651L146.776 188.383C145.759 188.977 144.916 189.828 144.331 190.851L132.83 211.583C123.832 227.383 115.345 236.125 108.592 240.953C99.4083 247.518 93.3321 246.843 93.3321 246.843C80.0071 242.948 82.0137 224.402 82.1987 222.866C82.1985 222.832 82.1953 222.799 82.1893 222.766C82.1893 222.766 84.5815 210.829 108.566 203.476C108.729 203.382 108.911 203.272 109.077 203.162C126.083 193.009 147.121 164.004 147.121 164.004C147.201 164.301 147.34 164.579 147.53 164.82C147.72 165.061 147.958 165.262 148.227 165.409C148.497 165.555 148.794 165.646 149.099 165.674C149.405 165.703 149.713 165.669 150.005 165.575L153 164.604L160.317 164.331C160.729 164.315 161.14 164.383 161.525 164.532L166.306 166.306L170.742 179.839C171.009 180.653 171.356 181.438 171.78 182.182Z" fill="#FBBD95"/>
<path id="Vector_55" d="M165.209 182.813C165.145 182.813 165.082 182.807 165.02 182.794C164.894 182.77 164.773 182.721 164.666 182.649C164.558 182.578 164.466 182.486 164.394 182.379C164.322 182.272 164.272 182.152 164.247 182.025C164.221 181.899 164.221 181.768 164.246 181.642C164.44 180.64 165.92 171.766 157.511 168.863C157.382 168.828 157.262 168.767 157.157 168.683C157.052 168.6 156.966 168.495 156.903 168.377C156.84 168.259 156.802 168.129 156.791 167.995C156.78 167.862 156.797 167.727 156.839 167.6C156.882 167.473 156.951 167.356 157.04 167.256C157.13 167.157 157.239 167.077 157.36 167.021C157.482 166.965 157.614 166.935 157.748 166.932C157.881 166.929 158.014 166.953 158.138 167.004C168.118 170.459 166.387 180.847 166.159 182.019C166.116 182.24 165.998 182.441 165.825 182.586C165.652 182.73 165.434 182.811 165.209 182.813Z" fill="#C45F3F"/>
<path id="Vector_56" d="M168.096 159.167C167.901 159.168 167.71 159.109 167.551 158.997L165.685 157.741C165.255 157.437 164.741 157.276 164.215 157.279H153.417C153.156 157.279 152.907 157.175 152.723 156.991C152.539 156.806 152.435 156.556 152.435 156.296C152.435 156.035 152.539 155.785 152.723 155.6C152.907 155.416 153.156 155.312 153.417 155.312H164.208C165.132 155.308 166.034 155.59 166.792 156.12L168.642 157.376C168.815 157.494 168.947 157.665 169.016 157.864C169.086 158.062 169.09 158.278 169.029 158.479C168.967 158.68 168.842 158.856 168.673 158.981C168.504 159.106 168.3 159.173 168.09 159.173L168.096 159.167Z" fill="#C45F3F"/>
<path id="Vector_57" d="M171.783 183.168C171.609 183.169 171.438 183.123 171.287 183.035C171.137 182.947 171.013 182.821 170.927 182.669C170.475 181.869 170.101 181.028 169.811 180.156L165.522 167.057L161.18 165.455C160.92 165.357 160.645 165.31 160.368 165.317L153.175 165.587L150.3 166.511C149.879 166.644 149.435 166.691 148.996 166.648C148.556 166.606 148.13 166.474 147.742 166.263C147.358 166.053 147.02 165.766 146.751 165.421C146.481 165.076 146.285 164.679 146.174 164.255C146.109 163.985 146.073 163.71 146.064 163.432C146.063 162.828 146.231 162.236 146.549 161.722C146.866 161.209 147.321 160.795 147.861 160.527L149.551 159.682C150.227 159.342 150.968 159.154 151.724 159.129C153.978 159.05 162.735 158.752 163.036 158.752C163.296 158.752 163.546 158.856 163.73 159.04C163.914 159.224 164.017 159.474 164.017 159.735C164.017 159.996 163.914 160.246 163.73 160.43C163.546 160.615 163.296 160.718 163.036 160.718C162.722 160.718 154.853 160.985 151.789 161.092C151.316 161.109 150.852 161.228 150.429 161.441L148.739 162.286C148.525 162.391 148.345 162.555 148.22 162.757C148.094 162.96 148.027 163.194 148.027 163.432C148.043 163.51 148.049 163.589 148.046 163.668C148.087 163.85 148.165 164.022 148.275 164.172C148.386 164.323 148.527 164.448 148.689 164.541C148.844 164.625 149.014 164.677 149.19 164.694C149.365 164.71 149.543 164.692 149.711 164.639L152.711 163.674C152.797 163.647 152.885 163.632 152.975 163.63L160.292 163.354C160.827 163.332 161.361 163.419 161.86 163.611L166.648 165.38C166.788 165.432 166.915 165.516 167.018 165.625C167.122 165.734 167.199 165.865 167.243 166.008L171.677 179.553C171.926 180.302 172.247 181.024 172.636 181.711C172.7 181.823 172.741 181.947 172.757 182.075C172.773 182.203 172.764 182.333 172.73 182.458C172.696 182.582 172.638 182.699 172.559 182.801C172.48 182.903 172.381 182.988 172.269 183.052C172.12 183.133 171.953 183.173 171.783 183.168Z" fill="#C45F3F"/>
<path id="Vector_58" d="M174.157 156.886C173.986 156.887 173.817 156.843 173.669 156.758C173.52 156.673 173.396 156.55 173.31 156.402C173.076 155.996 172.746 155.654 172.349 155.405C171.952 155.157 171.501 155.009 171.034 154.976L161.029 154.386C160.789 154.365 160.547 154.373 160.308 154.411C159.628 154.466 158.963 154.647 158.349 154.945C158.232 155.004 158.104 155.038 157.973 155.047C157.843 155.056 157.712 155.038 157.588 154.995C157.464 154.953 157.35 154.886 157.253 154.798C157.156 154.71 157.077 154.604 157.021 154.486C156.965 154.367 156.933 154.238 156.928 154.107C156.922 153.976 156.943 153.846 156.989 153.723C157.035 153.6 157.104 153.487 157.194 153.392C157.284 153.297 157.392 153.22 157.511 153.167C158.307 152.778 159.168 152.541 160.051 152.467C160.414 152.407 160.782 152.393 161.148 152.426L171.15 153.016C171.938 153.067 172.701 153.312 173.372 153.728C174.044 154.145 174.603 154.72 175 155.404C175.066 155.515 175.109 155.638 175.127 155.765C175.144 155.893 175.137 156.023 175.105 156.148C175.072 156.273 175.016 156.39 174.938 156.493C174.86 156.596 174.763 156.683 174.652 156.748C174.503 156.839 174.331 156.887 174.157 156.886Z" fill="#C45F3F"/>
<path id="Vector_59" d="M107.952 211.37C105.908 213.964 101.581 214.294 98.6056 215.453C93.7491 217.372 87.6541 221.396 82.1799 222.857C82.1854 222.827 82.1885 222.796 82.1893 222.766C82.1893 222.766 84.5815 210.829 108.566 203.476C108.729 203.382 108.911 203.272 109.077 203.162C109.576 206.03 109.629 209.227 107.952 211.37Z" fill="#F79977"/>
<path id="Vector_60" d="M244.663 220.677C244.645 220.799 244.621 220.921 244.591 221.041C243.697 220.931 242.694 220.476 241.597 219.634C237.035 216.088 236.834 210.21 230.974 207.858C223.472 204.839 218.198 201.657 215.514 196.116C218.788 197.522 222.185 198.618 225.663 199.389C225.663 199.389 240.158 202.53 244.161 211.825V211.863C245.268 214.347 245.578 217.256 244.663 220.677Z" fill="#F79977"/>
</g>
</g>
</g>
<g id="rumput">
<mask id="mask0_28_25" style="mask-type:alpha" maskUnits="userSpaceOnUse" x="0" y="0" width="358" height="590">
<path id="Rectangle 5" d="M0.928162 178.536C0.928162 79.9331 80.8614 0 179.464 0V0C278.067 0 358 79.9333 358 178.536V589.644H0.928162V178.536Z" fill="url(#paint1_diamond_28_25)"/>
</mask>
<g mask="url(#mask0_28_25)">
<g id="rumput_2">
<path id="Vector_61" d="M441.667 552.998C433.661 558.408 428.109 570.936 425.664 585.236C426.203 571.947 427.887 558.769 432.607 548.212C432.665 548.047 432.53 547.804 432.439 547.923C426.381 556.649 423.365 569.262 422.244 582.649C422.123 578.71 421.637 574.737 420.439 571.678C420.338 571.389 419.958 571.356 420.112 571.789C420.935 574.344 420.776 578.316 420.743 581.139C420.697 583.779 420.516 586.412 420.204 589.018C419.31 581.541 419.268 573.92 420.079 566.425C421.103 557.634 423.08 549.099 425.944 541.101C426.035 540.858 425.756 540.569 425.64 540.726C420.146 548.067 416.143 558.356 413.891 569.826C413.656 570.24 413.453 570.601 413.41 570.719C412.794 572.105 412.188 573.569 411.64 575.131C411.447 575.591 411.303 576.129 411.158 576.596C411.148 571.897 411.384 567.204 411.866 562.551C413.321 557.18 415.204 552.043 417.48 547.233C417.63 546.951 417.37 546.38 417.235 546.577C415.802 548.681 414.451 550.888 413.189 553.188C415.003 542.453 417.899 532.04 421.945 523.537C422.061 523.314 421.791 523.005 421.7 523.196C417.641 531.178 414.432 539.906 412.169 549.118C411.385 552.382 410.727 555.7 410.196 559.058C409.1 561.499 408.103 564.02 407.208 566.609C406.745 563.279 406.135 559.99 405.38 556.76C405.202 555.999 404.99 555.257 404.788 554.488C405 552.913 405.202 551.304 405.404 549.761C407.468 535.316 410.249 521.561 413.805 509.893C413.882 509.578 413.651 509.158 413.569 509.335C408.435 518.58 405.091 532.559 402.792 548.205C400.973 543.386 398.62 539.275 395.695 537.174C394.18 526.012 391.904 515.048 388.425 508.042C388.339 507.871 388.088 507.97 388.214 508.37C390.557 516.584 392.115 526.052 393.203 535.947C392.933 535.874 392.722 535.736 392.428 535.69C392.226 535.69 392.284 536.065 392.428 536.176C392.765 536.518 393.044 536.945 393.39 537.325C394.03 543.464 394.478 549.768 394.8 556.051C394.959 559.387 395.036 562.735 395.151 566.084C394.308 568.643 393.588 571.275 392.996 573.963C392.741 572.505 392.515 571.034 392.202 569.636C392.69 566.049 393.55 562.576 394.757 559.321C394.872 559.052 394.569 558.737 394.468 558.947C393.288 561.337 392.273 563.871 391.437 566.517C391.115 565.059 390.812 563.576 390.475 562.203C389.667 558.986 388.767 555.9 387.814 552.926C388.512 546.806 389.509 540.756 390.797 534.817C390.879 534.502 390.542 534.246 390.441 534.502C388.702 538.879 387.274 543.475 386.178 548.225C383.292 540.438 379.924 534.193 376.161 531.075C375.983 530.924 375.998 531.521 376.118 531.731C379.327 538.1 382.267 546.235 384.677 555.486C384.316 557.456 383.994 559.485 383.715 561.494C382.871 559.235 381.935 557.043 380.91 554.928C380.281 553.643 379.584 552.421 378.827 551.271C379.362 550.124 379.974 549.047 380.655 548.054C380.766 547.87 380.482 547.581 380.371 547.726C379.678 548.612 379.014 549.623 378.375 550.595C377.352 549.005 376.086 547.743 374.665 546.898C374.147 546.625 373.602 546.457 373.048 546.399C373.048 546.183 373.048 545.979 373.048 545.743C373.445 540.781 374.133 535.872 375.108 531.062C375.165 530.786 374.853 530.556 374.771 530.812C373.073 536.082 371.653 541.51 370.523 547.056C369.56 547.752 368.685 548.921 367.718 549.82C367.496 550.037 367.751 550.884 367.9 550.904C368.491 550.945 369.073 551.109 369.628 551.389C369.594 551.547 369.546 551.698 369.512 551.875C369.401 552.532 369.3 553.267 369.19 553.989C367.207 556.775 365.505 559.908 364.128 563.306C363.95 562.361 363.772 561.494 363.647 560.713C364.861 557.865 366.314 555.221 367.977 552.834C368.088 552.657 367.862 552.381 367.775 552.466C366.043 553.842 364.489 555.599 363.176 557.666C361.598 546.504 357.614 534.128 351.547 529.026C351.455 528.947 351.277 529.066 351.378 529.269C356.079 539 359.485 550.483 360.25 563.221C359.437 565.083 358.699 567.005 358.042 568.979C355.8 575.683 354.169 584.186 355.203 592.111H355.126C353.534 581.336 355.045 569.078 358.494 560.102C358.571 559.872 358.302 559.577 358.191 559.741C354.188 566.537 351.773 576.156 351.528 586.044C350.407 581.586 348.511 577.653 345.841 576.346C347.155 571.656 349.079 567.328 351.518 563.569C351.638 563.407 351.769 563.26 351.908 563.129C351.93 563.08 351.946 563.027 351.956 562.971C351.941 562.919 351.933 562.864 351.932 562.807C351.932 562.584 351.72 562.427 351.605 562.584C351.393 562.912 351.215 563.241 351.013 563.556C350.532 564.153 349.858 564.869 349.747 565.04C349.014 566.084 348.32 567.18 347.669 568.323C346.156 570.957 344.792 573.744 343.589 576.661C342.41 579.471 341.01 582.748 340.125 586.221C341.089 579.432 342.707 572.846 344.936 566.635C347.452 559.465 350.657 552.913 354.515 547.936C354.684 547.713 354.371 547.325 354.222 547.463C346.663 554.58 339.038 564.869 336.18 579.747C336.772 569.771 338.197 559.919 340.428 550.385C342.834 539.879 346.115 529.86 350.277 521.259C350.402 521.049 350.132 520.76 350.017 520.885C340.476 531.882 336.223 551.186 333.702 570.128C333.375 572.453 333.096 574.797 332.802 577.154C332.692 578.106 332.581 579.077 332.48 580.036C332.605 576.725 332.605 573.407 332.48 570.095C332.241 560.988 331.211 551.951 329.41 543.176C327.673 534.798 324.969 526.426 320.673 521.311C320.596 521.2 320.302 521.311 320.437 521.561C324.979 531.16 327.009 543.359 328.01 555.473C328.794 564.961 328.929 574.514 328.972 584.094C328.231 575.473 325.917 567.174 323.016 560.174C318.965 550.286 313.148 541.757 306.417 538.606C306.206 538.507 306.239 538.934 306.35 539.098C313.663 547.713 319.85 561.323 322.275 576.418C320.544 570.37 318.084 564.76 314.996 559.82C315.029 559.82 315.053 559.735 315.121 559.702C315.188 559.669 315.053 559.144 314.928 559.222C314.856 559.301 314.777 559.367 314.693 559.419C313.819 558.023 312.879 556.707 311.878 555.48C309.727 552.854 307.216 550.779 304.632 550.07C303.353 549.722 302.038 549.702 300.754 550.011C299.863 550.289 299.005 550.742 298.209 551.357C298.613 550.043 299.017 548.73 299.465 547.47C299.542 547.227 299.272 546.925 299.171 547.089C290.819 558.251 285.873 576.248 285.56 594.908C284.223 583.943 284.738 572.853 286.345 562.124C288.105 550.582 291.156 539.243 295.486 530.155C295.587 529.932 295.308 529.617 295.217 529.801C291.234 537.678 288.082 546.28 285.854 555.355C283.674 564.232 282.486 573.615 281.86 583.234C281.633 576.314 280.723 569.468 279.157 562.88C276.934 553.293 272.695 543.044 266.407 542.145C266.205 542.145 266.258 542.499 266.407 542.611C271.646 547.936 274.158 558.671 274.99 568.763C275.717 577.666 275.134 587.541 272.464 595.216C271.47 590.418 270.92 585.468 270.828 580.483C270.76 575.01 271.402 569.564 272.724 564.396C272.801 564.101 272.498 563.74 272.387 563.989C269.981 568.533 268.235 574.055 266.96 579.839C266.141 583.252 265.656 586.798 265.517 590.384C264.992 581.658 265.902 572.564 268.702 565.381C268.803 565.112 268.514 564.797 268.399 565.027C266.238 569.569 264.647 574.571 263.688 579.826C262.726 584.731 262.178 590.791 263.207 595.886C259.113 578.414 261.196 558.198 264.867 541.35C264.944 541.035 264.617 540.779 264.506 541.035C261.244 549.131 259.156 558.513 257.77 568.178C256.576 576.461 256.008 584.89 256.077 593.332C255.815 588.624 255.263 583.955 254.427 579.373C254.056 577.22 253.557 575.112 252.935 573.07C253.104 572.604 253.248 572.177 253.416 571.757C253.517 571.533 253.238 571.271 253.152 571.441C252.996 571.699 252.857 571.974 252.733 572.262C252.054 570.163 251.196 568.18 250.178 566.353C250.096 566.208 249.798 566.182 249.919 566.504C250.778 568.93 251.424 571.487 251.843 574.12C250.508 577.234 249.426 580.536 248.615 583.969C248.198 585.774 247.876 587.617 247.652 589.484C247.551 589.484 247.465 589.484 247.364 589.484C247.397 576.628 249.288 562.735 254.898 554.403C255.023 554.219 254.754 553.95 254.619 554.088C251.676 557.919 249.171 562.33 247.186 567.174C247.272 566.924 247.397 566.688 247.474 566.451C247.479 566.421 247.479 566.39 247.474 566.359C247.296 562.939 247.229 559.584 247.272 556.235C248.333 554.383 249.571 552.733 250.953 551.33C251.054 551.212 250.905 550.772 250.77 550.851C249.557 551.696 248.405 552.696 247.33 553.838C247.33 553.274 247.33 552.716 247.364 552.158C247.744 547.243 248.433 542.381 249.423 537.627C249.466 537.332 249.163 537.096 249.086 537.358C247.607 541.949 246.344 546.665 245.304 551.475C245.203 551.941 245.107 552.446 245.006 552.932C244.645 554.653 244.217 556.327 243.904 558.087C241.746 561.321 239.938 564.96 238.535 568.894C238.386 568.126 238.217 567.43 238.107 566.786C239.301 563.972 240.728 561.355 242.36 558.986C242.471 558.815 242.259 558.553 242.158 558.618C240.459 559.975 238.938 561.711 237.659 563.753C237.51 562.86 237.356 561.941 237.178 561.008C238.161 555.743 239.692 550.697 241.725 546.025C241.792 545.874 241.638 545.644 241.557 545.743C239.41 548.914 237.616 552.498 236.23 556.379C235.386 552.711 234.257 549.176 232.863 545.835C233.546 543.478 234.263 541.147 235.061 538.901C235.129 538.658 234.859 538.363 234.758 538.514C233.649 539.982 232.616 541.553 231.665 543.215C230.244 540.162 228.366 537.553 226.156 535.559C226.079 535.494 225.886 535.625 225.987 535.802C227.557 539.108 228.94 542.571 230.125 546.163C228.441 549.492 226.999 553.036 225.819 556.747C224 558.656 222.28 560.734 220.671 562.965C220.95 559.892 221.301 556.8 221.758 553.773C223.519 542.046 226.627 530.523 231.02 521.285C231.145 521.055 230.866 520.74 230.774 520.944C226.713 528.931 223.501 537.663 221.234 546.879C219.646 553.554 218.507 560.413 217.832 567.371C217.495 567.981 217.183 568.592 216.836 569.216C216.457 565.221 215.861 561.271 215.051 557.397C215.103 557.129 215.167 556.866 215.244 556.609C217.611 546.229 220.839 536.393 224.943 527.923C225.044 527.713 224.775 527.411 224.655 527.536C219.617 533.36 216.095 541.606 213.516 550.858C211.082 542.322 207.103 534.226 201.488 533.438C201.286 533.438 201.354 533.806 201.488 533.924C206.781 539.335 209.374 550.234 210.201 560.476C210.317 561.855 210.336 563.28 210.394 564.718C209.701 568.467 209.095 572.256 208.599 576.051C208.277 578.355 208.003 580.647 207.724 582.978C207.603 583.916 207.512 584.869 207.411 585.827C207.512 582.544 207.522 579.261 207.435 576.031C207.3 571.803 206.954 567.587 206.535 563.405C206.832 560.901 207.291 558.438 207.907 556.045C207.959 555.749 207.68 555.388 207.546 555.618C206.963 556.746 206.424 557.914 205.929 559.117C205.482 555.887 205.058 552.65 204.404 549.538C203.273 544.108 201.724 538.698 199.593 534.22C199.708 533.681 199.819 533.143 199.91 532.631C199.987 532.303 199.65 532.046 199.549 532.303C199.424 532.664 199.304 533.005 199.169 533.346C198.214 531.383 197.083 529.589 195.801 528.008C195.705 527.903 195.421 528.008 195.556 528.258C196.65 530.583 197.595 533.032 198.38 535.579C196.078 542.314 194.357 549.391 193.251 556.668C191.616 553.977 189.758 551.554 187.714 549.446C188.313 548.174 188.991 546.975 189.739 545.861C189.864 545.677 189.585 545.388 189.475 545.539C188.656 546.598 187.877 547.714 187.141 548.881C185.591 547.368 183.902 546.139 182.118 545.224C182.147 544.679 182.118 544.134 182.171 543.583C182.548 538.586 183.242 533.643 184.245 528.809C184.278 528.534 183.975 528.31 183.898 528.56C181.638 535.331 179.866 542.385 178.606 549.623C178.495 550.313 178.385 551.015 178.284 551.737C177.207 553.239 176.224 554.86 175.344 556.583C174.49 557.014 173.661 557.534 172.866 558.139C174.055 555.416 175.454 552.874 177.037 550.556C177.153 550.391 176.927 550.116 176.826 550.201C175.104 551.581 173.561 553.341 172.26 555.408C170.658 544.246 166.664 531.882 160.607 526.761C160.583 526.743 160.555 526.736 160.528 526.741C160.501 526.747 160.476 526.764 160.456 526.791C160.437 526.818 160.425 526.853 160.422 526.89C160.419 526.927 160.424 526.965 160.439 526.997C165.13 536.728 168.55 548.212 169.311 560.975C168.488 562.826 167.747 564.742 167.093 566.714C164.86 573.418 163.244 581.92 164.254 589.839H164.187C162.701 578.954 163.885 567.705 167.554 557.83C167.641 557.601 167.352 557.305 167.251 557.476C163.234 564.265 160.848 573.89 160.588 583.779C159.467 579.327 157.571 575.374 154.891 574.087C156.208 569.397 158.131 565.067 160.568 561.304C160.69 561.141 160.82 560.992 160.958 560.857C160.958 560.818 161.016 560.772 161.006 560.7C160.998 560.648 160.998 560.594 161.006 560.542C161.006 560.312 160.795 560.155 160.669 560.325C160.467 560.634 160.27 560.982 160.078 561.284C159.597 561.882 158.942 562.597 158.822 562.761C158.105 563.799 157.407 564.902 156.734 566.044C155.23 568.687 153.869 571.476 152.664 574.389C151.295 577.426 150.13 580.626 149.185 583.949C150.151 577.161 151.769 570.575 153.996 564.363C156.508 557.213 159.717 550.634 163.571 545.657C163.739 545.434 163.436 545.053 163.292 545.178C155.714 552.322 148.098 562.61 145.235 577.469C145.82 567.494 147.242 557.645 149.474 548.113C151.879 537.608 155.185 527.608 159.346 518.994C159.457 518.764 159.164 518.481 159.063 518.606C149.531 529.604 145.293 548.914 142.738 567.883C142.435 570.22 142.151 572.577 141.872 574.908C141.747 575.867 141.636 576.832 141.55 577.81C141.646 574.481 141.646 571.185 141.55 567.837C141.299 558.729 140.263 549.694 138.465 540.917C136.714 532.539 134.025 524.161 129.752 519.059C129.642 518.941 129.372 519.02 129.483 519.296C134.034 528.921 136.055 541.101 137.065 553.215C137.85 562.696 137.975 572.256 138.028 581.835C137.217 573.408 135.197 565.282 132.081 557.922C128.059 548.133 122.261 539.597 115.521 536.432C115.309 536.34 115.323 536.767 115.453 536.925C122.766 545.546 128.949 559.15 131.393 574.252C129.646 568.217 127.184 562.616 124.104 557.673C124.147 557.62 124.171 557.581 124.205 557.535C124.316 557.43 124.171 556.977 124.056 557.049C123.94 557.121 123.887 557.2 123.81 557.253C122.933 555.861 121.984 554.555 120.972 553.346C118.831 550.72 116.319 548.625 113.755 547.916C112.468 547.562 111.145 547.542 109.853 547.857C108.963 548.135 108.108 548.594 107.317 549.216C107.731 547.903 108.126 546.59 108.583 545.316C108.665 545.073 108.405 544.778 108.294 544.929C99.9369 556.09 94.9909 574.087 94.6878 592.728C93.3406 581.789 93.8458 570.699 95.472 559.964C97.2233 548.441 100.283 537.089 104.613 528.008C104.714 527.779 104.455 527.463 104.354 527.667C100.368 535.53 97.2133 544.119 94.9813 553.182C92.8066 562.065 91.6134 571.448 90.9783 581.06C90.7728 574.138 89.8661 567.289 88.284 560.706C86.066 551.14 81.8273 540.877 75.5438 539.985C75.3417 539.985 75.3994 540.333 75.5101 540.464C80.7495 545.769 83.2851 556.504 84.1126 566.602C84.8295 575.506 84.257 585.381 81.5771 593.056C80.5882 588.254 80.0419 583.302 79.9509 578.316C79.8779 572.844 80.5165 567.397 81.8369 562.23C81.9042 561.954 81.6108 561.573 81.5001 561.829C79.0748 566.678 77.2405 572.03 76.0682 577.679C75.2457 581.1 74.7603 584.655 74.6248 588.25C74.0667 579.517 74.9712 570.404 77.7858 563.221C77.8868 562.952 77.5982 562.637 77.4971 562.866C75.3372 567.415 73.744 572.42 72.7821 577.679C71.8198 582.57 71.2713 588.644 72.301 593.719C68.2114 576.248 70.285 556.031 73.9512 539.19C74.0186 538.868 73.6914 538.619 73.5904 538.881C70.3043 546.971 68.2306 556.347 66.8546 566.018C65.6489 574.297 65.0781 582.725 65.1514 591.165C64.8935 586.458 64.3463 581.788 63.5156 577.206C63.1357 575.06 62.6404 572.956 62.0337 570.91C62.1636 570.458 62.3163 570.019 62.4908 569.596C62.5726 569.373 62.2887 569.097 62.1877 569.255C62.0674 569.524 61.9086 569.82 61.7739 570.089C61.1102 567.981 60.2551 565.996 59.2287 564.18C59.1373 564.035 58.8487 563.996 58.9593 564.311C59.8241 566.739 60.4703 569.301 60.8838 571.94C59.5353 575.048 58.4444 578.352 57.6314 581.789C56.9504 584.519 56.5284 587.357 56.3757 590.233C56.1159 576.589 57.8575 561.172 63.9101 552.204C64.0352 552.013 63.7465 551.737 63.6455 551.875C60.7057 555.717 58.2092 560.145 56.241 565.007C56.3544 564.76 56.4556 564.504 56.5441 564.239V564.14C56.3083 559.308 56.1159 554.758 56.4526 549.938C56.8326 545.03 57.5084 540.172 58.4734 535.415C58.5167 535.119 58.2376 534.916 58.1462 535.146C56.66 539.732 55.3983 544.448 54.3694 549.262C54.2346 549.866 54.1096 550.51 53.9652 551.12C53.6525 552.716 53.258 554.259 53.003 555.88C52.8683 556.537 52.7672 557.266 52.6662 557.968C50.7135 560.719 49.0358 563.81 47.6769 567.16C47.5085 566.248 47.3401 565.388 47.1717 564.652C48.3665 561.83 49.797 559.206 51.4345 556.832C51.5596 556.695 51.3238 556.406 51.2228 556.484C49.5283 557.845 48.0086 559.575 46.7243 561.606C45.1558 550.595 41.2394 538.448 35.2638 533.419C35.182 533.34 34.9944 533.458 35.0954 533.662C39.7142 543.235 43.0918 554.534 43.8279 567.088C43.015 568.909 42.2886 570.8 41.6532 572.748C39.4352 579.353 37.8523 587.718 38.8627 595.518H38.7953C37.2124 584.914 38.7039 572.827 42.1006 564.002C42.192 563.779 41.937 563.49 41.8216 563.667C37.8619 570.338 35.5188 579.793 35.2638 589.537C34.162 585.157 32.2905 581.284 29.6443 580.016C30.9479 575.394 32.8461 571.127 35.2494 567.417C35.3745 567.279 35.4851 567.121 35.6199 566.983C35.6535 566.944 35.6872 566.898 35.6776 566.832C35.6645 566.781 35.6564 566.728 35.6535 566.675C35.6535 566.425 35.4418 566.287 35.3312 566.458C35.1387 566.773 34.9463 567.115 34.7586 567.41C34.2535 567.994 33.6232 568.723 33.5125 568.868C32.7844 569.895 32.0955 570.974 31.4485 572.098C29.9737 574.698 28.6391 577.441 27.4551 580.305C26.3004 583.076 24.9292 586.287 24.0536 589.714C24.9966 583.034 26.5921 576.557 28.7975 570.457C31.256 563.418 34.417 556.937 38.2324 552.072C38.3863 551.849 38.0736 551.462 37.9389 551.599C30.4814 558.625 22.9807 568.749 20.1372 583.417C20.7219 573.589 22.1262 563.883 24.323 554.488C26.7286 544.147 29.9426 534.292 34.0466 525.822C34.1476 525.605 33.8541 525.316 33.7531 525.422C24.4 536.255 20.2046 555.276 17.6931 573.95C17.39 576.248 17.1109 578.546 16.8174 580.863C16.7308 581.815 16.6154 582.774 16.4951 583.706C16.617 580.463 16.6282 577.197 16.5288 573.91C16.2896 564.955 15.2721 556.071 13.4977 547.443C11.7848 539.197 9.12421 530.943 4.91917 525.914C4.80851 525.789 4.53908 525.875 4.66417 526.157C9.13383 535.605 11.1209 547.621 12.1216 559.544C12.9059 568.887 13.0261 578.309 13.0839 587.718C12.3478 579.235 10.0672 571.067 7.24301 564.18C3.2256 554.429 -2.49018 546.032 -9.1153 542.919C-9.31737 542.847 -9.30775 543.261 -9.18266 543.412C-1.99463 551.908 4.09644 565.302 6.49726 580.148C4.12049 571.993 0.516857 564.725 -3.73149 559.577C-5.86288 557.003 -8.33106 554.935 -10.8858 554.246C-12.1427 553.889 -13.4381 553.867 -14.7012 554.18C-16.2119 554.561 -17.434 555.769 -18.8485 556.635C-19.1179 556.819 -18.8244 557.397 -18.6368 557.397C-11.0446 557.325 -4.68412 568.067 -1.27293 579.59C-5.07865 571.96 -10.7944 566.189 -16.4813 569.741C-16.7508 569.898 -16.4477 570.463 -16.26 570.463C-8.41767 570.187 -1.27293 582.485 0.463934 595.656L-4.23668 595.499C-4.33771 595.499 -4.2896 595.696 -4.203 595.702C1.57052 596.359 7.31517 596.667 13.1176 596.733C13.1361 596.746 13.1568 596.753 13.1777 596.753C13.1986 596.753 13.2193 596.746 13.2378 596.733C17.8807 596.785 22.514 596.733 27.1472 596.575C27.3493 596.575 27.5514 596.503 27.7727 596.483C27.8083 596.485 27.8431 596.498 27.8737 596.523C31.4725 596.424 35.0617 596.287 38.651 596.175C41.735 596.05 44.8334 595.945 47.9175 595.807C47.9218 595.868 47.9218 595.93 47.9175 595.991C47.9556 596.001 47.9948 596.001 48.0329 595.991C48.0628 595.963 48.0978 595.947 48.134 595.945C48.1286 595.91 48.1286 595.875 48.134 595.84C56.1832 595.531 64.2277 595.183 72.2673 595.006C72.2673 595.006 72.2673 595.006 72.2913 595.039C72.5343 594.977 72.7804 594.942 73.0275 594.934C73.0697 594.935 73.1104 594.956 73.1429 594.993C76.2703 594.923 79.3944 594.877 82.5153 594.855C88.8854 594.855 95.2363 595.078 101.582 595.354C102.03 595.354 102.482 595.354 102.929 595.413C102.926 595.439 102.926 595.466 102.929 595.492C102.968 595.491 103.005 595.479 103.04 595.459C103.382 595.306 103.739 595.23 104.099 595.236C104.142 595.237 104.184 595.258 104.218 595.294C104.252 595.331 104.276 595.382 104.286 595.44C107.173 595.512 110.007 595.531 112.879 595.571V595.709C112.879 595.978 113.182 596.319 113.182 595.978V595.571C115.93 595.571 118.686 595.571 121.434 595.682C121.66 595.682 121.544 595.19 121.381 595.19C118.653 594.993 115.93 594.908 113.202 594.855C113.404 586.064 114.645 577.042 117.253 569.629C121.188 574.449 124.195 582.104 125.249 590.075C123.642 590.023 122.064 589.957 120.491 589.911C120.38 589.911 120.414 590.095 120.491 590.102C126.341 590.797 132.196 591.08 138.071 591.152C138.112 591.168 138.155 591.168 138.196 591.152C142.897 591.205 147.617 591.152 152.317 590.988V591.04C152.529 590.994 152.731 590.935 152.957 590.916C152.994 590.915 153.029 590.931 153.058 590.962C156.715 590.863 160.357 590.725 163.989 590.594C167.121 590.489 170.282 590.358 173.41 590.226C173.428 590.284 173.436 590.347 173.434 590.41H173.535C173.565 590.371 173.604 590.345 173.645 590.338H173.67C173.674 590.301 173.674 590.263 173.67 590.226C178.962 590.023 184.23 589.852 189.503 589.675C190.324 592.303 190.929 595.046 191.308 597.856C189.758 597.816 188.2 597.77 186.631 597.705C186.53 597.705 186.564 597.902 186.631 597.902C192.405 598.558 198.178 598.873 203.952 598.939C203.992 598.959 204.036 598.959 204.077 598.939C208.71 598.998 213.362 598.939 217.986 598.788V598.827C218.183 598.788 218.41 598.729 218.602 598.709C218.621 598.704 218.641 598.705 218.661 598.711C218.68 598.718 218.698 598.731 218.713 598.749C222.302 598.65 225.901 598.519 229.466 598.401C232.574 598.283 235.668 598.151 238.766 598.04C238.771 598.092 238.771 598.145 238.766 598.197H238.867C238.898 598.169 238.932 598.147 238.968 598.132V598.033C247.012 597.678 255.052 597.337 263.116 597.153V597.193C263.359 597.118 263.608 597.083 263.857 597.088C263.897 597.088 263.936 597.106 263.967 597.14C267.1 597.068 270.222 597.009 273.354 597.009C279.715 597.009 286.061 597.206 292.44 597.508C292.869 597.508 293.306 597.508 293.754 597.541C293.748 597.571 293.748 597.602 293.754 597.633C293.795 597.643 293.838 597.643 293.879 597.633C294.212 597.462 294.568 597.386 294.923 597.409C294.969 597.407 295.013 597.426 295.05 597.463C295.087 597.5 295.113 597.553 295.125 597.613C297.983 597.692 300.855 597.705 303.728 597.731C303.728 597.777 303.728 597.829 303.728 597.875C303.728 598.145 304.021 598.493 304.045 598.151V597.731C306.792 597.731 309.54 597.777 312.297 597.856C312.532 597.856 312.398 597.363 312.22 597.35C309.496 597.166 306.768 597.074 304.04 597.035C304.271 588.184 305.566 579.163 308.12 571.77C312.08 576.589 315.097 584.245 316.117 592.209C314.534 592.15 312.956 592.104 311.363 592.058C311.248 592.058 311.281 592.235 311.363 592.242C317.209 592.931 323.098 593.22 328.948 593.292C328.964 593.305 328.981 593.312 328.999 593.312C329.017 593.312 329.034 593.305 329.049 593.292C333.769 593.358 338.494 593.292 343.195 593.141C343.406 593.141 343.608 593.056 343.83 593.05C343.85 593.045 343.871 593.047 343.891 593.055C343.911 593.063 343.929 593.077 343.945 593.096C347.587 592.964 351.234 592.853 354.867 592.721C358.008 592.623 361.16 592.485 364.297 592.36C364.286 592.421 364.286 592.484 364.297 592.544H364.398C364.407 592.521 364.42 592.502 364.436 592.488C364.452 592.475 364.47 592.467 364.489 592.465H364.523C364.511 592.437 364.503 592.406 364.499 592.373C370.465 592.13 376.44 591.933 382.387 591.75C383.293 595.814 383.96 599.97 384.384 604.179H408.224C408.402 599.913 408.778 595.668 409.349 591.467C412.52 591.572 415.671 591.684 418.856 591.822C419.338 591.861 419.766 591.861 420.204 591.868C420.204 591.868 420.204 591.933 420.204 591.953C420.204 591.973 420.281 591.953 420.314 591.953C420.656 591.792 421.016 591.71 421.378 591.71C421.425 591.704 421.473 591.724 421.51 591.764C421.548 591.804 421.573 591.862 421.58 591.927C424.5 591.999 427.392 592.038 430.293 592.052V592.203C430.293 592.465 430.61 592.859 430.62 592.465V592.065C433.411 592.065 436.216 592.065 438.996 592.176C439.242 592.176 439.112 591.677 438.944 591.664C436.172 591.48 433.401 591.388 430.644 591.342C430.981 576.523 434.2 560.936 441.801 553.49C441.96 553.385 441.782 552.926 441.667 552.998ZM4.83256 595.755C5.05869 595.755 5.21747 595.755 5.46284 595.755H4.83256ZM34.6287 593.962C34.5365 593.682 34.3975 593.435 34.2229 593.241C34.0483 593.048 33.843 592.912 33.6232 592.846C33.3626 592.821 33.1017 592.889 32.8658 593.042C32.6298 593.195 32.4267 593.428 32.276 593.719C32.3814 593.2 32.4043 592.656 32.3434 592.124C32.2545 591.656 32.0727 591.23 31.818 590.895C31.5634 590.559 31.2457 590.325 30.9 590.22C29.4855 589.629 27.8689 591.021 27.5321 593.463C27.7507 589.089 28.4079 584.777 29.4855 580.647C32.2424 583.378 33.5558 588.874 34.6287 593.962ZM16.4758 595.932H21.2871C19.6705 595.939 18.0684 595.919 16.4758 595.919V595.932ZM21.2871 595.932C23.0143 595.932 24.6213 595.932 25.776 595.893C24.2845 595.932 22.793 595.939 21.2871 595.958V595.932ZM52.4208 576.491C52.4208 576.543 52.3871 576.582 52.3871 576.628C52.3198 576.064 52.3102 575.473 52.262 574.875C52.2957 575.401 52.339 575.946 52.4064 576.471L52.4208 576.491ZM52.3438 576.799C51.2691 580.919 50.6213 585.224 50.4193 589.589C50.1209 584.28 49.5664 579.002 48.7594 573.792C48.8268 574.153 48.8364 574.547 48.8845 574.921C48.874 574.8 48.8579 574.679 48.8364 574.56C48.7691 573.989 48.6921 573.431 48.6247 572.879C49.3703 568.208 50.6704 563.735 52.4737 559.636C51.7087 565.237 51.4778 571.179 52.3294 576.779L52.3438 576.799ZM42.4278 590.082C42.4278 589.543 42.5288 589.005 42.5721 588.486C42.5385 588.985 42.4374 589.497 42.4134 590.062L42.4278 590.082ZM48.4515 571.645V571.599C48.4803 571.434 48.5172 571.271 48.5622 571.113C48.511 571.279 48.4692 571.45 48.4371 571.625L48.4515 571.645ZM50.044 565.079C49.9189 565.526 49.7842 565.979 49.6639 566.438C49.7554 565.933 49.9045 565.48 50.0296 565.033L50.044 565.079ZM43.8616 580.279C43.9963 579.622 44.155 579.025 44.3427 578.381C44.1502 578.992 43.9818 579.583 43.8471 580.233L43.8616 580.279ZM44.7516 575.414C43.4836 579.354 42.6222 583.514 42.192 587.777C42.3612 582.548 43.1274 577.386 44.463 572.479C44.5448 573.437 44.6458 574.396 44.7372 575.368L44.7516 575.414ZM43.2361 583.339C43.1254 583.936 43.0003 584.507 42.9089 585.118C42.9859 584.461 43.111 583.89 43.2217 583.293L43.2361 583.339ZM43.8183 573.72C44.0107 573.017 44.1983 572.308 44.4004 571.619C44.3952 571.651 44.3952 571.685 44.4004 571.717C44.1839 572.334 43.9818 572.978 43.8038 573.674L43.8183 573.72ZM47.4411 561.461C47.6769 561.126 47.879 560.805 48.1388 560.476C47.8645 560.746 47.6625 561.081 47.4267 561.415L47.4411 561.461ZM49.7169 563.799C50.3808 562.532 51.0544 561.337 51.7569 560.227C51.04 561.264 50.3664 562.486 49.7024 563.753L49.7169 563.799ZM47.8693 567.837C48.3505 566.622 48.923 565.467 49.4619 564.331C48.9086 565.421 48.3457 566.576 47.8549 567.791L47.8693 567.837ZM47.0947 564.107C47.3305 563.615 47.5759 563.149 47.802 562.643C47.5662 563.149 47.3209 563.641 47.114 564.18C47.0803 564.088 47.0803 564.081 47.0803 564.061L47.0947 564.107ZM48.5622 561.041C49.1588 559.925 49.7409 558.848 50.4001 557.83C49.7265 558.802 49.1443 559.879 48.5477 560.995L48.5622 561.041ZM45.3675 556.13C45.151 555.257 45.0066 554.364 44.7853 553.504C44.9922 554.318 45.1366 555.211 45.3531 556.084L45.3675 556.13ZM43.8856 568.08C43.1808 569.692 42.5478 571.36 41.99 573.076C42.5378 571.343 43.1662 569.658 43.8712 568.034L43.8856 568.08ZM57.0974 594.822C57.9056 594.776 58.6225 594.757 59.1806 594.737C58.4734 594.711 57.7757 594.75 57.0829 594.75L57.0974 594.822ZM59.2865 594.737C59.8542 594.704 60.3065 594.691 60.3738 594.691C59.9986 594.658 59.6377 594.665 59.272 594.691L59.2865 594.737ZM60.7058 594.684C59.5442 587.844 59.7184 580.708 61.211 573.989C62.0866 580.686 61.9519 587.777 62.1444 594.625C61.6488 594.612 61.1629 594.619 60.6914 594.638L60.7058 594.684ZM81.7936 594.192H85.8399H81.7936ZM86.0756 594.192L89.4435 594.225C88.3273 594.166 87.2063 594.166 86.0612 594.166L86.0756 594.192ZM118.792 562.092C118.133 562.945 117.503 563.845 116.868 564.784C115.289 563.463 113.48 562.742 111.628 562.696C112.262 560.13 113.039 557.634 113.952 555.23C115.792 557.191 117.422 559.492 118.797 562.065L118.792 562.092ZM119.702 563.864C121.208 566.962 122.478 570.263 123.493 573.713C122.132 570.914 120.467 568.412 118.556 566.294C118.932 565.46 119.302 564.633 119.706 563.838L119.702 563.864ZM111.075 564.882C112.582 565.418 114.01 566.307 115.294 567.508C112.052 573.418 109.651 580.831 108.284 588.854C108.636 580.568 109.415 572.426 111.08 564.856L111.075 564.882ZM98.8784 594.501C97.5361 594.422 96.213 594.389 94.8658 594.33C95.5827 594.369 97.4543 594.422 99.2392 594.507H98.8784V594.501ZM99.4076 594.501L100.529 594.547L99.4076 594.501ZM102.92 592.472C102.024 585.112 101.982 577.605 102.795 570.227C103.531 563.693 104.833 557.301 106.673 551.186C109.095 551.463 111.413 552.652 113.37 554.62C111.866 557.225 110.575 560.048 109.521 563.037C109.028 563.204 108.545 563.424 108.078 563.694C107.798 563.864 108.102 564.449 108.289 564.436C108.553 564.437 108.816 564.456 109.078 564.495C106.899 571.061 105.585 578.533 104.95 586.26C104.825 582.387 104.334 578.48 103.165 575.479C103.055 575.197 102.684 575.151 102.843 575.584C103.68 578.093 103.502 581.999 103.468 584.777C103.414 587.358 103.23 589.931 102.92 592.478V592.472ZM108.934 594.75H110.3H108.934ZM110.512 594.75C111.691 594.75 112.6 594.789 112.87 594.789C112.114 594.789 111.34 594.75 110.531 594.75H110.512ZM129.723 590.115H130.33H129.723ZM159.972 588.309C159.872 588.024 159.727 587.774 159.546 587.577C159.365 587.38 159.154 587.242 158.928 587.173C158.661 587.152 158.395 587.223 158.154 587.379C157.913 587.535 157.704 587.771 157.547 588.066C157.672 587.547 157.699 586.994 157.624 586.457C157.538 585.981 157.358 585.545 157.103 585.198C156.849 584.851 156.53 584.605 156.181 584.488C154.737 583.897 153.097 585.308 152.76 587.771C152.975 583.322 153.642 578.936 154.742 574.737C157.528 577.58 158.88 583.148 159.991 588.309H159.972ZM142.565 590.279C143.796 590.279 145.086 590.279 146.375 590.279H142.565ZM146.39 590.279C148.035 590.279 149.575 590.279 150.72 590.279C149.276 590.279 147.833 590.318 146.39 590.318V590.279ZM174.285 567.83C174.343 568.224 174.367 568.638 174.401 569.032C174.398 568.895 174.378 568.759 174.343 568.631C174.285 568.047 174.208 567.482 174.141 566.904C174.525 564.651 175.028 562.439 175.647 560.286C176.262 560.546 176.865 560.86 177.451 561.225C177.319 564.466 177.48 567.716 177.932 570.903C176.862 570.899 175.8 571.173 174.805 571.711C174.622 570.391 174.487 569.071 174.285 567.83ZM173.963 565.618C174.024 565.431 174.077 565.241 174.122 565.046C174.083 565.243 174.03 565.467 173.997 565.663C173.997 565.611 173.997 565.598 173.963 565.585V565.618ZM203.018 561.678C203.153 563.392 203.187 565.125 203.288 566.839C202.831 568.447 202.412 570.122 202.042 571.77C201.777 573.011 201.527 574.396 201.315 575.749C201.089 574.98 200.877 574.219 200.632 573.477C200.876 568.906 201.632 564.413 202.874 560.155C202.917 560.654 202.975 561.159 203.018 561.665V561.678ZM182.094 584.54C182.046 581.848 182.094 579.064 182.214 576.307C182.526 576.607 182.826 576.929 183.114 577.272C182.565 579.627 182.222 582.062 182.094 584.527V584.54ZM196.932 581.041C196.841 580.351 196.807 579.662 196.73 578.979C196.942 580.089 197.187 581.172 197.355 582.295C197.245 581.848 197.076 581.461 196.932 581.028V581.041ZM182.44 572.472C182.575 570.634 182.768 568.835 183.003 567.049C183.709 568.091 184.371 569.187 184.986 570.332C184.63 571.441 184.312 572.59 183.99 573.759C183.499 573.271 182.981 572.836 182.44 572.459V572.472ZM186.155 572.65C186.66 573.713 187.141 574.797 187.598 575.932C187.641 576.747 187.69 577.561 187.709 578.388C187.136 577.493 186.531 576.639 185.895 575.827C185.953 574.751 186.02 573.693 186.155 572.636V572.65ZM192.299 563.989C192.097 565.565 191.938 567.167 191.818 568.789C190.442 566.219 188.875 563.852 187.141 561.724C186.905 561.425 186.657 561.142 186.4 560.877C185.985 559.895 185.521 558.954 185.01 558.06C184.918 557.909 184.62 557.87 184.74 558.198C184.885 558.645 185.01 559.124 185.159 559.577L184.471 558.986C185.029 556.687 185.731 554.457 186.569 552.322C188.754 555.941 190.674 559.844 192.299 563.976V563.989ZM175.286 560.109L175.243 560.22C175.252 560.182 175.263 560.145 175.277 560.109H175.286ZM178.033 570.562C178.015 570.605 178.001 570.652 177.99 570.699C177.932 570.128 177.908 569.511 177.865 568.927C177.908 569.465 177.966 570.004 178.033 570.548V570.562ZM202.715 558.54C201.255 561.956 200.09 565.591 199.241 569.373C198.871 568.349 198.51 567.285 198.096 566.307C197.484 564.786 196.814 563.308 196.09 561.882C196.441 553.646 197.395 545.479 198.938 537.503C200.824 544.273 202.092 551.334 202.715 558.526V558.54ZM174.276 559.8C174.021 560.385 173.737 560.943 173.467 561.566C173.727 560.956 174.006 560.385 174.266 559.8H174.276ZM169.946 566.504C170.032 567.469 170.124 568.474 170.215 569.432C168.93 573.435 168.061 577.662 167.631 581.993C167.813 576.7 168.599 571.479 169.96 566.517L169.946 566.504ZM169.282 567.712C169.464 567.003 169.662 566.281 169.864 565.578C169.859 565.615 169.859 565.653 169.864 565.69C169.691 566.353 169.479 567.009 169.296 567.699L169.282 567.712ZM167.838 584.363C167.838 583.818 167.954 583.28 167.983 582.741C167.987 583.266 167.882 583.805 167.872 584.35L167.838 584.363ZM169.763 572.544C169.618 573.149 169.45 573.753 169.306 574.357C169.464 573.739 169.633 573.155 169.777 572.551L169.763 572.544ZM168.699 577.41C168.574 578.033 168.44 578.644 168.353 579.268C168.454 578.651 168.594 578.06 168.714 577.416L168.699 577.41ZM233.065 589.773C233.065 589.813 233.065 589.859 233.065 589.898C233.065 589.937 233.065 589.813 233.065 589.773ZM221.291 579.859C221.21 580.739 221.19 581.645 221.142 582.544C220.955 582.413 220.753 582.275 220.56 582.17C220.776 581.381 221.023 580.61 221.301 579.859H221.291ZM233.021 566.176C233.098 565.952 232.819 565.663 232.718 565.834C231.719 567.518 230.841 569.33 230.096 571.244C229.937 570.652 229.752 570.073 229.543 569.511C229.432 569.222 229.062 569.176 229.22 569.629C229.461 570.474 229.623 571.356 229.702 572.256C229.295 573.353 228.929 574.477 228.605 575.624C228.569 571.801 228.755 567.981 229.163 564.199C229.694 559.609 230.498 555.085 231.568 550.674C232.699 554.818 233.534 559.101 234.061 563.464C232.884 568.279 232.05 573.237 231.568 578.27C231.482 578.624 231.357 578.926 231.28 579.274C231.196 577.469 230.999 575.677 230.693 573.917C231.287 571.239 232.07 568.647 233.031 566.176H233.021ZM234.826 581.934V581.861C234.936 581.389 235.085 580.982 235.186 580.548C235.071 580.962 234.946 581.448 234.835 581.927L234.826 581.934ZM221.782 575.315C221.258 576.274 220.729 577.213 220.247 578.23C220.17 575.873 220.17 573.523 220.214 571.185C221.401 567.915 222.782 564.781 224.342 561.816C223.193 566.198 222.339 570.715 221.792 575.309L221.782 575.315ZM215.427 589.261H215.773C215.479 590.161 215.143 591.001 214.921 591.887C215.051 590.994 215.287 590.154 215.436 589.255L215.427 589.261ZM220.608 583.096C220.762 583.28 220.94 583.47 221.089 583.667C221.041 584.816 220.955 585.926 220.931 587.068C220.772 585.748 220.729 584.429 220.618 583.089L220.608 583.096ZM223.625 588.795L221.142 588.69C221.59 588.716 222.557 588.742 223.635 588.788L223.625 588.795ZM226.314 588.9C226.112 588.9 225.934 588.9 225.751 588.867C225.944 588.874 226.122 588.893 226.329 588.893L226.314 588.9ZM233.291 592.242C233.291 591.704 233.392 591.185 233.435 590.646C233.401 591.178 233.32 591.697 233.3 592.235L233.291 592.242ZM240.286 581.08C240.728 576.202 241.587 571.411 242.846 566.806C242.516 570.857 242.641 574.953 243.216 578.953C242.379 582.287 241.806 585.734 241.508 589.235C241.374 589.235 241.229 589.235 241.071 589.235C240.878 586.477 240.623 583.785 240.282 581.08H240.286ZM243.115 577.022C243.168 577.567 243.226 578.112 243.284 578.651C243.27 578.693 243.259 578.737 243.25 578.782C243.192 578.198 243.168 577.607 243.125 577.022H243.115ZM235.591 577.528C235.388 578.263 235.162 579.025 234.936 579.813C235.037 578.158 235.153 576.53 235.297 574.875C235.319 574.806 235.334 574.733 235.34 574.659C235.441 575.611 235.518 576.563 235.6 577.528H235.591ZM238.314 563.569C238.525 563.241 238.752 562.912 238.978 562.61C238.761 562.919 238.535 563.234 238.323 563.569H238.314ZM173.843 559.662C173.617 560.122 173.448 560.627 173.261 561.1C173.16 560.575 173.059 560.056 172.967 559.564C173.246 559.603 173.525 559.616 173.828 559.662H173.843ZM172.616 557.981C172.808 557.535 173.044 557.095 173.265 556.668C173.044 557.108 172.832 557.561 172.64 558.034L172.616 557.981ZM170.273 547.22C170.643 548.691 170.922 550.24 171.259 551.764C170.932 550.208 170.643 548.658 170.273 547.187V547.22ZM172.996 555.237C173.205 554.912 173.427 554.603 173.66 554.311C173.427 554.593 173.206 554.891 172.996 555.204V555.237ZM174.92 572.669C175.785 572.668 176.646 572.811 177.485 573.096C176.663 576.595 176.155 580.217 175.974 583.884C175.811 580.082 175.397 576.366 174.94 572.636L174.92 572.669ZM224.477 595.052C224.219 595.022 223.961 595.086 223.728 595.239C223.496 595.391 223.297 595.626 223.153 595.919C223.259 595.401 223.273 594.857 223.197 594.33C223.108 593.872 222.931 593.454 222.685 593.12C222.439 592.785 222.133 592.546 221.797 592.426C220.353 591.841 218.756 593.227 218.429 595.709C218.535 593.584 218.745 591.472 219.059 589.386C220.661 589.432 222.254 589.511 223.87 589.563C224.52 591.729 225.075 593.945 225.53 596.201C225.444 595.902 225.304 595.637 225.123 595.431C224.942 595.225 224.727 595.083 224.496 595.019L224.477 595.052ZM225.521 589.602C225.766 589.602 226.002 589.602 226.261 589.642C226.213 590.338 226.16 591.04 226.146 591.736C225.987 590.988 225.761 590.279 225.54 589.57L225.521 589.602ZM229.153 585.21C229.282 583.005 229.507 580.813 229.827 578.644V578.992C229.798 581.62 229.621 584.241 229.297 586.832C229.264 586.274 229.216 585.729 229.172 585.177L229.153 585.21ZM241.119 589.918H241.455C241.412 590.574 241.287 591.145 241.263 591.782C241.244 591.113 241.162 590.509 241.138 589.885L241.119 589.918ZM247.522 590.01C247.408 590.808 247.326 591.615 247.277 592.426C247.253 591.625 247.277 590.811 247.277 590.01H247.522ZM237.958 566.281C238.169 565.782 238.439 565.309 238.641 564.816C238.429 565.309 238.16 565.801 237.958 566.313V566.281ZM239.401 563.208C239.988 562.098 240.604 561.008 241.229 559.991C240.623 560.975 240.007 562.065 239.42 563.175L239.401 563.208ZM235.937 557.075C235.836 556.609 235.749 556.117 235.648 555.67C235.749 556.117 235.836 556.59 235.937 557.075ZM185.775 551.199C184.604 553.243 183.529 555.385 182.556 557.614C182.431 557.548 182.33 557.463 182.229 557.397C182.015 553.644 181.972 549.877 182.099 546.117C183.4 547.702 184.634 549.388 185.794 551.166L185.775 551.199ZM177.769 556.163C177.49 556.171 177.212 556.202 176.936 556.255C177.297 555.289 177.644 554.351 178.048 553.464C177.966 554.318 177.875 555.211 177.788 556.13L177.769 556.163ZM177.331 554.029C176.85 554.764 176.431 555.598 175.984 556.412C176.431 555.565 176.879 554.751 177.35 553.996L177.331 554.029ZM174.103 554.836C174.683 553.711 175.299 552.632 175.95 551.599C175.315 552.615 174.706 553.683 174.122 554.804L174.103 554.836ZM169.363 561.921C168.648 563.582 167.998 565.294 167.415 567.049C168.001 565.296 168.651 563.585 169.363 561.921ZM171.687 589.583C172.26 589.583 172.808 589.524 173.347 589.517C172.794 589.53 172.245 589.563 171.687 589.589V589.583ZM173.612 589.497C174.815 589.458 175.767 589.425 176.017 589.386C175.219 589.438 174.42 589.497 173.602 589.497H173.612ZM186.434 588.979C185.992 586.348 185.758 583.661 185.736 580.962C186.504 582.262 187.201 583.635 187.824 585.072C187.858 586.385 187.858 587.666 187.892 588.952L186.434 588.979ZM195.662 597.889H196.369V597.935C196.13 597.939 195.89 597.926 195.652 597.895L195.662 597.889ZM203.894 589.228H203.961C203.961 589.432 203.961 589.622 203.961 589.845C203.952 589.629 203.904 589.438 203.884 589.235L203.894 589.228ZM207.334 598.079H212.145C210.543 598.112 208.931 598.092 207.324 598.086L207.334 598.079ZM212.145 598.079C213.704 598.079 215.128 598.079 216.249 598.04C214.892 598.079 213.512 598.086 212.145 598.086V598.079ZM229.682 597.692C229.301 595.059 229.098 592.384 229.076 589.701H229.326V589.793C229.366 589.801 229.407 589.801 229.447 589.793C229.512 589.79 229.577 589.774 229.639 589.747C229.411 592.398 229.448 595.08 229.75 597.718L229.682 597.692ZM251.564 596.805C250.404 589.964 250.585 582.826 252.088 576.11C252.954 582.774 252.844 589.898 253.012 596.74L251.564 596.805ZM272.657 596.313C273.354 596.313 275.062 596.313 276.717 596.313C275.404 596.332 274.018 596.306 272.661 596.319L272.657 596.313ZM276.953 596.313C278.396 596.313 279.801 596.313 280.321 596.313C279.214 596.339 278.079 596.339 276.958 596.339L276.953 596.313ZM309.67 564.212C308.991 565.061 308.348 565.962 307.745 566.911C306.168 565.578 304.356 564.85 302.501 564.803C303.151 562.252 303.926 559.762 304.82 557.351C306.672 559.322 308.309 561.641 309.684 564.239L309.67 564.212ZM301.972 567.009C303.473 567.539 304.894 568.428 306.167 569.636C302.924 575.545 300.523 582.945 299.143 590.968C299.523 582.754 300.283 574.56 301.991 567.036L301.972 567.009ZM310.574 565.992C312.085 569.088 313.359 572.389 314.375 575.841C313.014 573.064 311.353 570.585 309.448 568.487C309.819 567.633 310.175 566.78 310.593 566.018L310.574 565.992ZM289.746 596.654C288.399 596.569 287.057 596.523 285.734 596.477C286.436 596.477 288.312 596.569 290.064 596.654H289.727H289.746ZM290.275 596.654C290.463 596.654 290.675 596.654 290.858 596.654C290.665 596.654 290.463 596.654 290.275 596.654ZM293.783 594.625C292.907 587.277 292.875 579.788 293.687 572.426C294.426 565.893 295.729 559.501 297.569 553.385C299.989 553.665 302.307 554.844 304.271 556.793C302.758 559.388 301.467 562.21 300.422 565.204C299.927 565.339 299.444 565.544 298.979 565.814C298.71 565.992 298.979 566.57 299.181 566.556C299.45 566.556 299.72 566.556 299.965 566.602C297.791 573.541 296.397 580.888 295.828 588.394C295.727 584.514 295.241 580.614 294.076 577.607C293.951 577.324 293.595 577.265 293.74 577.705C294.557 580.213 294.413 584.12 294.355 586.897C294.307 589.499 294.122 592.093 293.802 594.658L293.783 594.625ZM301.389 596.897C302.563 596.897 303.497 596.937 303.766 596.937C302.987 596.956 302.193 596.956 301.409 596.93L301.389 596.897ZM320.586 592.268C320.812 592.268 320.966 592.268 321.217 592.268H320.586ZM350.844 590.456C350.743 590.172 350.597 589.922 350.416 589.725C350.236 589.527 350.026 589.387 349.8 589.314C349.538 589.29 349.276 589.361 349.039 589.519C348.803 589.677 348.601 589.916 348.453 590.213C348.562 589.69 348.579 589.138 348.501 588.604C348.42 588.124 348.242 587.685 347.987 587.337C347.732 586.989 347.41 586.745 347.058 586.635C345.615 586.024 343.974 587.442 343.613 589.918C343.852 585.486 344.537 581.12 345.648 576.944C348.444 579.747 349.762 585.315 350.864 590.489L350.844 590.456ZM332.889 592.426H337.262C335.814 592.478 334.366 592.459 332.908 592.459L332.889 592.426ZM337.277 592.426H341.482L337.277 592.465V592.426ZM374.237 578.106C373.531 580.872 373.098 583.753 372.947 586.674C372.841 581.498 373.059 576.318 373.597 571.192C374.295 571.865 374.94 572.635 375.521 573.49C375.074 575.013 374.636 576.543 374.256 578.132L374.237 578.106ZM374.092 567.515C374.515 564.617 375.115 561.773 375.887 559.012C376.931 561.164 377.844 563.428 378.62 565.782C378.565 565.921 378.502 566.055 378.432 566.182C377.754 564.043 376.885 562.028 375.844 560.181C375.776 560.043 375.473 560.023 375.574 560.332C376.448 562.796 377.094 565.399 377.499 568.08C377.273 568.638 377.071 569.248 376.849 569.826C376.063 568.814 375.13 568.036 374.112 567.541L374.092 567.515ZM377.816 570.141C377.869 570.542 377.903 570.949 377.951 571.336C377.859 571.216 377.773 571.089 377.691 570.956C377.754 570.706 377.788 570.411 377.836 570.148L377.816 570.141ZM380.193 573.424C379.822 571.24 379.319 569.101 378.692 567.029C378.745 566.848 378.804 566.67 378.87 566.497C380.163 570.449 381.253 574.519 382.132 578.677C382.132 579.235 382.098 579.793 382.074 580.358C381.627 579.045 381.155 577.83 380.684 576.674C380.525 575.611 380.405 574.495 380.212 573.444L380.193 573.424ZM386.929 565.447C387.704 569.386 388.425 573.451 388.993 577.633C388.926 578.244 388.873 578.874 388.815 579.504C388.242 576.786 387.617 574.14 386.919 571.625C386.871 569.583 386.886 567.508 386.939 565.467L386.929 565.447ZM373.159 560.319C373.157 560.293 373.157 560.266 373.159 560.24V560.201C373.044 558.152 372.957 556.15 372.923 554.134C373.591 554.961 374.203 555.868 374.752 556.846C374.088 558.211 373.462 559.623 372.866 561.067C372.957 560.838 373.072 560.608 373.169 560.339L373.159 560.319ZM398.024 562.289C398.219 560.912 398.47 559.551 398.774 558.211C398.851 557.916 398.539 557.555 398.428 557.771C398.226 558.198 398.043 558.631 397.831 559.085C397.437 553.313 396.903 547.601 396.239 542.013C398.885 547.575 400.367 554.863 401.016 561.928C400.477 566.832 400.02 571.776 399.616 576.753C399.347 579.964 399.135 583.214 398.885 586.471C398.832 587.226 398.774 588.007 398.731 588.769C398.68 588.916 398.635 589.067 398.596 589.222C398.664 585.02 398.673 580.837 398.596 576.622C398.524 571.829 398.303 567.055 398.033 562.321L398.024 562.289ZM406.131 590.666H406.511C406.384 590.676 406.257 590.676 406.131 590.666ZM368.911 572.709C368.911 572.755 368.911 572.781 368.863 572.827C368.795 572.288 368.786 571.743 368.742 571.218C368.776 571.731 368.835 572.24 368.92 572.741L368.911 572.709ZM406.02 591.395C406.299 591.395 406.578 591.395 406.848 591.395C406.179 594.039 405.622 596.734 405.178 599.464C405.399 596.772 405.717 594.094 406.03 591.428L406.02 591.395ZM411.144 580.758C411.73 578.192 412.439 575.68 413.266 573.24C412.43 578.315 411.947 583.485 411.822 588.683C411.801 588.627 411.775 588.574 411.745 588.526C411.46 585.961 411.263 583.382 411.154 580.791L411.144 580.758ZM368.805 573.011C367.733 577.195 367.085 581.56 366.88 585.985C366.579 580.595 366.015 575.238 365.192 569.951C365.235 570.338 365.259 570.732 365.317 571.139C365.287 571.007 365.267 570.87 365.259 570.732C365.192 570.141 365.124 569.596 365.033 569.012C365.797 564.269 367.128 559.731 368.973 555.578C368.213 561.31 367.944 567.338 368.819 573.043L368.805 573.011ZM364.893 567.83C364.927 567.6 364.985 567.417 365.028 567.206C364.961 567.377 364.893 567.587 364.893 567.83ZM358.793 586.556C358.817 586.011 358.894 585.479 358.927 584.941C358.87 585.446 358.793 585.978 358.769 586.523L358.793 586.556ZM366.491 561.192C366.39 561.612 366.269 562.006 366.154 562.42C366.24 561.973 366.361 561.58 366.462 561.159L366.491 561.192ZM364.393 563.759C364.84 562.702 365.302 561.678 365.798 560.693C365.273 561.645 364.812 562.669 364.364 563.727L364.393 563.759ZM360.222 576.576C360.38 575.965 360.525 575.374 360.703 574.783C360.496 575.328 360.342 575.932 360.193 576.543L360.222 576.576ZM361.141 571.612C359.85 575.62 358.976 579.854 358.542 584.192C358.721 578.893 359.507 573.665 360.871 568.697C360.934 569.629 361.011 570.614 361.112 571.579L361.141 571.612ZM359.601 579.649C359.5 580.266 359.346 580.857 359.269 581.494C359.332 580.824 359.485 580.233 359.601 579.649ZM360.198 569.912C360.366 569.196 360.578 568.474 360.78 567.778V567.83C360.587 568.533 360.352 569.183 360.183 569.879L360.198 569.912ZM361.16 549.387C361.516 550.844 361.809 552.328 362.122 553.799C361.809 552.295 361.525 550.812 361.16 549.354V549.387ZM363.883 557.325C364.095 557.023 364.311 556.708 364.523 556.432C364.311 556.734 364.095 557.049 363.883 557.325ZM366.183 559.754C366.813 558.495 367.5 557.289 368.237 556.143C367.499 557.297 366.813 558.512 366.183 559.78V559.754ZM363.503 560.096C363.715 559.603 363.984 559.144 364.186 558.651C363.96 559.144 363.705 559.623 363.503 560.135V560.096ZM364.985 556.997C365.577 555.861 366.183 554.751 366.842 553.714C366.183 554.777 365.577 555.887 364.985 557.023V556.997ZM360.25 564.107C359.53 565.746 358.888 567.446 358.326 569.196C358.888 567.455 359.531 565.764 360.25 564.134V564.107ZM361.694 591.769C361.939 591.769 362.209 591.769 362.454 591.769C362.213 591.789 361.944 591.789 361.699 591.795L361.694 591.769ZM362.565 591.723C362.8 591.723 363.046 591.723 363.262 591.723C363.027 591.723 362.781 591.723 362.565 591.723ZM364.489 591.644L366.207 591.585L364.489 591.644ZM374.381 591.251C374.92 591.251 375.377 591.211 375.772 591.205C375.324 591.237 374.838 591.251 374.381 591.277V591.251ZM375.882 591.205C376.479 591.159 376.917 591.152 376.984 591.132L375.882 591.205ZM377.326 591.132C376.462 586.075 376.325 580.838 376.922 575.709C377.46 576.707 377.985 577.83 378.504 578.992C378.634 583.037 378.682 587.114 378.783 591.106C378.307 591.113 377.802 591.152 377.306 591.159L377.326 591.132ZM395.281 591.362H395.594C395.594 592.859 395.642 594.363 395.642 595.847C395.541 594.376 395.387 592.905 395.262 591.388L395.281 591.362ZM416.119 590.994L412.049 590.837C412.775 590.837 414.685 590.942 416.465 591.008C416.335 591.034 416.225 591.034 416.1 591.021L416.119 590.994ZM416.658 591.027C417.047 591.027 417.418 591.027 417.798 591.067L416.658 591.027Z" fill="#026228"/>
</g>
</g>
</g>
</g>
<defs>
<radialGradient id="paint0_diamond_28_25" cx="0" cy="0" r="1" gradientUnits="userSpaceOnUse" gradientTransform="translate(179.464 294.822) rotate(90.084) scale(294.822 178.536)">
<stop stop-color="white"/>
<stop offset="1" stop-color="#77AF11"/>
</radialGradient>
<radialGradient id="paint1_diamond_28_25" cx="0" cy="0" r="1" gradientUnits="userSpaceOnUse" gradientTransform="translate(179.464 294.822) rotate(90.084) scale(294.822 178.536)">
<stop stop-color="white"/>
<stop offset="1" stop-color="#77AF11"/>
</radialGradient>
<clipPath id="clip0_28_25">
<rect width="185.885" height="527.394" fill="white" transform="translate(78.7404 51.0103)"/>
</clipPath>
</defs>
</svg>
