<svg width="249" height="189" viewBox="0 0 249 189" fill="none" xmlns="http://www.w3.org/2000/svg">
<g id="chat-comic">
<path id="Vector" d="M230.469 125.853C218.999 127.425 151.578 130.791 96.9408 133.302C81.2743 162.06 38.2522 187.529 38.2522 187.529C44.094 179.818 53.1331 149.946 57.3871 135.071C43.448 135.666 32.7773 136.103 27.7404 136.292C3.03747 137.233 3.80943 120.301 3.80943 120.301C3.80943 120.301 4.24195 52.8503 2.78836 27.5182C1.33476 2.1862 20.2862 5.26149 20.2862 5.26149C20.2862 5.26149 189.486 4.37539 212.117 1.6485C234.748 -1.07838 235.511 18.7149 235.511 18.7149L246.571 100.157C246.571 100.157 248.725 123.346 230.469 125.853Z" fill="white"/>
<path id="Vector_2" d="M246.809 79.971C244.728 64.6778 242.65 49.3836 240.573 34.0886C239.664 27.3893 239.355 20.1908 237.578 13.6342C234.072 0.691079 221.32 -0.732717 209.974 0.2494C199.232 1.17939 188.394 1.3001 177.622 1.58267C144.195 2.46877 110.754 2.81717 77.3214 3.14363C59.1574 3.32652 40.9989 3.46917 22.8458 3.57159C20.0071 3.58805 15.2411 3.5469 11.0035 5.11061C-1.25484 9.62615 -0.198182 24.2399 0.22065 34.832C1.34027 63.0199 1.0939 91.2928 0.943342 119.5C0.811943 144.352 37.2339 138.056 54.105 136.882C49.4513 153.435 45.3806 173.289 35.5723 187.439C33.949 189.782 39.2186 188.926 40.0453 188.432C49.8263 182.605 59.0543 175.774 67.8963 168.619C75.4538 162.521 82.4781 155.787 88.8927 148.491C91.8543 145.072 94.5859 141.46 97.0695 137.677C100.25 132.898 107.291 134.451 112.613 134.201C151.271 132.385 190.841 132.448 229.289 127.59C229.558 127.577 229.826 127.545 230.091 127.494C230.317 127.463 230.54 127.411 230.756 127.34C254.304 122.287 249.223 97.8055 246.809 79.971ZM230.847 124.207C192.144 129.162 152.306 129.071 113.374 130.907C108.115 131.156 101.622 130.443 96.5412 131.806C93.8667 132.525 93.0536 135.337 91.7178 137.499C85.7939 147.073 77.5103 155.136 69.1747 162.584C61.4776 169.456 53.2949 175.761 44.6908 181.45C52.3338 167.303 55.9692 149.627 60.2615 134.725C60.5353 133.771 59.1665 133.354 58.4904 133.392C44.5101 133.985 10.5655 141.556 6.83711 121.574C5.23295 112.951 6.74677 102.881 6.7413 94.1705C6.7413 75.7901 6.64822 57.385 6.14727 39.0019C5.80508 26.4566 3.19628 7.02546 19.3035 6.94042C73.0126 6.66608 126.746 6.31219 180.436 4.80609C187.212 4.6168 193.984 4.38362 200.757 4.06539C208.148 3.71699 216.544 1.87072 223.478 4.77317C233.516 8.98421 233.198 23.5349 234.427 32.5742C236.926 50.993 239.427 69.4128 241.931 87.8334C243.551 99.8191 247.762 120.915 230.847 124.207Z" fill="#010101"/>
</g>
</svg>
