<svg width="249" height="189" viewBox="0 0 249 189" fill="none" xmlns="http://www.w3.org/2000/svg">
<g id="chat-comic-1">
<path id="Vector" d="M18.5308 125.853C30.0008 127.425 97.4219 130.791 152.059 133.302C167.725 162.06 210.748 187.529 210.748 187.529C204.906 179.818 195.867 149.946 191.613 135.071C205.552 135.666 216.222 136.103 221.259 136.292C245.962 137.233 245.19 120.301 245.19 120.301C245.19 120.301 244.758 52.8503 246.211 27.5182C247.665 2.1862 228.714 5.26149 228.714 5.26149C228.714 5.26149 59.5134 4.37539 36.8828 1.6485C14.2521 -1.07838 13.4884 18.7149 13.4884 18.7149L2.429 100.157C2.429 100.157 0.274616 123.346 18.5308 125.853Z" fill="white"/>
<path id="Vector_2" d="M2.19081 79.971C4.27128 64.6778 6.34994 49.3836 8.42677 34.0886C9.3356 27.3893 9.64492 20.1908 11.4215 13.6342C14.9282 0.691079 27.6794 -0.732717 39.0262 0.2494C49.768 1.17939 60.6056 1.3001 71.3775 1.58267C104.805 2.46877 138.246 2.81717 171.678 3.14363C189.842 3.32652 208.001 3.46917 226.154 3.57159C228.993 3.58805 233.759 3.5469 237.996 5.11061C250.255 9.62615 249.198 24.2399 248.779 34.832C247.659 63.0199 247.906 91.2928 248.056 119.5C248.188 144.352 211.766 138.056 194.895 136.882C199.548 153.435 203.619 173.289 213.427 187.439C215.051 189.782 209.781 188.926 208.954 188.432C199.173 182.605 189.945 175.774 181.103 168.619C173.546 162.521 166.522 155.787 160.107 148.491C157.145 145.072 154.414 141.46 151.93 137.677C148.749 132.898 141.709 134.451 136.387 134.201C97.7284 132.385 58.1583 132.448 19.7106 127.59C19.4413 127.577 19.1733 127.545 18.9085 127.494C18.6826 127.463 18.46 127.411 18.2433 127.34C-5.30437 122.287 -0.223638 97.8055 2.19081 79.971ZM18.153 124.207C56.8553 129.162 96.6937 129.071 135.626 130.907C140.885 131.156 147.378 130.443 152.459 131.806C155.133 132.525 155.946 135.337 157.282 137.499C163.206 147.073 171.489 155.136 179.825 162.584C187.522 169.456 195.705 175.761 204.309 181.45C196.666 167.303 193.031 149.627 188.738 134.725C188.464 133.771 189.833 133.354 190.509 133.392C204.49 133.985 238.434 141.556 242.163 121.574C243.767 112.951 242.253 102.881 242.258 94.1705C242.258 75.7901 242.352 57.385 242.852 39.0019C243.195 26.4566 245.803 7.02546 229.696 6.94042C175.987 6.66608 122.253 6.31219 68.5634 4.80609C61.7882 4.6168 55.0157 4.38362 48.2432 4.06539C40.852 3.71699 32.4562 1.87072 25.5222 4.77317C15.4839 8.98421 15.8015 23.5349 14.5724 32.5742C12.074 50.993 9.57285 69.4128 7.06898 87.8334C5.4484 99.8191 1.23817 120.915 18.153 124.207Z" fill="#010101"/>
</g>
</svg>
