<svg width="278" height="143" viewBox="0 0 278 143" fill="none" xmlns="http://www.w3.org/2000/svg">
<g id="could-two">
<path id="Vector" d="M0.0161623 87.726C0.048379 88.7339 0.124894 89.782 0.261816 90.8503C0.704796 94.3415 6.20984 101.707 18.9476 106.637C34.2505 112.551 53.2021 115.026 66.27 105.117C65.2753 113.652 74.8155 119.162 82.7811 122.291C91.2702 125.6 99.9325 128.955 109.018 129.346C118.103 129.737 127.868 126.628 133.18 119.239C140.667 132.292 159.759 136.896 172.34 128.692C180.06 139.771 195.423 144.818 208.181 140.428C220.939 136.038 230.012 122.67 229.335 109.181C236.427 113.063 246.624 106.415 245.943 98.3406C252.886 104.662 264.87 103.178 271.229 96.2765C277.588 89.3749 278.502 78.5144 274.886 69.8511C272.47 64.0218 268.237 59.1358 263.207 55.2899C263.388 53.1399 263.216 50.9748 262.7 48.8801C262.19 46.812 261.316 44.8516 260.118 43.0911C255.399 36.2378 245.77 33.2546 238.002 36.2378C241.127 26.5021 233.443 14.8717 223.279 13.9607C213.44 13.0617 204.11 22.4265 204.697 32.2145C204.214 27.7317 200.554 24.3091 196.857 21.6645C188.198 15.4724 180.881 21.1082 179.194 21.7855C176.701 9.76001 165.353 0.532285 148.713 1.01605C132.073 1.49981 121.526 12.5336 120.749 23.4666C116.782 17.8227 108.168 16.061 102.304 19.7335C96.441 23.4061 94.2744 31.9324 97.6532 37.9794C87.7666 28.5904 72.3751 25.4822 59.6212 30.3198C46.8674 35.1574 37.3876 47.6546 36.1795 61.2482C24.7466 57.7329 -0.676499 64.6991 0.0161623 87.726Z" fill="white"/>
<path id="Vector_2" d="M186.628 87.7342C182.444 87.3714 178.215 88.6735 174.647 90.8907C174.007 91.2939 173.314 91.7333 172.565 91.6446C171.707 91.5478 171.099 90.798 170.507 90.1651C167.286 86.7062 162.071 85.6621 157.375 86.3313C152.679 87.0005 148.346 89.1532 144.086 91.2576C144.742 86.5409 145.576 81.4493 148.999 78.1396C151.963 75.2693 156.513 74.3421 160.516 75.3177C164.519 76.2933 167.962 79.0588 170.29 82.4652C170.983 83.4811 171.768 84.6704 172.988 84.7671C173.753 84.8276 174.47 84.4245 175.151 84.0697C178.261 82.444 181.709 81.5732 185.217 81.5277C188.725 81.4822 192.195 82.2632 195.346 83.8076C198.497 85.352 201.241 87.6166 203.357 90.4185C205.472 93.2203 206.9 96.481 207.524 99.937C206.816 95.942 190.284 88.0527 186.628 87.7342Z" fill="white"/>
<path id="Vector_3" d="M274.894 69.8512C272.478 64.0219 268.245 59.1359 263.215 55.29C256.124 50.4524 249.773 51.0773 244.397 54.1209C260.477 60.5993 257.847 78.188 257.847 78.188C253.385 65.1385 246.39 61.2564 240.245 59.3012C233.548 57.1646 226.597 58.9303 222.594 63.2922C219.618 66.5173 219.259 71.625 220.54 75.8821C209.353 63.9533 197.545 63.3204 192.507 66.7954C203.707 69.2344 206.337 79.6675 206.337 79.6675C177.382 65.5094 161.124 80.0706 161.124 80.0706C161.124 80.0706 162.204 65.711 181.868 65.1103C180.797 54.907 173.761 43.9216 161.781 43.1758C146.989 42.2648 134.775 52.8148 135.363 68.6418C130.075 67.4606 124.586 73.2214 126.004 78.454C122.339 75.5595 118.445 72.5481 113.83 71.7983C109.215 71.0485 103.738 73.4633 102.784 78.0469C96.3202 78.6879 91.0165 85.138 91.6487 91.6083C82.8938 83.3078 68.6218 81.5945 58.1835 87.5649C63.2174 72.4393 82.6039 64.0783 97.0571 70.7905C96.7229 60.1397 86.184 50.9563 75.6128 52.069C65.0417 53.1816 56.6613 64.4008 58.5742 74.8783C50.9911 72.4917 42.3409 80.5866 44.2256 88.3187C41.2294 78.4137 29.8368 75.9546 23.1357 77.7768C32.5591 80.2601 36.3728 91.7454 35.1727 99.7758C32.1081 92.4952 22.6645 77.4583 0.0161057 87.714C0.0483224 88.7219 0.124838 89.77 0.261759 90.8383C0.70474 94.3294 6.20979 101.695 18.9475 106.625C34.2505 112.539 53.202 115.014 66.27 105.105C65.2753 113.64 74.8155 119.15 82.7811 122.279C91.2702 125.588 99.9325 128.942 109.018 129.334C118.103 129.725 127.868 126.616 133.18 119.227C140.667 132.28 159.759 136.884 172.34 128.68C180.06 139.759 195.423 144.806 208.181 140.416C220.939 136.026 230.012 122.658 229.335 109.169C236.427 113.051 246.624 106.403 245.943 98.3285C252.886 104.65 264.87 103.166 271.229 96.2645C277.588 89.3628 278.51 78.5145 274.894 69.8512Z" fill="#CCE1F5"/>
</g>
</svg>
