<svg width="436" height="104" viewBox="0 0 436 104" fill="none" xmlns="http://www.w3.org/2000/svg">
<g id="could-three">
<path id="Vector" d="M436 75.6398H0C25.4895 56.9159 61.5892 54.0696 89.6636 68.6264C94.2221 62.4316 104.986 60.9062 111.537 64.943C112.913 60.3123 115.405 56.0874 118.795 52.6369C122.185 49.1865 126.371 46.6153 130.987 45.1476C135.604 43.6799 140.51 43.3603 145.278 44.2167C150.047 45.073 154.533 47.0794 158.345 50.0607C166.916 20.0587 197.291 -1.81843 228.524 0.134887C259.757 2.0882 287.873 27.7185 292.619 58.5483C295.047 55.0727 298.331 52.2773 302.155 50.43C305.979 48.5827 310.215 47.7454 314.457 47.9984C318.699 48.2514 322.804 49.5863 326.38 51.875C329.956 54.1637 332.881 57.3295 334.877 61.069C337.037 59.5854 339.188 60.4039 341.671 61.2318C342.914 61.6572 344.043 62.3602 344.972 63.2872C345.902 64.2141 346.606 65.3404 347.032 66.5801C375.311 56.7484 409.689 61.3806 436 75.6398Z" fill="white"/>
<path id="Vector_2" d="M346.565 83.2344H98.5753C108.556 71.8308 125.987 68.8171 140.521 73.1702C144.203 68.0544 152.41 67.0173 157.262 71.0448C157.072 68.3351 157.679 65.629 159.01 63.2583C160.34 60.8877 162.336 58.9558 164.752 57.6995C167.168 56.4432 169.9 55.9173 172.611 56.1862C175.323 56.4551 177.897 57.5071 180.018 59.2133C190.446 47.2469 206.543 41.4893 222.272 43.8147C238 46.1401 252.236 56.8368 258.763 71.2866C265.515 64.5431 279.969 66.5801 285.685 74.2213C305.109 67.8125 329.847 71.482 346.565 83.2344Z" fill="#E1F3F7"/>
<path id="Vector_3" d="M262.692 104H158.531C162.544 98.061 170.938 94.4427 177.881 96.2937C178.021 92.2662 183.13 89.3548 186.681 91.2755C187.637 81.9415 195.77 73.8352 205.139 72.8865C214.508 71.9377 224.11 78.2348 226.937 87.1875C230.427 83.932 236.801 83.6111 241.122 85.6249C243.274 86.6707 245.075 88.3168 246.307 90.3635C247.538 92.4101 248.147 94.7691 248.06 97.1541C250.551 96.0658 254.125 96.8378 256.654 97.8424C259.183 98.847 261.633 101.484 262.692 104Z" fill="#ABDEE3"/>
<path id="Vector_4" d="M194.836 57.1995C193.492 57.2743 192.19 57.6916 191.053 58.4114C189.917 59.1312 188.985 60.1295 188.346 61.3108C186.127 59.3067 183.202 58.2592 180.211 58.3969C177.22 58.5345 174.404 59.8462 172.38 62.0456C170.322 64.2129 169.422 67.0126 169.66 69.2264C170.963 67.3936 172.657 65.8706 174.619 64.7663C176.507 63.6134 178.686 63.0243 180.899 63.0688C183.112 63.1133 185.266 63.7896 187.105 65.0174C189.02 66.2006 190.651 67.7882 191.883 69.6682C192.205 67.4637 191.416 64.6314 189.452 62.3805C189.387 62.306 189.312 62.2363 189.242 62.1619C190.987 60.9899 192.975 60.0644 195.004 59.9946C196.319 59.9024 197.633 60.1795 198.798 60.7946C199.967 61.4243 200.936 62.3665 201.597 63.5152C201.714 62.7215 201.639 61.9114 201.38 61.152C201.12 60.3927 200.683 59.7058 200.104 59.1482C199.416 58.4679 198.59 57.9421 197.682 57.606C196.773 57.2699 195.803 57.1313 194.836 57.1995Z" fill="#ABDEE3"/>
<path id="Vector_5" d="M267.946 73.2307C266.733 71.7933 265.043 70.8392 263.182 70.5428C261.322 70.2465 259.417 70.6277 257.816 71.6169C256.81 72.2204 255.978 73.0747 255.404 74.0957C253.913 72.893 252.075 72.1987 250.159 72.115C248.243 72.0313 246.351 72.5625 244.761 73.6306C244.616 71.2985 243.783 69.0611 242.367 67.1986C240.414 64.5419 237.576 62.6643 234.361 61.9018C231.146 61.1392 227.764 61.5413 224.819 63.0362C222.327 64.2306 220.349 66.2794 219.248 68.8078C223.387 66.6406 228.58 65.5941 233.218 66.6917C237.543 67.7242 241.425 70.6263 244.131 74.0818C243.888 74.2696 243.656 74.4715 243.436 74.6864C242.076 75.959 241.244 77.6928 241.103 79.5464C243.245 77.2629 246.366 75.5514 249.529 75.4165C252.693 75.2816 255.94 76.7513 258.259 78.8534C257.991 77.2087 257.168 75.7044 255.926 74.5887C258.004 73.458 260.386 73.0104 262.734 73.3097C265.407 73.7423 267.894 75.4305 269.569 77.4954C269.565 75.9245 268.988 74.4086 267.946 73.2307Z" fill="#ABDEE3"/>
<path id="Vector_6" d="M169.636 47.898C166.812 46.3648 163.566 45.784 160.384 46.2426C157.201 46.7011 154.253 48.1744 151.981 50.442C150.032 52.3242 148.763 54.797 148.374 57.4739C151.775 54.3393 156.306 51.7489 161.084 51.0605C165.862 50.3722 170.943 51.5768 175.081 53.6185C173.949 51.165 172.035 49.1537 169.636 47.898Z" fill="#E1F3F7"/>
<path id="Vector_7" d="M213.938 31.653C212.508 31.6671 211.094 31.9478 209.767 32.4808C208.697 29.7133 206.874 27.2976 204.504 25.5047C201.009 22.7944 196.655 21.4232 192.232 21.6399C187.81 21.8567 183.612 23.6471 180.4 26.686C177.395 29.4764 175.734 33.0994 175.478 36.2154C177.774 33.977 180.412 32.1153 183.293 30.6996C186.167 29.2217 189.324 28.3741 192.554 28.2136C195.784 28.0532 199.01 28.5837 202.017 29.7694C204.288 30.6186 206.446 31.7433 208.442 33.118C207.754 33.4914 207.108 33.9373 206.515 34.4481C204.761 35.9018 203.593 37.9382 203.226 40.1824C206.09 37.6106 210.028 35.7456 213.957 35.7224C217.886 35.6991 221.842 37.5362 224.73 40.0801C224.342 37.8349 223.148 35.8068 221.371 34.3737C219.292 32.6224 216.66 31.6588 213.938 31.653Z" fill="#E1F3F7"/>
<path id="Vector_8" d="M281.817 49.7025C282.088 47.7911 281.211 45.3169 279.321 43.5403C277.581 41.8915 275.33 40.8813 272.938 40.6754C272.68 37.8416 271.718 35.1164 270.139 32.7459C267.468 28.641 263.343 25.6908 258.586 24.4839C253.829 23.277 248.791 23.9023 244.476 26.2349C240.459 28.3649 237.683 31.8158 236.624 35.0713C239.637 33.2651 242.943 31.9966 246.394 31.3228C249.83 30.5749 253.394 30.6353 256.803 31.4991C260.212 32.3629 263.372 34.0063 266.033 36.2991C267.648 37.6325 269.112 39.1374 270.4 40.787C268.237 41.1255 266.205 42.0362 264.516 43.424C262.791 44.8259 261.497 46.6845 260.783 48.7863C264.05 46.7865 268.039 44.7634 271.981 44.6983C275.733 44.6472 279.694 46.4982 281.817 49.7025Z" fill="#E1F3F7"/>
<path id="Vector_9" d="M300.383 61.1108C298.324 59.2192 295.689 58.0692 292.899 57.8442C290.108 57.6191 287.322 58.332 284.985 59.8691C282.993 61.125 281.492 63.022 280.73 65.2453C284.122 63.1199 288.415 61.7154 292.558 62.0503C296.701 62.3851 300.709 64.4547 303.714 67.0917C303.319 64.7783 302.143 62.6685 300.383 61.1108Z" fill="#E1F3F7"/>
</g>
</svg>
