<svg width="394" height="125" viewBox="0 0 394 125" fill="none" xmlns="http://www.w3.org/2000/svg">
<g id="could-one">
<path id="Vector" d="M393 116.562H8.51161C2.06069 105.857 8.80815 88.6212 20.378 83.8963C20.7669 53.2064 36.2647 21.7915 63.3906 7.50002C90.5165 -6.79143 128.624 0.264278 144.871 26.2779C154.593 20.1273 169.6 30.0004 167.816 41.3625C181.092 39.0074 195.428 43.8539 204.562 53.7854C213.697 63.717 222.5 72.5618 228.5 82.201C229 85 239 88.5 240.5 94.0032C261.5 91 258.031 99.7386 264 97.5C269.969 95.2614 274.639 92.0807 281 92.5C287.361 92.9194 289.617 93.4324 295.241 96.4353C300.865 99.4382 310.109 102.243 314 107.297C317.063 103.657 340.5 102 351.5 109C367.5 103.5 397 121.5 393 116.562Z" fill="white"/>
<path id="Vector_2" d="M206 117H0C5.04403 106.335 18.2791 100.341 29.3855 104.162C31.4038 99.6639 37.5434 97.639 41.8118 100.064C40.0949 91.0015 44.0176 81.1026 51.4697 75.7311C58.9217 70.3596 69.4841 69.7858 77.4545 74.3318C79.6934 65.2806 88.5903 58.7393 97.8328 58.0655C107.075 57.3918 116.233 61.9748 122.399 68.9344C128.564 75.894 131.976 84.997 133.402 94.2147C134.834 93.0691 136.566 92.3685 138.387 92.1986C140.208 92.0288 142.039 92.397 143.655 93.2584C145.272 94.1198 146.604 95.4368 147.489 97.0485C148.373 98.6602 148.772 100.497 148.637 102.333C151.224 100.144 154.284 98.595 157.572 97.8104C160.86 97.0257 164.285 97.0271 167.572 97.8143C170.86 98.6016 173.918 100.153 176.504 102.344C179.089 104.535 181.129 107.305 182.46 110.433C189.702 105.261 202.029 109.037 206 117Z" fill="#E1F3F7"/>
<path id="Vector_3" d="M194.402 124.959H31C33.6445 111.977 46.7603 100.104 59.6184 96.9506C72.4764 93.7975 86.9485 98.6635 95.2953 108.95C98.7419 106.167 104.459 106.906 107.084 110.478C111.653 102.693 121.148 98.0649 130.102 99.3204C139.057 100.576 146.922 107.593 149.168 116.381C162.405 108.391 184.053 113.471 194.402 124.959Z" fill="#ABDEE3"/>
<path id="Vector_4" d="M43.3615 44.8924C45.7562 43.5363 48.4758 42.7697 51.269 42.6635C54.0621 42.5573 56.8387 43.1149 59.342 44.2848C61.8932 45.4006 64.1951 46.9631 66.1247 48.8888C66.0383 46.6339 64.9222 44.0151 62.8491 41.861C63.844 40.7369 65.0388 39.7838 66.3804 39.044C67.9196 38.1411 69.6847 37.6356 71.4979 37.5786C73.311 37.5215 75.1081 37.9149 76.7081 38.7191C78.3485 39.489 79.8078 40.5607 80.9995 41.8707C81.0237 40.1682 80.1426 38.1115 78.3977 36.5519C77.4684 35.7045 76.3668 35.0422 75.1589 34.6046C73.9509 34.1671 72.6615 33.9633 71.3677 34.0054C70.074 34.0476 68.8027 34.3349 67.6298 34.85C66.457 35.3652 65.4068 36.0977 64.5422 37.0036C63.3369 38.2161 62.5701 39.7559 62.3515 41.4029C62.1788 41.2404 62.006 41.0779 61.8263 40.9155C58.8925 38.3842 55.0125 37.0478 51.034 37.1982C47.0556 37.3486 43.3022 38.9735 40.5938 41.718C38.068 44.2101 36.8725 47.4007 37.0107 50C38.7627 47.9329 40.9182 46.1994 43.3615 44.8924Z" fill="#E1F3F7"/>
<path id="Vector_5" d="M97.007 80.012C99.3636 80.0749 101.664 80.7453 103.686 81.9584C105.477 83.014 107.054 84.3973 108.334 86.0361C107.394 86.3822 106.509 86.8642 105.709 87.4667C104.145 88.6237 103.031 90.2888 102.559 92.177C105.198 90.1965 108.64 88.7708 112.048 88.8535C115.456 88.9362 118.854 90.4642 121.401 92.5468C120.996 90.6447 119.947 88.9411 118.431 87.7246C116.647 86.2531 114.422 85.4237 112.111 85.3695C111.046 85.3546 109.986 85.5107 108.971 85.8317C108.848 83.3166 107.835 80.9273 106.112 79.0923C104.969 77.8108 103.57 76.7842 102.004 76.0792C100.439 75.3742 98.7433 75.0065 97.027 75.0001C95.3107 74.9937 93.6122 75.3486 92.0418 76.0419C90.4714 76.7351 89.0642 77.7512 87.9115 79.0242C85.7385 81.355 84.7906 84.3476 85.0385 86.7173C86.4321 84.7557 88.233 83.119 90.3179 81.9195C92.3457 80.7164 94.6502 80.0592 97.007 80.012Z" fill="#ABDEE3"/>
</g>
</svg>
