<svg width="1440" height="316" viewBox="0 0 1440 316" fill="none" xmlns="http://www.w3.org/2000/svg">
<path d="M81.6644 42.5075C53.3235 46.464 -7.76131 65.5075 -20.2393 72.5075V140.508H1478.16V41.0075C1446.1 60.8408 1368.46 103.108 1328.94 97.5076C1279.55 90.5076 1119.42 36.0076 1090.82 36.0076C1062.23 36.0076 920.29 56.5075 877.137 56.5075C786.497 56.5075 803.309 55.0075 744.038 36.5075C727.401 27.3408 692.047 15.5075 585.464 11.0076C565.094 10.1476 277.673 82.5076 271.954 80.5076C266.235 78.5076 147.174 33.3621 81.6644 42.5075Z" fill="#8B6225"/>
<path d="M448.005 0.500755C370.225 -6.29925 105.726 57.8341 -20.9602 91.0007V186.501L1476.4 193.501L1479 64.5007C1425.1 42.1674 1372.42 0.500755 1303.79 0.500755C1218 0.500755 1074.5 76.0007 921.129 103.501C767.754 131.001 545.229 9.00075 448.005 0.500755Z" fill="#AC6703"/>
<path d="M64.8261 79.0005C36.9586 74.6005 -6.40251 95.5005 -19.9203 108.501V210.5H1479V155C1449.54 156.834 1385.1 159.4 1363.06 155C1335.5 149.5 1260.63 73.0005 1200.32 69.0005C1120.97 63.737 1100.5 92.5005 1062.03 104.001C1023.55 115.501 764.634 108.501 715.762 112C666.89 115.5 457.513 33.5005 423.049 33.5005C332.063 33.5005 227.04 105.001 198.965 108.501C176.504 111.301 155.292 102 64.8261 79.0005Z" fill="#B0741D"/>
<path d="M306.068 47.0011C267.387 46.1279 71.2384 98.3344 -22 123.501V174.001H1475.36V126.001C1449.54 114.334 1449.19 95.1347 1379.18 87.001C1301.71 78.0009 1227.36 119.001 1188.37 113.001C1149.37 107.001 1080.23 76.3148 943.5 56.5C867.592 45.4999 602.94 101.501 562.906 101.501C522.873 101.501 416.81 49.5009 306.068 47.0011Z" fill="#9A6A25"/>
<path d="M260 56.5C134 56.5 42.1667 98.8333 0 121V316H1440.5V12.5C1444.17 8.83338 1431.6 3.70005 1352 12.5C1252.5 23.5 1166 87 1055.5 117C945 147 814.5 56.5 734.5 56.5C654.5 56.5 599.5 123 516.5 123C433.5 123 417.5 56.5 260 56.5Z" fill="#FAFAFA"/>
</svg>
