<svg width="1440" height="242" viewBox="0 0 1440 242" fill="none" xmlns="http://www.w3.org/2000/svg">
<g id="hero-wave">
<path id="vector4" d="M97.5 41.5C70.2448 45.4565 11.5 64.5 -0.5 71.5V139.5H1440.5V40C1409.67 59.8333 1335 102.1 1297 96.5001C1249.5 89.5001 1095.5 35.0001 1068 35.0001C1040.5 35.0001 904 55.5 862.5 55.5C775.332 55.5 791.5 54 734.5 35.5C718.5 26.3333 684.5 14.5 582 10.0001C562.41 9.14008 286 81.5001 280.5 79.5001C275 77.5001 160.5 32.3546 97.5 41.5Z" fill="#87AC45"/>
<path id="vector3" d="M450.5 1.00002C375.7 -5.79998 121.333 58.3333 -0.5 91.5V187L1439.5 194L1442 65C1390.17 42.6667 1339.5 1.00002 1273.5 1.00002C1191 1.00002 1053 76.5 905.5 104C758 131.5 544 9.50002 450.5 1.00002Z" fill="#7C9948"/>
<path id="vector2" d="M82 79.4999C55.2 75.0999 13.5 96 0.5 109V211H1442V155.5C1413.67 157.333 1351.7 159.9 1330.5 155.5C1304 150 1232 73.5 1174 69.4999C1097.68 64.2364 1078 93 1041 104.5C1004 116 755 109 708 112.5C661 116 459.644 33.9999 426.5 33.9999C339 34 238 105.5 211 109C189.4 111.8 169 102.5 82 79.4999Z" fill="#94CA33"/>
<path id="vector1" d="M314 47.5001C276.802 46.627 88.1667 98.8334 -1.5 124V174.5H1438.5V126.5C1413.67 114.833 1413.33 95.6338 1346 87.5001C1271.5 78.5 1200 119.5 1162.5 113.5C1125 107.5 1061.5 31.815 930 12.0001C857 0.999975 599.5 102 561 102C522.5 102 420.5 50 314 47.5001Z" fill="#7EAB2D"/>
<path id="main-wave" d="M609.5 24.0001C392.5 70.5001 393.5 95.5001 -0.5 124V242L1441 236.5V205.5V143.5C1126.5 117.5 999.5 77.5 861 29.0001C764.974 -4.62613 643.333 19.1668 609.5 24.0001Z" fill="#FAFAFA"/>
</g>
</svg>
