<svg width="125" height="122" viewBox="0 0 125 122" fill="none" xmlns="http://www.w3.org/2000/svg">
<g clip-path="url(#clip0_96_93)">
<path d="M113.939 70.9607C112.702 71.4248 111.364 71.5661 110.05 71.3713C108.736 71.1765 107.49 70.652 106.429 69.847C106.33 69.7715 106.238 69.6891 106.151 69.6006C105.913 69.3685 104.021 69.8293 103.664 69.8818C102.718 70.0193 101.779 70.1919 100.846 70.3995C97.1154 71.2043 93.5181 72.5168 90.1543 74.3005C88.7883 75.0384 87.0616 75.2533 86.7448 77.0906C86.5156 78.4173 87.2365 79.8074 88.341 80.5978C89.4455 81.3881 90.866 81.6328 92.2139 81.519C89.8553 82.2082 87.6893 83.4029 85.4883 84.4873C83.2873 85.5717 80.9888 86.5676 78.5405 86.8117C77.3613 86.9351 76.1674 86.8444 75.0162 86.544C73.8132 86.2215 72.9538 85.4456 71.8394 84.9946C69.583 84.0819 67.2746 83.415 65.0574 82.3282C60.2355 79.9634 55.6145 77.0109 51.5672 73.4647C46.6228 68.9206 42.4371 63.6165 39.1717 57.7571C38.5414 56.6041 37.9559 55.4269 37.4385 54.2193C36.8673 52.8807 36.5289 52.1607 36.9337 50.7595C37.78 47.8562 38.1444 44.8309 38.2731 41.8113C38.339 40.2854 38.3419 38.7579 38.3181 37.2318C38.2995 36.0082 38.6263 33.9768 38.1907 32.8378C38.7056 34.198 39.25 35.5844 40.1972 36.682C41.1806 37.8292 43.5613 39.1172 44.9805 38.0066C45.8043 37.3621 46.1047 35.9707 46.4506 35.028C46.8664 33.8764 47.2453 32.7115 47.5748 31.5317C48.2235 29.2211 48.552 26.93 48.8036 24.5495C48.8781 23.8553 49.5621 19.5622 49.0064 19.1775C48.8357 19.0611 48.6749 18.9307 48.5256 18.7877C47.5993 17.8292 46.9303 16.6531 46.5818 15.3706C46.2334 14.0881 46.2169 12.7413 46.5341 11.4574C46.8264 10.3085 47.44 9.13888 48.4663 8.56574C49.3746 8.04642 50.4879 8.09987 51.3798 8.53518C52.2717 8.97049 52.9575 9.74149 53.4506 10.6065C54.4781 12.3691 54.7874 14.6593 53.9298 16.6414C53.4771 17.6694 52.7342 18.5617 51.886 19.084C51.0659 25.9181 51.1872 32.9182 51.7922 39.3995C51.8618 40.1867 51.9543 40.9922 52.306 41.6486C52.6578 42.305 53.3235 42.8124 54.1013 42.7287C55.0889 42.6221 55.8925 41.6657 56.5358 40.7952C59.0056 37.4442 61.2623 33.9405 63.2927 30.3046C61.8308 28.3267 61.2866 25.7682 62.2498 23.4909C62.7013 22.429 63.5188 21.3997 64.7443 21.0052C65.827 20.6658 67.0878 20.8946 68.0502 21.464C69.0126 22.0335 69.7049 22.903 70.1839 23.8213C71.1557 25.6951 71.2631 27.9706 70.0948 29.739C69.277 30.9692 67.8908 31.8576 66.5147 31.9792C64.6884 36.0752 63.2097 40.5724 62.5888 44.7746C62.3633 46.2609 62.3305 47.7719 62.491 49.2704C62.8548 52.5103 64.4248 55.3927 67.0616 57.3878C70.4606 59.9642 74.8403 60.3736 78.8131 59.1666C82.954 58.039 87.2938 56.0086 91.1717 53.6708C91.0679 52.2459 91.7981 50.6981 92.9673 49.7062C94.5785 48.3307 96.8448 48.1728 98.8278 48.9223C99.852 49.2767 100.755 49.9179 101.428 50.7689C102.107 51.6577 102.492 52.8736 102.283 54.0036C102.048 55.2647 101.121 56.195 100.115 56.7649C98 57.9723 95.4404 57.7713 93.325 56.6006C89.8779 59.0952 86.5939 61.8059 83.4923 64.7165C82.7038 65.46 81.8498 66.3718 81.8606 67.3641C81.8712 68.1473 82.4454 68.7535 83.1469 69.0179C83.8483 69.2824 84.6513 69.2848 85.4402 69.2612C91.9722 69.0905 98.9503 68.3773 105.655 66.7408C106.044 65.7627 106.873 64.8327 107.912 64.23C109.77 63.1397 112.088 63.1685 113.958 63.9839C114.875 64.3818 115.737 64.9722 116.269 65.8C116.549 66.2258 116.725 66.7112 116.781 67.216C116.838 67.7208 116.773 68.2306 116.593 68.7032C116.147 69.7853 115.053 70.5269 113.939 70.9607Z" fill="#A73723"/>
<path d="M115.054 81.4711C112.364 82.8603 108.986 82.4888 106.426 80.8924C106.3 80.8154 106.18 80.7304 106.065 80.6381C93.4631 82.5075 81.7526 89.5396 74.2606 99.7728C74.0904 100.009 73.9309 100.235 73.7617 100.47C64.7065 98.7286 51.1617 91.2307 42.1895 83.2706C35.0302 76.9191 27.8972 67.7142 23.8748 59.7873C23.8671 59.7805 23.8662 59.7661 23.8664 59.7527C22.9128 57.9261 22.1095 56.0263 21.4645 54.0721C21.664 53.8913 21.8714 53.7038 22.0632 53.5162C30.8804 45.2827 36.3974 33.6147 37.2093 21.5251C37.2541 21.0077 37.2768 20.4843 37.2928 19.9685C37.1057 19.8058 36.9312 19.629 36.7711 19.4398C36.537 19.1516 36.3237 18.8473 36.1328 18.5292C36.1184 18.53 36.1251 18.5224 36.1175 18.5156C34.7162 16.2646 34.242 13.4201 35.1743 10.9353C35.6259 9.73239 36.4458 8.58141 37.6624 8.16162C38.7381 7.77734 39.9784 8.05559 40.9303 8.70081C41.8822 9.34604 42.574 10.3196 43.0612 11.3651C43.1762 11.6122 43.2777 11.8744 43.3792 12.1367C44.0707 14.0887 44.0799 16.2964 43.103 18.0914C42.5149 19.1463 41.6076 19.9972 40.6077 20.4217C39.1974 27.8484 39.0823 35.7626 39.8382 43.2831C39.9262 44.1949 40.0428 45.134 40.4698 45.9501C40.6431 46.2808 40.8706 46.5806 41.1426 46.8371C41.5422 47.2243 42.0651 47.4585 42.618 47.498C43.7852 47.5392 44.7097 46.5721 45.4504 45.6777C48.2882 42.2283 50.8895 38.5906 53.2368 34.7888C51.569 32.369 51.0109 29.423 52.1831 27.0313C52.7321 25.9147 53.693 24.8888 55.1001 24.6245C56.3342 24.3943 57.7443 24.8115 58.8175 25.5644C59.8908 26.3173 60.6337 27.3479 61.1672 28.4228C62.2273 30.6091 62.3464 33.1444 61.0219 34.9987C60.7611 35.3682 60.4444 35.6947 60.083 35.9666C59.2025 36.6969 58.0904 37.093 56.9402 37.086C54.8662 41.4613 53.2439 46.367 52.7123 51.1029C52.5192 52.8161 52.5658 54.5502 52.8508 56.2553C53.0602 57.5179 53.4153 58.7535 53.909 59.9372C53.9023 59.9448 53.9089 59.9506 53.9165 59.9574C54.2217 60.6667 54.5804 61.3522 54.9894 62.008C55.5307 62.8648 56.1766 63.6516 56.9119 64.3501C57.2867 64.7222 57.6821 65.073 58.0962 65.4007C58.6078 65.7889 59.0419 66.174 59.547 66.5563C60.4858 67.2505 61.4969 67.8407 62.5622 68.3164C64.0091 68.9635 65.5441 69.3874 67.1143 69.5733C69.0918 69.7805 71.087 69.6186 72.9978 69.0961C77.6866 67.9962 82.4165 65.7663 86.5376 63.1432C86.2508 61.5347 86.9013 59.7905 88.1125 58.683C89.7833 57.1456 92.313 56.9661 94.6165 57.764C95.8093 58.1468 96.8842 58.8337 97.7345 59.7564C98.6051 60.7222 99.1912 62.0682 99.1106 63.3353C99.0428 64.4668 98.4381 65.3753 97.6704 66.0446C97.4832 66.2149 97.2815 66.3685 97.0675 66.5039C94.8669 67.9292 91.9337 67.7661 89.3638 66.4534C85.7859 69.29 82.4072 72.3676 79.2508 75.6651C78.452 76.5039 77.601 77.5402 77.7809 78.6941C77.9283 79.5986 78.7049 80.3224 79.5716 80.6407C79.5926 80.6445 79.6124 80.6529 79.6299 80.6653C80.4759 80.9651 81.4011 80.9773 82.2949 80.9501C89.8806 80.8031 97.7381 79.7463 104.954 77.4525C105.206 76.3223 105.966 75.225 107.013 74.4705C108.895 73.1183 111.473 72.9681 113.696 73.6952C114.786 74.0527 115.846 74.623 116.59 75.4887C116.836 75.7731 117.042 76.0897 117.202 76.4296C117.554 77.1245 117.667 77.9139 117.523 78.6748C117.255 79.9264 116.201 80.8729 115.054 81.4711Z" fill="url(#paint0_linear_96_93)"/>
<path d="M25.8173 54.1309C26.2026 54.8926 26.8546 55.5542 27.6715 55.8031C28.5158 56.0607 29.4333 55.8592 30.242 55.5204C33.2889 54.2425 35.3052 50.8838 35.0076 47.5826C35.0544 48.0981 33.0443 49.377 32.6483 49.6428C30.8288 50.8651 28.7222 51.5996 26.5281 51.7767C25.8258 51.8326 25.4362 51.6572 25.2947 52.3674C25.2 52.8443 25.6029 53.7183 25.8173 54.1309Z" fill="#D35A27"/>
<path d="M37.4994 73.8209C38.1327 74.9398 39.0318 76.0586 40.2889 76.3112C40.9771 76.4497 41.6904 76.3087 42.3531 76.0881C44.3659 75.4201 46.0643 74.0498 47.139 72.2268C48.2137 70.4038 48.5932 68.2493 48.2085 66.1556C47.0878 68.1859 45.293 69.7581 43.1299 70.6045C41.661 71.1546 40.0831 71.3637 38.5146 71.2163C38.0142 71.1767 36.9005 70.8483 36.5787 71.4159C36.2809 71.9564 37.241 73.3633 37.4994 73.8209Z" fill="#D35A27"/>
<path d="M56.6294 88.8081C57.4215 89.8977 58.3335 90.9622 59.5372 91.5813C60.7409 92.2004 62.2795 92.312 63.3755 91.5414C64.1403 91.0031 64.5885 89.857 64.0133 89.1088C63.697 88.6966 63.1564 88.513 62.638 88.4806C62.1195 88.4481 61.6062 88.5421 61.0896 88.5693C58.3074 88.7163 56.652 86.9962 55.1195 84.9944C54.8792 86.2939 55.9016 87.8045 56.6294 88.8081Z" fill="#D35A27"/>
<path d="M70.6271 99.4761C65.795 98.2243 61.3786 95.8034 57.5262 92.6235C61.1335 86.6565 66.2959 81.8332 71.66 77.3532C71.8816 77.4977 72.1577 77.6227 72.2809 77.7107C72.9579 78.1392 73.6494 78.5669 74.3475 78.9871C75.7482 79.8312 77.1736 80.6586 78.6092 81.47L72.3287 76.811C72.5907 76.5927 72.8583 76.3814 73.1212 76.16C77.5123 72.5836 82.0059 69.1375 86.6021 65.8218C86.8928 65.6154 86.5793 65.788 86.8774 65.6018C87.0237 65.498 87.1899 65.4252 87.3658 65.3878C87.5418 65.3504 87.7239 65.3491 87.9011 65.3841C88.2529 65.4854 88.5379 65.8426 88.4545 66.1943C88.233 66.3537 87.9313 66.4052 87.725 66.5936C84.9894 69.1484 82.257 71.7055 79.5279 74.2648C78.2955 75.4115 76.958 76.8596 77.2139 78.5316C77.3939 79.6856 78.3001 80.596 79.2739 81.2472C81.6869 82.8579 84.9469 83.4985 87.7186 82.7115C80.1614 85.9828 73.8997 91.9239 70.6271 99.4761Z" fill="#D35A27"/>
<path d="M71.7678 104.557C70.4478 104.67 69.1238 104.277 67.8842 103.819C62.2957 101.79 57.2798 98.4522 52.4338 95.0001C39.2213 85.6188 26.4805 74.7255 18.9984 60.3633C18.5018 59.412 18.0354 58.4178 17.8942 57.3699C17.869 57.1858 17.8546 57.0006 17.851 56.815C17.8426 54.6217 20.0134 52.9437 22.0621 53.5156C21.8703 53.7032 21.6629 53.8907 21.4634 54.0715C22.1088 56.026 22.9124 57.9262 23.8664 59.7531C23.8662 59.7665 23.8671 59.7809 23.8748 59.7877C27.8972 67.7145 35.0302 76.9194 42.1895 83.271C51.1617 91.2311 64.7065 98.729 73.7617 100.47C73.9319 100.234 74.0923 100.007 74.2606 99.7731C74.6216 100.112 74.8752 100.549 74.9896 101.029C75.104 101.509 75.0741 102.011 74.9036 102.471C74.422 103.706 73.0868 104.442 71.7678 104.557Z" fill="url(#paint1_linear_96_93)"/>
<path d="M42.4744 12.0729C41.8913 11.4086 41.4875 10.6809 40.7611 10.1273C39.7283 9.33102 38.2635 8.95999 37.1162 9.54387C36.0916 10.0798 35.5425 11.2428 35.3447 12.3711C34.9665 14.4208 35.4701 16.4964 36.1164 18.5147C34.7151 16.2637 34.241 13.4192 35.1732 10.9345C35.6248 9.7315 36.4447 8.58052 37.6613 8.16073C38.737 7.77645 39.9773 8.05469 40.9292 8.69992C41.8811 9.34514 42.5729 10.3187 43.0601 11.3642C43.1751 11.6113 43.2766 11.8736 43.3782 12.1358C43.3169 12.8591 43.0103 12.676 42.4744 12.0729Z" fill="#FAD5AB"/>
<path d="M39.0842 81.4097C37.9088 82.5142 30.4919 73.0324 29.6166 71.9308C25.9024 67.2448 22.1112 62.4363 20.1571 56.795C19.9845 56.2957 19.6621 55.6788 19.1375 55.757C18.8436 55.8019 18.6419 56.0601 18.4822 56.315C18.2643 56.6538 18.0679 57.0061 17.8942 57.3698C17.869 57.1858 17.8545 57.0005 17.851 56.815C17.8426 54.6217 20.0134 52.9437 22.0621 53.5155C30.8793 45.2821 36.3963 33.6141 37.2082 21.5245C37.3203 21.504 37.3786 21.4823 37.3046 21.5965C37.5622 33.5709 32.1216 45.4964 22.9267 53.0851C22.5972 55.2825 23.0596 57.6271 23.8681 59.7489C23.868 59.7623 23.8689 59.7766 23.8766 59.7834C23.9896 60.0965 24.1161 60.3945 24.2446 60.6902C25.9752 64.7926 28.5077 68.5484 31.2874 72.0145C32.7071 73.7867 34.2665 75.441 35.7819 77.1317C36.2684 77.6891 39.5505 80.9723 39.0842 81.4097Z" fill="#FAD5AB"/>
<path d="M25.2397 47.3742C23.6832 50.9415 25.5846 55.0562 29.5283 54.3534C30.8128 54.1214 32.1641 53.2988 33.1707 52.2303C33.9039 51.4531 34.4819 50.543 34.8743 49.5479C35.0033 49.2369 35.1085 48.9165 35.1893 48.5893C35.6684 46.6021 35.1723 44.7053 33.7948 43.7424C32.4174 42.7796 30.1343 42.8858 28.1873 44.0892C26.8922 44.8584 25.8645 46.0036 25.2397 47.3742Z" fill="url(#paint2_linear_96_93)"/>
<path d="M25.2397 47.3742C25.2349 47.9497 25.3875 48.5172 25.6812 49.0154C27.0651 47.3784 28.699 45.5742 30.5817 45.1746C31.1723 45.0367 31.7925 45.0799 32.3618 45.2986C32.931 45.5173 33.423 45.9013 33.7736 46.4008C34.4059 47.2674 34.6543 48.4125 34.8722 49.5459C35.0011 49.235 35.1064 48.9145 35.1872 48.5873C35.6662 46.6001 35.1701 44.7033 33.7926 43.7405C32.4152 42.7776 30.1343 42.8858 28.1873 44.0892C26.8922 44.8584 25.8646 46.0036 25.2397 47.3742Z" fill="#FAD5AB"/>
<path d="M34.5958 46.7474C34.5627 48.3507 33.583 50.2459 31.9215 51.3697C29.8987 52.7399 27.3449 52.5634 26.4934 51.0032C25.5824 49.3207 26.651 46.3805 28.7347 44.7587C31.5343 42.5746 34.6501 44.1222 34.5958 46.7474Z" fill="url(#paint3_linear_96_93)"/>
<path d="M28.1353 50.1811C27.6715 49.6782 27.3885 49.0362 27.3317 48.3577C27.2869 48.03 27.3361 47.6973 27.4735 47.3983C27.5346 47.259 28.0711 46.5551 28.0662 46.51C28.1723 47.1459 28.3545 47.7621 28.7657 48.1908C29.3405 48.7896 30.3765 48.8267 31.3824 48.367C31.5926 48.271 33.7313 46.7348 33.7385 46.7664C34.014 47.978 32.3156 50.1698 30.9549 50.6572C29.8451 51.0557 28.7692 50.8169 28.1353 50.1811Z" fill="#941A34"/>
<path style="mix-blend-mode:screen" d="M29.7363 45.3918C29.8575 45.0644 30.0935 44.7929 30.4009 44.6273C31.5347 43.9793 33.3855 44.5496 32.3402 45.9899C31.5028 47.1409 29.3912 46.5385 29.7363 45.3918Z" fill="url(#paint4_linear_96_93)"/>
<path d="M80.7236 95.7435C77.4446 97.7963 73.4865 96.7685 73.9515 93.024C74.1043 91.8054 74.8151 90.4184 75.7682 89.3044C76.4642 88.4971 77.2898 87.8114 78.2119 87.2747C78.4962 87.1035 78.7917 86.9514 79.0965 86.8195C80.9426 86.0316 82.7539 86.1509 83.7238 87.2493C84.6937 88.3478 84.7032 90.4627 83.6716 92.4647C82.9986 93.8014 81.9815 94.9326 80.7236 95.7435Z" fill="url(#paint5_linear_96_93)"/>
<path d="M80.7236 95.7436C80.2031 95.8497 79.6619 95.8083 79.1607 95.6241C80.6333 94.0656 82.2499 92.25 82.5341 90.4516C82.7335 89.1255 82.1264 88.171 81.2314 87.7348C80.3864 87.3062 79.295 87.2742 78.2222 87.2742C78.5064 87.103 78.802 86.9509 79.1068 86.819C80.9529 86.0311 82.7641 86.1504 83.7341 87.2488C84.704 88.3473 84.7134 90.4622 83.6819 92.4642C83.0062 93.8023 81.9854 94.9339 80.7236 95.7436Z" fill="#FAD5AB"/>
<path d="M80.8607 87.0402C79.3557 87.3512 77.6217 88.581 76.6451 90.3029C75.4559 92.401 75.7442 94.7149 77.2569 95.2214C78.8812 95.7629 81.5936 94.2695 83.0185 92.0709C84.9296 89.1238 83.3258 86.5305 80.8607 87.0402Z" fill="url(#paint6_linear_96_93)"/>
<path d="M77.9438 93.577C78.3684 93.8958 79.0604 94.0608 79.6929 93.9933C80.0129 93.9748 80.3215 93.8723 80.5877 93.6961C80.7154 93.616 81.3515 93.0004 81.399 93.0019C80.8002 93.0161 80.2077 92.9548 79.7851 92.6514C79.195 92.2284 79.1118 91.2803 79.493 90.2779C79.5732 90.0685 80.9154 87.8354 80.8802 87.8332C79.7275 87.7932 77.7501 89.7336 77.3574 91.0682C77.0415 92.1556 77.3173 93.1025 77.9438 93.577Z" fill="#941A34"/>
<path style="mix-blend-mode:screen" d="M82.3648 91.2728C82.6676 91.1041 82.9079 90.8432 83.0513 90.5277C83.6072 89.3747 82.9807 87.7723 81.6807 88.9887C80.6415 89.9509 81.3087 91.7847 82.3648 91.2728Z" fill="url(#paint7_linear_96_93)"/>
<path d="M35.6704 65.629C34.2991 70.1615 37.5931 75.2815 42.6595 74.2825C44.3088 73.9544 45.9323 72.88 47.0604 71.5093C47.8781 70.506 48.467 69.3358 48.7867 68.0789C48.8982 67.6817 48.9756 67.2753 49.018 66.8643C49.2703 64.3508 48.2596 61.9724 46.2538 60.808C44.248 59.6436 41.267 59.8406 38.9209 61.4057C37.2057 62.5592 36.1479 64.0621 35.6704 65.629Z" fill="url(#paint8_linear_96_93)"/>
<path d="M35.6704 65.6293C35.7838 66.3785 36.0924 67.0866 36.5652 67.6825C38.0767 65.5801 39.8875 63.2636 42.2949 62.7066C43.093 62.5286 43.9265 62.5687 44.7082 62.8228C45.4898 63.0769 46.1907 63.5355 46.7376 64.1508C47.735 65.2292 48.2841 66.6544 48.7874 68.074C48.8989 67.6768 48.9763 67.2704 49.0187 66.8594C49.271 64.3459 48.2603 61.9675 46.2545 60.8031C44.2487 59.6387 41.2677 59.8357 38.9216 61.4008C37.2057 62.5595 36.1479 64.0624 35.6704 65.6293Z" fill="#FAD5AB"/>
<path d="M47.887 64.5688C48.1486 66.5845 47.2163 69.0033 45.2435 70.4604C42.8383 72.2419 39.4383 72.0961 38.0207 70.1498C36.4991 68.0609 37.3473 64.3294 39.7804 62.2322C43.0528 59.4095 47.4582 61.2635 47.887 64.5688Z" fill="url(#paint9_linear_96_93)"/>
<path d="M40.0235 69.0754C39.3335 68.4817 38.8422 67.6912 38.6173 66.8122C38.4953 66.4166 38.4963 65.9945 38.6202 65.6019C38.6718 65.4291 39.2479 64.5242 39.2286 64.4645C39.4884 65.2599 39.8476 66.0312 40.4702 66.5585C41.3435 67.2945 42.7183 67.311 43.9547 66.7037C44.2144 66.5762 46.7407 64.5811 46.7578 64.6214C47.3488 66.1381 45.5276 68.9464 43.8301 69.5954C42.4464 70.1242 40.9811 69.8572 40.0235 69.0754Z" fill="#941A34"/>
<path style="mix-blend-mode:screen" d="M41.2149 63.0096C41.2757 62.6282 41.5805 62.2583 41.942 62.0336C43.3123 61.1852 45.8617 61.8491 44.758 63.6923C43.883 65.1522 40.9868 64.465 41.2149 63.0096Z" fill="url(#paint10_linear_96_93)"/>
<path d="M55.3209 81.8245C54.0226 86.1162 57.1412 90.9625 61.9379 90.0164C63.4987 89.7065 65.0372 88.6882 66.1052 87.3918C66.8803 86.4407 67.439 85.3317 67.7431 84.1404C67.8481 83.7645 67.921 83.3802 67.9612 82.9914C68.2004 80.6095 67.2432 78.3578 65.3445 77.2556C63.4458 76.1533 60.6218 76.3407 58.3968 77.8178C56.7714 78.9098 55.7767 80.3371 55.3209 81.8245Z" fill="url(#paint11_linear_96_93)"/>
<path d="M55.3209 81.8247C55.4279 82.534 55.7203 83.2044 56.1684 83.7682C57.5995 81.7784 59.3084 79.59 61.5906 79.0574C62.3469 78.8893 63.1366 78.928 63.877 79.1692C64.6173 79.4105 65.2811 79.8456 65.7987 80.4289C66.7436 81.4432 67.2624 82.7991 67.7402 84.1438C67.8452 83.7679 67.9181 83.3836 67.9583 82.9948C68.1975 80.6129 67.2403 78.3613 65.3416 77.259C63.4429 76.1568 60.6189 76.3441 58.3939 77.8212C56.7714 78.91 55.7767 80.3372 55.3209 81.8247Z" fill="#FAD5AB"/>
<path d="M66.8895 80.8163C67.1381 82.7256 66.2588 85.0097 64.3885 86.3952C62.1102 88.0822 58.891 87.9441 57.5492 86.1018C56.1079 84.1228 56.9104 80.5926 59.2175 78.6022C62.3133 75.9323 66.4835 77.6879 66.8895 80.8163Z" fill="url(#paint12_linear_96_93)"/>
<path d="M59.4453 85.0832C58.7924 84.5201 58.3282 83.7704 58.1169 82.9374C58.0014 82.5626 58.0025 82.1628 58.1198 81.7909C58.1689 81.6275 58.7142 80.7707 58.6951 80.7151C58.9418 81.4679 59.2789 82.2003 59.8696 82.6953C60.695 83.3928 61.9966 83.4081 63.1691 82.8331C63.4148 82.7126 65.8058 80.8238 65.8216 80.861C66.3817 82.298 64.6598 84.9526 63.05 85.571C61.739 86.0774 60.3518 85.8236 59.4453 85.0832Z" fill="#941A34"/>
<path style="mix-blend-mode:screen" d="M60.5733 79.3406C60.6302 78.979 60.9187 78.6296 61.2615 78.4172C62.5595 77.615 64.9736 78.242 63.9284 79.9862C63.0971 81.3726 60.355 80.7099 60.5733 79.3406Z" fill="url(#paint13_linear_96_93)"/>
<path d="M60.0614 35.9691C59.7927 35.9762 59.5261 35.9131 59.288 35.7859C59.7699 33.9211 60.2627 31.9867 59.8783 30.0961C59.4938 28.2056 57.9581 26.3924 56.0224 26.3715C55.3992 26.3775 54.7925 26.5618 54.2743 26.9027C53.7561 27.2435 53.3482 27.7266 53.0988 28.2947C52.2781 30.2748 53.6134 32.5408 53.3578 34.6857C53.2149 35.9768 52.4994 37.1159 51.7849 38.1921C49.8054 41.2075 47.7362 44.1588 45.5772 47.046C45.0439 47.7529 44.4032 48.5192 43.5254 48.6032C42.6477 48.6873 41.5529 47.8089 41.1312 46.837C41.5308 47.2242 42.0537 47.4584 42.6066 47.4979C43.7738 47.5391 44.6983 46.5719 45.439 45.6776C48.2768 42.2282 50.8781 38.5904 53.2254 34.7887C51.5576 32.3689 50.9995 29.4229 52.1717 27.0311C52.7207 25.9145 53.6816 24.8887 55.0887 24.6243C56.3228 24.3941 57.7329 24.8114 58.8061 25.5643C59.8794 26.3172 60.6223 27.3477 61.1558 28.4226C62.2159 30.6089 62.335 33.1443 61.0105 34.9985C60.7469 35.3697 60.4267 35.6972 60.0614 35.9691Z" fill="#FAD5AB"/>
<path d="M97.6574 66.0504C97.133 66.2534 96.5639 66.3186 96.0043 66.2397C97.4028 65.4937 97.9809 63.635 97.5173 62.1113C97.0536 60.5877 95.7269 59.4222 94.2283 58.8491C92.4689 58.1626 90.351 58.2567 88.827 59.3556C87.303 60.4544 86.5764 62.6457 87.3795 64.3661C87.1026 63.8941 86.3948 64.0883 85.9175 64.3399C83.7484 65.5029 81.5792 66.6652 79.41 67.8268C76.6064 69.3282 73.7194 70.8467 70.5614 71.2387C66.9421 71.6838 63.1984 70.5619 60.2284 68.4183C57.9926 66.7906 56.1854 64.6051 54.8821 62.1643C54.5897 61.6128 54.0216 60.7509 53.8996 59.9676C54.2048 60.6769 54.5635 61.3624 54.9726 62.0182C55.5139 62.875 56.1597 63.6618 56.895 64.3603C57.2698 64.7324 57.6652 65.0832 58.0793 65.4109C58.5909 65.7991 59.025 66.1842 59.5301 66.5665C60.469 67.2607 61.4801 67.8509 62.5453 68.3266C63.9922 68.9738 65.5272 69.3976 67.0975 69.5835C69.075 69.7907 71.0701 69.6288 72.9809 69.1063C77.6697 68.0064 82.3996 65.7764 86.5207 63.1534C86.2339 61.5449 86.8844 59.8006 88.0956 58.6932C89.7664 57.1558 92.2961 56.9763 94.5997 57.7742C95.7924 58.157 96.8673 58.8439 97.7176 59.7665C98.5882 60.7324 99.1743 62.0784 99.0937 63.3455C99.0298 64.4727 98.425 65.3812 97.6574 66.0504Z" fill="#FAD5AB"/>
<path d="M117.195 76.6152C115.65 74.5543 112.812 73.5601 110.34 74.2092C107.869 74.8583 105.913 77.1178 105.627 79.6588C105.573 79.4774 105.533 79.2973 105.479 79.1159C99.201 80.051 92.9199 80.9911 86.6357 81.9362C85.4055 82.1157 84.1575 82.3065 82.9147 82.1325C82.2881 82.0524 80.5849 81.4699 79.6218 80.6677C80.4678 80.9675 81.393 80.9797 82.2868 80.9525C89.8725 80.8055 97.73 79.7487 104.946 77.4549C105.198 76.3247 105.958 75.2274 107.005 74.4729C108.887 73.1207 111.465 72.9705 113.688 73.6976C114.778 74.0551 115.838 74.6255 116.582 75.4911C116.828 75.7755 117.034 76.0921 117.193 76.432L117.195 76.6152Z" fill="#FAD5AB"/>
<path d="M69.5997 103.685C70.7897 103.205 71.599 101.828 71.4048 100.549C66.4807 99.4692 61.8751 97.3408 57.7518 94.4177C57.7992 95.0267 57.6466 95.6324 57.317 96.143C56.9874 96.6536 56.499 97.0412 55.9258 97.2469C60.0328 100.268 64.6055 102.748 69.5997 103.685Z" fill="#D35A27"/>
<path d="M90.8176 61.3657C91.1217 61.1364 91.4634 60.9613 91.828 60.848C92.3901 60.7354 92.9748 60.793 93.5074 61.0133C94.04 61.2337 94.4965 61.6068 94.8185 62.0852C95.045 62.4063 95.1589 62.7925 95.1422 63.1829C95.0288 64.4364 94.0985 64.0114 93.5034 63.5918C92.8877 63.1558 92.6926 63.0563 91.9529 63.2976C91.4282 63.4704 89.1642 64.8858 89.0524 63.6086C88.9958 62.9257 89.9564 61.9597 90.8176 61.3657Z" fill="#D35A27"/>
<path d="M114.407 78.2097C114.49 78.5563 114.432 79.0158 114.095 79.1382C113.805 79.2447 113.502 79.0316 113.216 78.9041C112.482 78.5755 107.059 79.8968 108.858 77.8333C110.209 76.2939 113.759 75.5847 114.407 78.2097Z" fill="#D35A27"/>
<path d="M54.8681 32.5957C54.9868 32.3451 57.7058 28.7605 58.0771 29.6394C57.7406 28.8534 56.6827 28.2088 55.8158 28.4436C54.8983 28.6936 54.6743 29.7523 54.5828 30.5977C54.5353 31.0257 54.9823 32.3546 54.8681 32.5957Z" fill="#D35A27"/>
<path d="M37.3868 16.5255C37.3889 15.7437 37.6258 14.9828 38.0668 14.3412C38.5078 13.6996 39.1326 13.2068 39.8606 12.9266C40.1438 12.8276 40.5009 12.6454 40.4326 12.3546C40.1341 11.1226 37.95 11.5778 37.4737 12.3217C36.7149 13.5074 36.7708 15.2903 37.3868 16.5255Z" fill="#D35A27"/>
<path d="M38.0418 16.6616C37.9744 16.8144 37.9705 16.9883 38.0309 17.1452C38.0835 17.2233 38.159 17.2833 38.2469 17.3169C38.3348 17.3505 38.4307 17.356 38.5213 17.3327C38.7009 17.2794 38.8657 17.1863 39.0034 17.0601C39.7437 16.4631 40.4076 15.7776 40.9805 15.0188C41.6799 14.0918 40.8501 13.1834 39.844 13.6875C38.9693 14.1205 38.3026 15.8213 38.0418 16.6616Z" fill="#FAD5AB"/>
<path d="M55.7159 32.0036C55.5555 32.1844 55.4033 32.4111 55.4426 32.651C55.4955 32.99 55.8988 33.1544 56.2417 33.1665C56.5892 33.1736 56.9322 33.094 57.2394 32.9349C57.5467 32.7759 57.8087 32.5424 58.0016 32.2556C58.3168 31.777 58.6234 30.7375 57.8823 30.5288C57.1948 30.3367 56.0952 31.5761 55.7159 32.0036Z" fill="#FAD5AB"/>
<path d="M71.8916 77.4293C57.8043 69.5812 45.7166 58.5697 36.5943 45.2744C45.631 59.2304 57.7787 71.3096 72.1932 79.6004C72.2094 78.8178 71.8725 78.2151 71.8916 77.4293Z" fill="#D35A27"/>
<path d="M93.7511 65.0437C94.2754 64.0541 90.8723 62.8281 90.7912 64.4527C90.7785 64.6871 91.0328 64.8411 91.2537 64.9269C91.7946 65.1332 92.3608 65.2638 92.936 65.3148C93.2379 65.3447 93.6059 65.3153 93.7511 65.0437Z" fill="#FAD5AB"/>
<path d="M35.8055 40.804C40.4709 50.2897 47.0397 58.7295 55.0994 65.5934C46.7967 59.1848 40.2986 50.7774 33.903 42.4705C33.4899 41.9338 33.0627 41.3691 32.9423 40.7052C32.8087 39.9637 33.1873 38.2704 34.105 38.1038C35.0658 37.9328 35.4469 40.0738 35.8055 40.804Z" fill="#FAD5AB"/>
<path style="mix-blend-mode:screen" d="M28.0303 59.7908C26.6305 60.6769 25.6142 61.5162 26.606 63.491C27.6624 65.6043 28.7794 67.7947 30.6828 69.1912C31.1367 66.4989 32.7383 64.4822 34.3795 62.3944C36.1108 60.1911 38.0417 58.1526 40.1481 56.3041C40.7137 55.8077 41.3445 55.2067 41.2864 54.4529C41.2511 53.9882 40.953 53.5885 40.6683 53.2178C39.5532 51.772 38.4615 50.3063 37.325 48.8802C36.9285 49.6311 36.9537 50.5587 36.5511 51.3429C35.9517 52.5075 35.0714 53.6011 34.2268 54.5927C32.6476 56.4526 30.7928 58.0597 28.7257 59.3593C28.489 59.5072 28.2561 59.6507 28.0303 59.7908Z" fill="url(#paint14_linear_96_93)"/>
<path style="mix-blend-mode:screen" d="M43.553 50.0765L45.1156 51.4783C45.4207 51.749 49.8275 46.3346 50.2147 45.8057C51.7551 43.6928 53.0705 41.424 54.1399 39.0355C54.463 38.3124 55.0935 37.421 55.1065 36.6045C55.1237 35.5036 54.1681 35.5785 53.7095 36.4677C52.4908 38.826 51.3377 40.9407 49.6874 43.0475C47.7696 45.4984 45.7219 47.8447 43.553 50.0765Z" fill="url(#paint15_linear_96_93)"/>
<path style="mix-blend-mode:screen" d="M35.3123 37.8731L36.8612 40.0635C36.6876 39.8186 37.411 37.9282 37.4987 37.5475C37.7088 36.6455 37.8989 35.738 38.0692 34.8251C38.398 33.0624 38.6522 31.289 38.8319 29.505C39.0115 27.7209 39.1198 25.9277 39.1568 24.1253C39.1789 22.9088 39.4862 21.0227 39.0106 19.9023C37.8134 21.6548 38.1153 25.1164 37.8375 27.141C37.3362 30.7931 36.4907 34.3864 35.3123 37.8731Z" fill="url(#paint16_linear_96_93)"/>
</g>
<defs>
<linearGradient id="paint0_linear_96_93" x1="20.384" y1="27.0005" x2="100.704" y2="98.259" gradientUnits="userSpaceOnUse">
<stop stop-color="#FCB654"/>
<stop offset="1" stop-color="#DE7326"/>
</linearGradient>
<linearGradient id="paint1_linear_96_93" x1="6099.38" y1="14097" x2="7265.55" y2="33357.6" gradientUnits="userSpaceOnUse">
<stop stop-color="#FCB654"/>
<stop offset="1" stop-color="#DE7326"/>
</linearGradient>
<linearGradient id="paint2_linear_96_93" x1="29.4717" y1="42.8423" x2="33.1024" y2="53.5975" gradientUnits="userSpaceOnUse">
<stop stop-color="#FAA747"/>
<stop offset="1" stop-color="#DE7326"/>
</linearGradient>
<linearGradient id="paint3_linear_96_93" x1="32.9177" y1="42.8887" x2="29.8762" y2="53.4547" gradientUnits="userSpaceOnUse">
<stop offset="0.01" stop-color="#CC3527"/>
<stop offset="1" stop-color="#AC1F5F"/>
</linearGradient>
<linearGradient id="paint4_linear_96_93" x1="32.9999" y1="42.6755" x2="28.1121" y2="50.007" gradientUnits="userSpaceOnUse">
<stop stop-color="#A16F5B"/>
<stop offset="0.13" stop-color="#966755"/>
<stop offset="0.35" stop-color="#775243"/>
<stop offset="0.64" stop-color="#463028"/>
<stop offset="0.99" stop-color="#020202"/>
<stop offset="1" stop-color="#010101"/>
</linearGradient>
<linearGradient id="paint5_linear_96_93" x1="-553.066" y1="7166.65" x2="-1122.21" y2="6919.76" gradientUnits="userSpaceOnUse">
<stop stop-color="#FAA747"/>
<stop offset="1" stop-color="#DE7326"/>
</linearGradient>
<linearGradient id="paint6_linear_96_93" x1="-507.958" y1="5346.67" x2="-1137.71" y2="5450.05" gradientUnits="userSpaceOnUse">
<stop offset="0.01" stop-color="#CC3527"/>
<stop offset="1" stop-color="#AC1F5F"/>
</linearGradient>
<linearGradient id="paint7_linear_96_93" x1="40.0546" y1="1714.47" x2="-90.4158" y2="1820.22" gradientUnits="userSpaceOnUse">
<stop stop-color="#A16F5B"/>
<stop offset="0.13" stop-color="#966755"/>
<stop offset="0.35" stop-color="#775243"/>
<stop offset="0.64" stop-color="#463028"/>
<stop offset="0.99" stop-color="#020202"/>
<stop offset="1" stop-color="#010101"/>
</linearGradient>
<linearGradient id="paint8_linear_96_93" x1="-6513.51" y1="4973.07" x2="-5952.3" y2="6251.1" gradientUnits="userSpaceOnUse">
<stop stop-color="#FAA747"/>
<stop offset="1" stop-color="#DE7326"/>
</linearGradient>
<linearGradient id="paint9_linear_96_93" x1="-4730.41" y1="3952.9" x2="-4911.18" y2="5004.12" gradientUnits="userSpaceOnUse">
<stop offset="0.01" stop-color="#CC3527"/>
<stop offset="1" stop-color="#AC1F5F"/>
</linearGradient>
<linearGradient id="paint10_linear_96_93" x1="-1422.59" y1="1149.73" x2="-1545.4" y2="1371.9" gradientUnits="userSpaceOnUse">
<stop stop-color="#A16F5B"/>
<stop offset="0.13" stop-color="#966755"/>
<stop offset="0.35" stop-color="#775243"/>
<stop offset="0.64" stop-color="#463028"/>
<stop offset="0.99" stop-color="#020202"/>
<stop offset="1" stop-color="#010101"/>
</linearGradient>
<linearGradient id="paint11_linear_96_93" x1="-4566.83" y1="6136.75" x2="-4063.55" y2="7282.77" gradientUnits="userSpaceOnUse">
<stop stop-color="#FAA747"/>
<stop offset="1" stop-color="#DE7326"/>
</linearGradient>
<linearGradient id="paint12_linear_96_93" x1="-3315.86" y1="4817.22" x2="-3477.95" y2="5759.66" gradientUnits="userSpaceOnUse">
<stop offset="0.01" stop-color="#CC3527"/>
<stop offset="1" stop-color="#AC1F5F"/>
</linearGradient>
<linearGradient id="paint13_linear_96_93" x1="-954.11" y1="1436.06" x2="-1064.14" y2="1635.15" gradientUnits="userSpaceOnUse">
<stop stop-color="#A16F5B"/>
<stop offset="0.13" stop-color="#966755"/>
<stop offset="0.35" stop-color="#775243"/>
<stop offset="0.64" stop-color="#463028"/>
<stop offset="0.99" stop-color="#020202"/>
<stop offset="1" stop-color="#010101"/>
</linearGradient>
<linearGradient id="paint14_linear_96_93" x1="44.9835" y1="45.074" x2="29.0231" y2="64.5726" gradientUnits="userSpaceOnUse">
<stop stop-color="#C4936E"/>
<stop offset="0.11" stop-color="#B98A68"/>
<stop offset="0.3" stop-color="#9A7457"/>
<stop offset="0.55" stop-color="#694F3B"/>
<stop offset="0.85" stop-color="#251C15"/>
<stop offset="1" stop-color="#010101"/>
</linearGradient>
<linearGradient id="paint15_linear_96_93" x1="-2846.24" y1="5298.77" x2="-4034.13" y2="7504.75" gradientUnits="userSpaceOnUse">
<stop stop-color="#C4936E"/>
<stop offset="0.11" stop-color="#B98A68"/>
<stop offset="0.3" stop-color="#9A7457"/>
<stop offset="0.55" stop-color="#694F3B"/>
<stop offset="0.85" stop-color="#251C15"/>
<stop offset="1" stop-color="#010101"/>
</linearGradient>
<linearGradient id="paint16_linear_96_93" x1="-1614.54" y1="5503.24" x2="-1918.09" y2="7529.15" gradientUnits="userSpaceOnUse">
<stop stop-color="#C4936E"/>
<stop offset="0.11" stop-color="#B98A68"/>
<stop offset="0.3" stop-color="#9A7457"/>
<stop offset="0.55" stop-color="#694F3B"/>
<stop offset="0.85" stop-color="#251C15"/>
<stop offset="1" stop-color="#010101"/>
</linearGradient>
<clipPath id="clip0_96_93">
<rect width="107.373" height="66.81" fill="white" transform="translate(44.3386) rotate(41.579)"/>
</clipPath>
</defs>
</svg>
