<svg width="103" height="98" viewBox="0 0 103 98" fill="none" xmlns="http://www.w3.org/2000/svg">
<g id="rock-2" clip-path="url(#clip0_77_328)">
<path id="Vector" d="M72.3511 48.7601C72.4061 44.7861 78.034 41.1063 76.6471 37.1038C74.9486 32.2088 73.8984 26.6343 70.2029 20.4543C67.0526 26.5697 62.3041 33.6892 59.7036 37.909C56.1566 43.6601 51.3632 47.9396 54.3291 54.731C56.0991 58.795 58.4174 62.5446 60.5531 66.4241C61.871 68.8187 66.5951 74.0824 69.7479 74.7191C69.9815 74.7663 70.2195 74.7915 70.4575 74.8167C71.3261 74.324 72.1205 73.8634 72.8094 73.4663C74.0487 72.7522 75.6284 70.9881 77.3126 68.5957C72.858 62.4689 72.2851 53.4834 72.3511 48.7601Z" fill="#6E6A6D"/>
<path id="Vector_2" d="M88.9238 41.5636C89.7193 32.6732 81.8133 20.0539 75.9893 13.3203C75.1809 12.3791 74.2686 11.5324 73.27 10.7966C73.6568 12.8364 72.2724 16.4298 70.2029 20.4542C73.8989 26.6352 74.9486 32.2088 76.6471 37.1038C78.034 41.1062 72.4061 44.786 72.3511 48.7601C72.2851 53.4834 72.8564 62.4662 77.3126 68.5957C82.3304 61.4702 88.2797 48.7604 88.9238 41.5636Z" fill="#5C585C"/>
<path id="Vector_3" d="M62.8457 8.24926C55.8683 9.06091 48.5089 12.9839 42.3698 16.9169C39.5748 18.5572 36.9028 20.4197 34.3545 22.2426C26.1552 28.1138 14.9453 39.4471 8.08265 46.8311C6.66362 52.8601 13.6411 65.1797 16.7744 69.1889C17.9866 70.7411 19.2968 72.2141 20.6971 73.5988C20.7156 72.0964 20.8199 70.5751 20.2271 69.2668C17.6461 66.1485 17.3208 64.2759 19.3659 65.1035C23.056 66.5969 23.4085 69.1241 28.2746 67.7593C30.568 67.1161 32.509 71.4923 33.1492 71.8615C37.7315 74.5097 36.7046 71.275 39.0642 71.8581C45.4211 73.429 47.2126 69.9029 53.0001 68.583C54.96 68.1395 58.97 69.8995 61.8166 68.2746C61.3498 67.6898 60.9272 67.0709 60.5526 66.4231C58.4151 62.5447 56.0994 58.7875 54.3286 54.73C51.3662 47.9365 56.1572 43.6609 59.7031 37.908C64.016 30.9122 74.2444 15.9354 73.27 10.7966C69.0049 7.66694 64.7301 8.02798 62.8457 8.24926Z" fill="#888386"/>
<path id="Vector_4" d="M39.0647 71.8589C36.7051 71.2759 37.732 74.5106 33.1497 71.8624C32.5095 71.4932 30.5685 67.1169 28.2751 67.7602C23.409 69.125 23.0565 66.5977 19.3664 65.1044C17.3213 64.2767 17.646 66.1485 20.2276 69.2677C20.8204 70.576 20.7182 72.1008 20.6976 73.5996C38.6474 91.344 60.3212 80.5641 70.457 74.8157C70.219 74.7905 69.9809 74.7653 69.7474 74.7181C67.265 74.2152 63.818 70.8539 61.8166 68.2746C58.97 69.8995 54.96 68.1394 53.0006 68.5839C47.2137 69.9047 45.4222 73.4307 39.0647 71.8589Z" fill="#6E6A6D"/>
<path id="Vector_5" d="M70.2346 8.72473C64.4055 7.10615 56.3679 8.85351 51.2174 11.2438C35.2441 18.6585 13.244 39.9358 8.08371 46.8329C11.6558 49.5372 15.6321 51.6591 19.865 53.1201C19.487 52.5941 19.2198 51.9967 19.0797 51.3644C19.016 51.0157 19.0538 50.6562 19.1885 50.3287C19.3232 50.0012 19.5492 49.7195 19.8396 49.5172C21.2108 45.9041 25.1217 42.9383 27.5797 40.2246C31.8891 35.4657 36.6522 31.1506 40.9715 26.453C41.5708 25.7999 42.4914 26.1612 42.7876 26.8896C43.455 28.5294 43.365 29.4284 42.4341 30.9635C41.8768 31.8814 40.8088 34.2406 44.0947 37.9887C47.1174 41.4389 48.5047 47.2178 50.1231 49.9789C57.0243 45.1773 64.9495 33.5787 69.0878 20.4329C69.4034 19.4329 72.1235 16.3066 72.5258 15.444C74.0736 12.1072 74.3227 9.86065 70.2346 8.72473Z" fill="#8C8C8C"/>
<path id="Vector_6" d="M44.0901 37.9829C40.805 34.2343 41.873 31.8751 42.4294 30.9577C43.3603 29.4226 43.4504 28.5237 42.783 26.8838C42.4867 26.1554 41.5662 25.7941 40.9668 26.4472C36.6475 31.1448 31.8866 35.4634 27.5772 40.2223C25.1187 42.9352 21.2083 45.9018 19.8371 49.5149C19.5467 49.7172 19.3207 49.9989 19.186 50.3264C19.0513 50.6539 19.0135 51.0134 19.0772 51.3621C19.2173 51.9944 19.4845 52.5918 19.8625 53.1178C29.6188 56.4712 40.2329 55.9923 49.0846 50.6553C49.4238 50.4473 49.7734 50.2088 50.1169 49.9705C48.499 47.2102 47.1106 41.4296 44.0901 37.9829Z" fill="#A49FA3"/>
<path id="Vector_7" d="M66.0484 22.7086C63.4749 30.8558 57.2129 39.6374 55.8486 41.8625C52.2916 47.6777 48.1975 50.7726 43.7964 51.3377C36.9951 52.2149 32.882 54.6272 30.0053 53.8658C26.6741 52.9853 19.9371 49.1463 18.2951 48.5307C16.4883 47.8522 12.1549 46.7087 8.08533 46.8354C11.1286 49.0399 15.1906 54.1889 28.5714 56.1758C30.5277 56.4661 34.0978 57.3399 35.6611 56.4693C36.6254 56.2252 42.1262 53.537 44.4487 53.2315C45.9898 53.0291 47.9697 52.5889 50.4242 54.3432C53.7888 56.7401 55.426 60.8602 56.2723 62.3543C59.5196 68.0859 61.8959 73.18 67.7427 73.8837C64.2227 71.4158 59.1926 61.6895 55.8477 54.7352C54.6546 52.2556 53.8448 48.49 55.2827 47.6505C62.4048 43.5113 62.6705 38.1148 64.3876 33.2783C66.9355 26.1038 69.7467 28.3458 71.133 23.5976C71.5833 22.0559 71.0861 19.5281 71.7825 18.531C74.1035 15.213 74.8551 13.4347 73.1905 10.4608C72.7957 14.9481 67.9215 16.7844 66.0484 22.7086Z" fill="#BCB7BB"/>
<path id="Vector_8" d="M72.3614 24.5945C74.7478 30.2525 76.6014 35.4478 73.3387 40.8933C71.5068 43.9511 71.5065 51.3089 70.2834 53.8705C67.4625 59.7755 72.3037 64.818 76.2631 66.9586C72.7243 59.4565 73.3263 57.0672 74.7499 53.1098C76.2689 48.8842 74.1771 44.9488 76.0909 41.0885C79.417 34.3747 76.2723 28.7947 72.3614 24.5945Z" fill="#888386"/>
</g>
<defs>
<clipPath id="clip0_77_328">
<rect width="80.74" height="64.7108" fill="white" transform="translate(0 42.2043) rotate(-31.5148)"/>
</clipPath>
</defs>
</svg>
