<svg width="61" height="58" viewBox="0 0 61 58" fill="none" xmlns="http://www.w3.org/2000/svg">
<g id="rock-1" clip-path="url(#clip0_59_33)">
<path id="Vector" d="M35.6682 40.1587C37.7964 39.1763 41.1867 41.2334 42.9629 39.4767C45.1346 37.3269 47.8328 35.349 50.1796 31.8097C46.1243 31.6907 41.128 30.9771 38.221 30.6679C34.2585 30.2452 30.7615 28.7846 27.9037 32.0914C26.1923 34.0676 24.7878 36.2555 23.2677 38.3794C22.3293 39.6901 20.7318 43.5433 21.1957 45.3826C21.23 45.5189 21.2772 45.6519 21.3244 45.785C21.8077 46.1216 22.2549 46.4269 22.6416 46.6924C23.337 47.1699 24.6776 47.5611 26.3791 47.848C28.5044 43.9185 33.1387 41.3261 35.6682 40.1587Z" fill="#6E6A6D"/>
<path id="Vector_2" d="M43.7157 47.1431C48.6478 45.3029 53.3484 37.8844 55.4479 33.0718C55.7428 32.4021 55.9609 31.7013 56.0982 30.9827C55.1115 31.7078 52.8474 31.8861 50.1796 31.8097C47.8324 35.3495 45.1345 37.3269 42.9629 39.4767C41.1867 41.2334 37.7963 39.1763 35.6682 40.1587C33.1386 41.3261 28.5054 43.9169 26.379 47.848C31.4472 48.7034 39.7232 48.6326 43.7157 47.1431Z" fill="#5C585C"/>
<g id="Vector_3" filter="url(#filter0_d_59_33)">
<path d="M54.7994 24.7887C52.5913 21.2834 48.6307 18.367 44.9755 16.1024C43.3913 15.033 41.7203 14.0858 40.1018 13.1942C34.891 10.327 26.008 7.24873 20.3327 5.47776C16.764 6.25775 11.9866 13.106 10.6514 15.7936C10.1342 16.8336 9.68421 17.9056 9.30405 19.0031C10.108 18.6304 10.9438 18.2987 11.4889 17.6502C12.4908 15.4833 13.4042 14.8335 13.4845 16.1322C13.6295 18.4754 12.3748 19.3064 14.3397 21.5476C15.2657 22.6039 13.4318 24.7506 13.3984 25.1852C13.1561 28.2971 14.6155 26.9273 14.906 28.331C15.6887 32.1127 18.0206 32.1681 20.1962 34.9109C20.9311 35.8406 21.0157 38.422 22.6048 39.5226C22.797 39.1254 23.0187 38.7431 23.2679 38.3789C24.7871 36.2543 26.1963 34.0659 27.904 32.0909C30.7639 28.7854 34.2581 30.2457 38.2213 30.6674C43.041 31.1808 53.6124 32.8093 56.0981 30.9827C56.6772 27.917 55.3969 25.7348 54.7994 24.7887Z" fill="#888386"/>
</g>
<g id="Vector_4" filter="url(#filter1_d_59_33)">
<path d="M14.9057 28.3314C14.6152 26.9277 13.1558 28.2975 13.398 25.1856C13.4315 24.751 15.2654 22.6043 14.3394 21.548C12.3745 19.3068 13.6292 18.4759 13.4842 16.1326C13.4039 14.8339 12.4908 15.4832 11.4886 17.6506C10.9435 18.2991 10.1064 18.6329 9.30374 19.0035C4.43371 33.0699 15.6862 41.8557 21.3247 45.7844C21.2775 45.6514 21.2303 45.5183 21.196 45.382C20.8316 43.9334 21.7422 41.2439 22.6048 39.5225C21.0157 38.4219 20.9311 35.8405 20.1959 34.9113C18.02 32.169 15.6881 32.1136 14.9057 28.3314Z" fill="#6E6A6D"/>
</g>
<path id="Vector_5" d="M56.4276 28.8405C55.8047 25.3274 52.8289 21.4964 50.246 19.3649C42.235 12.755 25.3149 6.46813 20.332 5.47879C19.8028 8.06752 19.6862 10.7231 19.9867 13.3469C20.1702 13.0119 20.42 12.7177 20.7207 12.4822C20.89 12.3595 21.0909 12.2881 21.2994 12.2764C21.5079 12.2646 21.7153 12.3132 21.8969 12.4161C24.1681 12.2257 26.7414 13.5513 28.8109 14.168C32.4397 15.249 35.9479 16.6843 39.5465 17.7862C40.0465 17.9388 40.0887 18.5205 39.7766 18.8635C39.0741 19.6361 38.573 19.817 37.5194 19.7126C36.8892 19.6498 35.3622 19.6823 34.2048 22.3845C33.1389 24.8709 30.4178 27.0802 29.3609 28.6441C33.6723 31.093 41.8601 32.3563 49.9071 31.2111C50.5194 31.1244 52.875 31.7755 53.4363 31.77C55.6055 31.7438 56.8641 31.3045 56.4276 28.8405Z" fill="#8C8C8C"/>
<path id="Vector_6" d="M34.2066 22.3806C35.3645 19.6787 36.8915 19.6462 37.5212 19.7087C38.5748 19.8131 39.0759 19.6322 39.7784 18.8596C40.0905 18.5166 40.0483 17.9349 39.5483 17.7823C35.9497 16.6804 32.4401 15.2471 28.8114 14.1662C26.7423 13.5489 24.1686 12.2239 21.8974 12.4143C21.7158 12.3113 21.5084 12.2628 21.2999 12.2745C21.0914 12.2862 20.8905 12.3576 20.7212 12.4803C20.4205 12.7158 20.1707 13.01 19.9871 13.345C20.687 19.389 23.6439 24.9136 28.7366 28.2638C28.9336 28.3914 29.1495 28.5166 29.3637 28.6387C30.4203 27.0753 33.142 24.865 34.2066 22.3806Z" fill="#A49FA3"/>
<path id="Vector_7" d="M47.9226 30.1735C42.9333 30.8785 36.6674 29.7829 35.1363 29.6236C31.1372 29.2117 28.4485 27.8217 27.0274 25.6242C24.8292 22.2293 22.4988 20.6553 22.1715 18.9311C21.7918 16.9348 22.119 12.3735 22.0285 11.3433C21.9294 10.2093 21.4345 7.6129 20.3311 5.48022C19.9331 7.66045 18.228 11.1322 20.5776 18.7564C20.9211 19.871 21.3652 21.9927 22.2263 22.6028C22.6017 23.0536 25.4322 25.2956 26.186 26.4534C26.686 27.2217 27.4242 28.1629 27.1158 29.9153C26.6973 32.3154 24.9222 34.2353 24.3429 35.0658C22.1204 38.2525 20.0154 40.8136 21.1296 44.1032C21.5463 41.6023 25.44 36.4501 28.288 32.9003C29.3034 31.6343 31.1005 30.2448 31.9132 30.7961C35.9283 33.5312 38.8668 32.2986 41.8769 31.9808C46.3423 31.5097 45.8653 33.576 48.7441 33.1047C49.679 32.9518 50.8971 32.0437 51.6049 32.1604C53.9609 32.5504 55.0983 32.4975 56.2566 30.8548C53.7688 31.7872 51.5511 29.6617 47.9226 30.1735Z" fill="#BCB7BB"/>
<path id="Vector_8" d="M48.5265 34.0121C46.124 36.7221 43.8321 39.0308 40.1046 38.6814C38.0115 38.4853 34.0972 40.3583 32.4231 40.3598C28.5635 40.3625 27.1135 44.2216 26.9827 46.8729C30.0728 43.0805 31.4971 42.7924 33.9648 42.5423C36.5995 42.2746 38.1605 40.1599 40.7014 40.1953C45.1198 40.2555 47.2877 37.1619 48.5265 34.0121Z" fill="#888386"/>
</g>
<defs>
<filter id="filter0_d_59_33" x="6.30408" y="3.47778" width="50.9409" height="38.0448" filterUnits="userSpaceOnUse" color-interpolation-filters="sRGB">
<feFlood flood-opacity="0" result="BackgroundImageFix"/>
<feColorMatrix in="SourceAlpha" type="matrix" values="0 0 0 0 0 0 0 0 0 0 0 0 0 0 0 0 0 0 127 0" result="hardAlpha"/>
<feOffset dx="-1"/>
<feGaussianBlur stdDeviation="1"/>
<feComposite in2="hardAlpha" operator="out"/>
<feColorMatrix type="matrix" values="0 0 0 0 0 0 0 0 0 0 0 0 0 0 0 0 0 0 0.25 0"/>
<feBlend mode="normal" in2="BackgroundImageFix" result="effect1_dropShadow_59_33"/>
<feBlend mode="normal" in="SourceGraphic" in2="effect1_dropShadow_59_33" result="shape"/>
</filter>
<filter id="filter1_d_59_33" x="6.11102" y="14.4663" width="18.4938" height="34.3181" filterUnits="userSpaceOnUse" color-interpolation-filters="sRGB">
<feFlood flood-opacity="0" result="BackgroundImageFix"/>
<feColorMatrix in="SourceAlpha" type="matrix" values="0 0 0 0 0 0 0 0 0 0 0 0 0 0 0 0 0 0 127 0" result="hardAlpha"/>
<feOffset dy="1"/>
<feGaussianBlur stdDeviation="1"/>
<feComposite in2="hardAlpha" operator="out"/>
<feColorMatrix type="matrix" values="0 0 0 0 0 0 0 0 0 0 0 0 0 0 0 0 0 0 0.25 0"/>
<feBlend mode="normal" in2="BackgroundImageFix" result="effect1_dropShadow_59_33"/>
<feBlend mode="normal" in="SourceGraphic" in2="effect1_dropShadow_59_33" result="shape"/>
</filter>
<clipPath id="clip0_59_33">
<rect width="47.6176" height="38.1641" fill="white" transform="translate(20.7363) rotate(32.9116)"/>
</clipPath>
</defs>
</svg>
