<svg width="104" height="137" viewBox="0 0 104 137" fill="none" xmlns="http://www.w3.org/2000/svg">
<g id="tulang">
<g id="Group">
<g id="Layer 1">
<path id="Vector" style="mix-blend-mode:multiply" d="M96.1105 13.4023C95.8087 13.0491 95.4832 12.6904 95.1432 12.3318C94.8959 12.205 94.645 12.08 94.3959 11.9478C95.2887 13.1279 96.0223 14.4195 96.5778 15.7897C97.9161 19.253 98.3652 25.8537 92.6485 24.2543C88.5447 23.104 85.1445 19.57 83.8954 15.5035C83.3335 18.4434 83.3499 21.3814 85.35 23.8775C86.3118 25.0676 87.5955 26.5801 87.1883 28.2483C86.0755 32.7877 80.6661 32.0631 77.915 35.0718C75.5876 37.6168 73.9676 40.6744 71.8984 43.415C70.0055 45.922 67.8854 48.284 65.8853 50.7094C61.2323 56.3537 56.5957 62.0197 52.0882 67.7817C42.9241 79.4995 34.1255 91.6031 26.8324 104.591C25.0941 107.686 22.9794 110.931 22.0539 114.381C21.2593 117.341 21.5194 120.116 21.6266 123.128C21.8085 128.111 18.5028 131.87 13.2244 131.423C9.35326 131.095 5.62397 127.885 4.04388 124.28C5.19304 130.608 11.1352 137.764 23.154 136.427C30.618 135.596 26.8578 126.827 27.476 121.52C29.7416 102.082 67.6363 52.7164 75.8968 45.6231C79.9897 42.109 84.3136 39.2181 89.1029 36.5825C94.0013 33.8872 98.1943 31.0596 101.038 26.417C101.594 22.0389 99.4998 17.4018 96.1105 13.4023Z" fill="url(#paint0_linear_71_157)"/>
<path id="Vector_2" d="M92.2467 11.2903C91.9485 10.9407 91.623 10.5838 91.2848 10.2288C89.873 9.51419 88.511 8.70569 87.2082 7.80881C86.3261 7.64168 85.4672 7.36985 84.6499 6.99912C83.6026 6.51911 82.8171 5.00661 82.1643 4.10092C81.8317 3.64476 81.4671 3.21257 81.0734 2.80759C78.2278 1.49072 75.2622 0.699148 72.4875 0.880286C66.7672 1.25162 65.5435 4.38893 65.7253 8.1095C72.3675 17.6808 68.4291 30.2409 61.0469 39.3721C46.1225 57.8246 14.0008 104.477 10.3806 107.819C7.85862 110.144 2.90382 112.237 1.4601 115.272C-1.43096 121.368 3.65295 135.154 19.8647 133.348C27.2705 132.522 23.5413 123.833 24.154 118.557C26.4014 99.2726 63.9979 50.2965 72.1929 43.2575C76.2531 39.7724 80.5424 36.905 85.2954 34.2894C90.1538 31.6158 94.3122 28.8099 97.1342 24.2036C97.687 19.8599 95.6087 15.2572 92.2467 11.2903Z" fill="#F7FAEB"/>
<path id="Vector_3" style="mix-blend-mode:multiply" d="M85.8045 10.4209C85.8045 10.4209 85.7191 19.1245 90.3157 21.1352C94.9123 23.1458 97.4615 22.8288 97.0215 27.167C96.5815 31.5053 88.2937 34.6825 88.2937 34.6825C88.2937 34.6825 95.4869 27.1652 91.1339 24.5895C86.7809 22.0137 85.8718 21.905 84.2717 17.5849C82.6716 13.2647 76.7877 12.513 76.7877 12.513C76.7877 12.513 72.1929 12.5384 75.9604 10.7107C79.7278 8.88299 82.9844 8.34863 85.8045 10.4209Z" fill="url(#paint1_linear_71_157)"/>
</g>
</g>
</g>
<defs>
<linearGradient id="paint0_linear_71_157" x1="26.8142" y1="49.7657" x2="116.403" y2="131.283" gradientUnits="userSpaceOnUse">
<stop stop-color="white"/>
<stop offset="1" stop-color="#644F45"/>
</linearGradient>
<linearGradient id="paint1_linear_71_157" x1="15950.6" y1="1591.22" x2="18617.1" y2="-1833.76" gradientUnits="userSpaceOnUse">
<stop stop-color="white"/>
<stop offset="1" stop-color="#644F45"/>
</linearGradient>
</defs>
</svg>
